<svg width="953" height="762" viewBox="0 0 953 762" fill="none" xmlns="http://www.w3.org/2000/svg">
<path d="M234.485 530.222H735.307V29.4036H234.485V530.222ZM749.6 558.837H220.181C212.277 558.837 205.871 552.43 205.871 544.525V15.1023C205.871 7.19697 212.277 0.7889 220.181 0.7889H749.6C757.507 0.7889 763.92 7.19697 763.92 15.1023V544.525C763.92 552.43 757.507 558.837 749.6 558.837Z" fill="#55A6D4"/>
<path d="M277.496 196.264H401.347V72.4158H277.496V196.264ZM406.16 205.884H272.684C270.032 205.886 267.88 203.738 267.877 201.086V201.077V67.6038C267.873 64.9504 270.021 62.7985 272.673 62.7958H272.684H406.16C408.813 62.7932 410.96 64.9412 410.96 67.5932V67.6038V201.077C410.96 203.729 408.813 205.881 406.173 205.884H406.16Z" fill="#55A6D4"/>
<path d="M307.493 91.4162H371.36C377.427 91.4162 382.347 96.3375 382.347 102.408V166.278C382.347 172.348 377.427 177.27 371.36 177.27H307.493C301.413 177.27 296.496 172.348 296.496 166.278V102.408C296.496 96.3375 301.413 91.4162 307.493 91.4162Z" fill="#55A6D4"/>
<path d="M568.453 196.264H692.293V72.4158H568.44L568.453 196.264ZM697.106 205.884H563.627C560.973 205.886 558.827 203.738 558.827 201.086V201.077V67.6038C558.827 64.9504 560.973 62.7985 563.627 62.7958H697.106C699.76 62.7932 701.92 64.9412 701.92 67.5932V67.6038V201.077C701.92 203.729 699.773 205.881 697.12 205.884H697.106Z" fill="#55A6D4"/>
<path d="M598.44 91.4162H662.306C668.373 91.4162 673.293 96.3375 673.293 102.408V166.278C673.293 172.348 668.373 177.27 662.306 177.27H598.44C592.36 177.27 587.44 172.348 587.44 166.278V102.408C587.44 96.3375 592.36 91.4162 598.44 91.4162Z" fill="#55A6D4"/>
<path d="M277.496 482.449H401.347V358.591H277.496V482.449ZM406.16 492.059H272.684C270.032 492.061 267.88 489.915 267.877 487.263V487.252V353.789C267.875 351.132 270.027 348.975 272.684 348.972H406.16C408.813 348.975 410.96 351.132 410.96 353.789V487.257C410.96 489.909 408.813 492.059 406.16 492.059Z" fill="#55A6D4"/>
<path d="M307.493 377.591H371.36C377.427 377.591 382.347 382.514 382.347 388.584V452.452C382.347 458.523 377.427 463.444 371.36 463.444H307.493C301.413 463.444 296.496 458.523 296.496 452.452V388.584C296.496 382.514 301.413 377.591 307.493 377.591Z" fill="#55A6D4"/>
<path d="M281.465 276.972H321.52C326.387 276.972 330.347 280.92 330.347 285.792V325.848C330.347 330.72 326.387 334.669 321.52 334.669H281.465C276.593 334.669 272.644 330.72 272.644 325.848V285.792C272.644 280.92 276.593 276.972 281.465 276.972Z" fill="#55A6D4"/>
<path d="M343.013 219.273H383.067C387.947 219.273 391.893 223.223 391.893 228.093V268.149C391.893 273.021 387.947 276.971 383.067 276.971H343.013C338.133 276.971 334.187 273.021 334.187 268.149V228.093C334.187 223.223 338.133 219.273 343.013 219.273Z" fill="#55A6D4"/>
<path d="M444.613 334.664H404.56C399.68 334.664 395.733 330.715 395.733 325.843V285.787C395.733 280.916 399.68 276.967 404.56 276.967H444.613C449.48 276.967 453.427 280.916 453.427 285.787V325.843C453.427 330.715 449.48 334.664 444.613 334.664Z" fill="#55A6D4"/>
<path d="M506.147 276.972H466.093C461.227 276.972 457.28 273.021 457.28 268.149V228.093C457.28 223.222 461.227 219.273 466.093 219.273H506.147C511.027 219.273 514.973 223.222 514.973 228.093V268.149C514.973 273.021 511.027 276.972 506.147 276.972Z" fill="#55A6D4"/>
<path d="M534.773 124.339H494.72C489.84 124.339 485.893 120.39 485.893 115.518V75.4615C485.893 70.5895 489.84 66.6402 494.72 66.6402H534.773C539.64 66.6402 543.587 70.5895 543.587 75.4615V115.518C543.587 120.39 539.64 124.339 534.773 124.339Z" fill="#55A6D4"/>
<path d="M467.48 429.598H507.547C512.413 429.598 516.36 433.548 516.36 438.42V478.476C516.36 483.346 512.413 487.297 507.547 487.297H467.48C462.613 487.297 458.667 483.346 458.667 478.476V438.42C458.667 433.548 462.613 429.598 467.48 429.598Z" fill="#55A6D4"/>
<path d="M529.027 371.9H569.08C573.96 371.9 577.907 375.849 577.907 380.721V420.777C577.907 425.649 573.96 429.599 569.08 429.599H529.027C524.16 429.599 520.2 425.649 520.2 420.777V380.721C520.2 375.849 524.16 371.9 529.027 371.9Z" fill="#55A6D4"/>
<path d="M630.627 487.297H590.573C585.693 487.297 581.746 483.346 581.746 478.476V438.42C581.746 433.548 585.693 429.598 590.573 429.598H630.627C635.493 429.598 639.44 433.548 639.44 438.42V478.476C639.44 483.346 635.493 487.297 630.627 487.297Z" fill="#55A6D4"/>
<path d="M692.173 429.599H652.12C647.24 429.599 643.293 425.649 643.293 420.777V380.721C643.293 375.849 647.24 371.9 652.12 371.9H692.173C697.04 371.9 700.987 375.849 700.987 380.721V420.777C700.987 425.649 697.04 429.599 692.173 429.599Z" fill="#55A6D4"/>
<path d="M630.627 334.664H590.573C585.693 334.664 581.746 330.715 581.746 325.843V285.787C581.746 280.916 585.693 276.967 590.573 276.967H630.627C635.493 276.967 639.44 280.916 639.44 285.787V325.843C639.44 330.715 635.493 334.664 630.627 334.664Z" fill="#55A6D4"/>
<path d="M692.173 276.972H652.12C647.24 276.972 643.293 273.021 643.293 268.149V228.093C643.293 223.222 647.24 219.273 652.12 219.273H692.173C697.04 219.273 700.987 223.222 700.987 228.093V268.149C700.987 273.021 697.04 276.972 692.173 276.972Z" fill="#55A6D4"/>
<path d="M28.0293 717.844H63.4999L46.38 657.733H45.1559L28.0293 717.844ZM29.0826 655.809C32.0466 645.849 36.7653 642.007 45.6773 642.007C55.2906 642.007 59.4839 645.849 62.4572 655.809L90.4106 748.947C90.9373 750.521 91.1119 751.569 91.1119 752.443C91.1119 757.161 87.096 761.179 82.3773 761.179C78.36 761.179 75.0347 758.556 73.9867 754.891L67.5226 732.347H24.0119L17.5479 754.891C16.4959 758.556 13.1799 761.179 9.15861 761.179C4.26928 761.179 0.422607 757.161 0.422607 752.443C0.422607 751.569 0.597303 750.521 1.11864 748.947L29.0826 655.809Z" fill="#131315"/>
<path d="M156.975 690.933C153.309 689.012 148.765 687.964 144.919 687.964C129.888 687.964 123.079 699.495 123.079 717.668C123.079 735.141 129.888 747.548 144.919 747.548C149.292 747.548 154.181 746.324 157.676 745.276C160.996 744.403 164.493 743.004 166.94 743.004C171.659 743.004 173.755 746.5 173.755 749.82C173.755 753.491 171.308 755.587 168.159 757.161C161.519 760.305 150.685 761.876 144.919 761.876C118.881 761.876 105.601 743.531 105.601 717.668C105.601 690.06 119.935 673.461 144.919 673.461C152.085 673.461 161.167 675.557 166.94 679.399C171.132 682.197 172.18 684.469 172.702 689.535L173.58 696.525C174.101 702.639 170.956 706.661 165.885 706.661C161.519 706.661 158.551 703.687 157.852 698.797L156.975 690.933Z" fill="#131315"/>
<path d="M244.863 710.677C244.511 697.397 240.32 687.964 226.688 687.964C214.632 687.964 208.339 697.573 207.641 710.677H244.863ZM229.663 747.724C234.207 747.724 238.573 746.851 242.416 745.627C245.911 744.931 248.88 743.531 251.853 743.531C256.743 743.531 258.844 746.675 258.844 749.996C258.844 753.491 256.396 755.587 253.248 757.161C246.959 760.481 236.303 761.876 229.487 761.876C202.576 761.876 189.995 743.883 189.995 717.317C189.995 690.231 202.752 673.461 226.688 673.461C250.8 673.461 261.116 689.012 261.116 713.124C261.116 720.813 258.143 722.388 254.125 722.388H207.641C207.641 736.54 213.408 747.724 229.663 747.724Z" fill="#131315"/>
<path d="M296.401 697.397C296.401 705.261 304.613 708.059 314.747 711.028C327.68 715.047 342.88 720.115 342.88 736.54C342.88 753.14 327.68 761.876 310.2 761.876C302.693 761.876 290.283 760.305 283.644 757.161C279.445 755.236 277.701 752.964 277.701 749.996C277.701 746.5 280.149 742.829 284.868 742.829C287.836 742.829 290.805 744.227 294.305 745.276C299.2 746.851 304.787 748.249 310.027 748.249C319.987 748.249 325.413 743.355 325.413 737.236C325.413 730.075 318.067 727.452 307.24 724.308C296.401 720.989 278.925 715.924 278.925 698.271C278.925 681.671 294.305 673.461 309.16 673.461C316.84 673.461 328.373 675.557 334.32 678.527C337.64 680.272 340.08 682.72 340.08 686.039C340.08 689.183 337.987 692.679 333.44 692.679C330.653 692.679 327.853 691.284 324.707 690.231C320.16 688.311 315.267 687.263 310.373 687.263C300.6 687.263 296.401 691.807 296.401 697.397Z" fill="#131315"/>
<path d="M377.64 697.397C377.64 705.261 385.853 708.059 395.987 711.028C408.92 715.047 424.133 720.115 424.133 736.54C424.133 753.14 408.92 761.876 391.44 761.876C383.933 761.876 371.52 760.305 364.893 757.161C360.693 755.236 358.947 752.964 358.947 749.996C358.947 746.5 361.4 742.829 366.107 742.829C369.08 742.829 372.053 744.227 375.547 745.276C380.44 746.851 386.04 748.249 391.28 748.249C401.24 748.249 406.653 743.355 406.653 737.236C406.653 730.075 399.32 727.452 388.48 724.308C377.64 720.989 360.173 715.924 360.173 698.271C360.173 681.671 375.547 673.461 390.4 673.461C398.08 673.461 409.627 675.557 415.56 678.527C418.88 680.272 421.333 682.72 421.333 686.039C421.333 689.183 419.24 692.679 414.693 692.679C411.893 692.679 409.093 691.284 405.96 690.231C401.413 688.311 396.52 687.263 391.627 687.263C381.84 687.263 377.64 691.807 377.64 697.397Z" fill="#131315"/>
<path d="M500.48 717.668C500.48 699.669 492.44 687.964 479.507 687.964C466.587 687.964 458.547 699.669 458.547 717.668C458.547 735.668 466.587 747.548 479.507 747.548C492.44 747.548 500.48 735.668 500.48 717.668ZM479.507 673.461C503.973 673.461 517.96 692.503 517.96 717.668C517.96 742.659 504.32 761.876 479.507 761.876C454.52 761.876 440.893 742.659 440.893 717.668C440.893 692.503 454.867 673.461 479.507 673.461Z" fill="#131315"/>
<path d="M582.24 651.792C582.24 646.896 586.08 643.056 590.973 643.056H642.867C647.24 643.056 650.747 646.552 650.747 650.919C650.747 655.112 647.24 658.608 642.867 658.608H599.893V694.253H633.267C637.467 694.253 640.947 697.749 640.947 701.943C640.947 706.133 637.467 709.805 633.267 709.805H599.893V752.443C599.893 757.332 596.04 761.179 590.973 761.179C586.08 761.179 582.24 757.332 582.24 752.443V651.792Z" fill="#131315"/>
<path d="M675.72 658.781C675.72 656.857 676.24 654.936 678.52 652.839L695.987 635.368C697.733 633.617 699.653 632.569 701.573 632.569C706.653 632.569 709.8 636.587 709.8 640.609C709.8 642.88 708.4 644.801 706.293 646.552L687.947 662.624C685.68 664.545 683.933 664.896 682.187 664.896C678.52 664.896 675.72 661.927 675.72 658.781ZM704.373 723.436H687.08C676.24 723.436 670.293 727.628 670.293 735.316C670.293 742.829 675.72 747.548 684.627 747.548C690.4 747.548 697.907 744.931 704.373 738.988V723.436ZM704.373 704.039C704.373 695.125 700.533 687.964 687.253 687.964C683.573 687.964 679.733 688.663 675.547 690.06C672.573 690.933 669.253 692.157 666.453 692.157C661.733 692.157 659.293 688.663 659.293 684.991C659.293 682.197 661.04 680.101 664.707 678.175C671 675.031 681.48 673.461 688.653 673.461C715.387 673.461 721.853 689.711 721.853 704.039V736.189C721.853 746.149 723.6 749.82 723.6 753.14C723.6 757.332 721.147 761.179 715.907 761.179C711.013 761.179 708.573 758.209 707.867 755.587L706.827 750.868C700.533 757.161 691.267 761.876 680.613 761.876C663.84 761.876 653.173 751.393 653.173 736.364C653.173 720.461 665.76 711.204 686.56 711.204H704.373V704.039Z" fill="#131315"/>
<path d="M795.573 690.933C791.907 689.012 787.373 687.964 783.52 687.964C768.493 687.964 761.68 699.495 761.68 717.668C761.68 735.141 768.493 747.548 783.52 747.548C787.893 747.548 792.787 746.324 796.28 745.276C799.6 744.403 803.093 743.004 805.533 743.004C810.253 743.004 812.36 746.5 812.36 749.82C812.36 753.491 809.907 755.587 806.76 757.161C800.12 760.305 789.293 761.876 783.52 761.876C757.48 761.876 744.2 743.531 744.2 717.668C744.2 690.06 758.533 673.461 783.52 673.461C790.68 673.461 799.773 675.557 805.533 679.399C809.733 682.197 810.787 684.469 811.307 689.535L812.173 696.525C812.707 702.639 809.56 706.661 804.493 706.661C800.12 706.661 797.147 703.687 796.453 698.797L795.573 690.933Z" fill="#131315"/>
<path d="M841.867 650.568C841.867 644.279 846.947 639.21 853.227 639.21C859.52 639.21 864.587 644.279 864.587 650.568C864.587 656.858 859.52 661.927 853.227 661.927C846.947 661.927 841.867 656.858 841.867 650.568ZM834.187 745.627H848.333V689.887H834.533C830.52 689.887 827.373 686.742 827.373 682.544C827.373 678.527 830.52 675.207 834.533 675.207H858.48C862.667 675.207 865.813 678.527 865.813 682.72V745.627H880.147C884.16 745.627 887.307 748.772 887.307 752.794C887.307 756.987 884.16 760.131 880.147 760.131H834.187C830.173 760.131 827.027 756.987 827.027 752.794C827.027 748.772 830.173 745.627 834.187 745.627Z" fill="#131315"/>
<path d="M899.707 745.627H913.853V649.52H900.053C896.04 649.52 892.893 646.552 892.893 642.354C892.893 638.336 896.04 635.016 900.053 635.016H924C928.187 635.016 931.333 638.336 931.333 642.53V745.627H945.667C949.68 745.627 952.827 748.772 952.827 752.794C952.827 756.987 949.68 760.131 945.667 760.131H899.707C895.507 760.131 892.373 756.987 892.373 752.794C892.373 748.772 895.507 745.627 899.707 745.627Z" fill="#131315"/>
</svg>
