<svg width="103" height="89" viewBox="0 0 103 89" fill="none" xmlns="http://www.w3.org/2000/svg">
<g clip-path="url(#clip0)">
<path d="M102.547 44.5123L76.85 0.156061L71.2314 64.5905C78.1958 48.2403 88.4997 36.4625 102.547 44.5123" fill="url(#paint0_linear)"/>
<path d="M76.7821 0.167542L25.521 0.179545L78.467 37.3286C67.8069 23.1091 62.7778 8.29027 76.7821 0.167542Z" fill="url(#paint1_linear)"/>
<path d="M25.6312 0.00201646L0.000488281 44.3962L58.6522 17.1317C41.0073 19.2494 25.6598 16.1921 25.6312 0.00201646" fill="url(#paint2_linear)"/>
<path d="M0.0742188 44.5025L25.7941 88.8446L31.3788 24.4077C24.4231 40.7614 14.1255 52.5444 0.0742188 44.5025Z" fill="url(#paint3_linear)"/>
<path d="M25.9031 88.8446L77.1644 88.8326L24.2188 51.683C34.8784 65.9029 39.908 80.7219 25.9031 88.8446Z" fill="url(#paint4_linear)"/>
<path d="M76.9426 88.8014L102.406 44.3112L43.8574 71.7961C61.4944 69.6117 76.8535 72.6117 76.9426 88.8014" fill="url(#paint5_linear)"/>
<path d="M71.1851 64.616V63.5493H71.3184V61.9494H71.4517V60.4827H71.585V58.8828H71.7184V58.6161H71.8517V58.4828H72.1184V58.3495H72.385V58.2161H72.785V58.0828H73.0517V57.9495H73.3183V57.8161H73.585V57.6828H73.8517V57.5495H74.1183V57.4161H74.385V57.2828H74.6516V57.1495H74.9183V57.2828H74.785V57.5495H74.6516V57.8161H74.5183V58.0828H74.385V58.3495H74.2516V58.6161H74.1183V58.7494H73.985V59.0161H73.8517V59.2828H73.7183V59.5494H73.585V59.8161H73.4517V60.0827H73.3183V60.4827H73.185V60.7494H73.0517V61.0161H72.9183V61.2827H72.785V61.5494H72.6517V61.816H72.5184V62.0827H72.385V62.3494H72.2517V62.616H72.1184V63.016H71.985V63.2827H71.8517V63.5493H71.7184V63.816H71.585V64.0826H71.4517V64.4826H71.3184V64.616H71.1851ZM102.251 44.2165H102.518V44.4831H102.251V44.2165Z" fill="url(#paint6_linear)"/>
<path d="M31.3599 54.369H35.7419L37.5159 51.279H45.1659L45.6479 54.369H49.7779L46.6339 35.47H42.6069L31.3599 54.369ZM39.4409 47.859L43.5199 40.765L44.6339 47.858L39.4409 47.859ZM52.2089 54.369H56.3639L57.9089 47.073H66.6489L67.4339 43.374H58.6939L59.5559 39.346H68.5489L69.3589 35.596H56.2119L52.2099 54.37" fill="#215798"/>
</g>
<defs>
<linearGradient id="paint0_linear" x1="94.0205" y1="59.6856" x2="94.805" y2="13.8241" gradientUnits="userSpaceOnUse">
<stop stop-color="#00A650"/>
<stop offset="1" stop-color="#99D420"/>
</linearGradient>
<linearGradient id="paint1_linear" x1="44.2039" y1="37.7849" x2="72.4439" y2="16.1626" gradientUnits="userSpaceOnUse">
<stop stop-color="#9C9A9B"/>
<stop offset="1" stop-color="#D3D2D2"/>
</linearGradient>
<linearGradient id="paint2_linear" x1="11.1165" y1="27.5735" x2="50.6408" y2="27.5735" gradientUnits="userSpaceOnUse">
<stop stop-color="#215698"/>
<stop offset="1" stop-color="#00ADEF"/>
</linearGradient>
<linearGradient id="paint3_linear" x1="22.8535" y1="83.9392" x2="23.638" y2="38.0778" gradientUnits="userSpaceOnUse">
<stop stop-color="#00A650"/>
<stop offset="1" stop-color="#99D420"/>
</linearGradient>
<linearGradient id="paint4_linear" x1="58.4816" y1="51.2274" x2="30.2417" y2="72.8497" gradientUnits="userSpaceOnUse">
<stop stop-color="#9C9A9B"/>
<stop offset="1" stop-color="#D3D2D2"/>
</linearGradient>
<linearGradient id="paint5_linear" x1="54.9537" y1="71.9423" x2="94.4087" y2="71.9423" gradientUnits="userSpaceOnUse">
<stop stop-color="#215698"/>
<stop offset="1" stop-color="#00ADEF"/>
</linearGradient>
<linearGradient id="paint6_linear" x1="94.0205" y1="59.6856" x2="94.805" y2="13.8241" gradientUnits="userSpaceOnUse">
<stop stop-color="#00A650"/>
<stop offset="1" stop-color="#99D420"/>
</linearGradient>
<clipPath id="clip0">
<rect width="102.548" height="88.845" fill="white"/>
</clipPath>
</defs>
</svg>
