<svg width="334" height="290" viewBox="0 0 334 290" fill="none" xmlns="http://www.w3.org/2000/svg">
<g clip-path="url(#clip0)">
<path d="M333.929 144.948L250.251 0.508534L231.955 210.332C254.631 157.089 288.187 118.736 333.929 144.948Z" fill="url(#paint0_linear)"/>
<path d="M250.03 0.54589L83.103 0.584561L255.515 121.556C220.803 75.252 204.426 26.9959 250.03 0.54589Z" fill="url(#paint1_linear)"/>
<path d="M83.464 0.00724109L0.000488281 144.57L190.993 55.7872C133.533 62.6844 83.5561 52.7273 83.464 0.00724109Z" fill="url(#paint2_linear)"/>
<path d="M0.238281 144.917L83.993 289.312L102.178 79.4799C79.5295 132.735 45.995 171.105 0.238281 144.917Z" fill="url(#paint3_linear)"/>
<path d="M84.3476 289.312L251.275 289.273L78.8623 168.301C113.576 214.605 129.953 262.861 84.3476 289.312" fill="url(#paint4_linear)"/>
<path d="M250.551 289.171L333.472 144.296L142.814 233.794C200.247 226.682 250.261 236.451 250.551 289.171" fill="url(#paint5_linear)"/>
<path d="M231.888 210.451V209.518H232.021V207.918H232.154V206.451H232.288V204.851H232.421V203.385H232.554V201.918H232.688V200.318H232.821V198.852H232.954V197.252H233.088V195.785H233.221V194.185H233.354V192.718H233.488V191.118H233.621V190.985H233.888V190.852H234.288V190.718H234.554V190.585H234.821V190.452H235.088V190.318H235.354V190.185H235.621V190.052H235.888V189.918H236.154V189.785H236.554V189.652H236.821V189.518H237.088V189.385H237.354V189.252H237.621V189.118H237.888V188.985H238.154V188.852H238.554V188.719H238.821V188.585H239.088V188.452H239.354V188.319H239.621V188.185H239.887V188.052H240.154V187.919H240.421V187.785H240.821V187.652H241.087V187.519H241.354V187.385H241.621V187.252H241.887V187.119H242.154V186.985H242.421V186.852H242.687V186.719H243.087V186.585H243.354V186.452H243.621V186.585H243.487V186.719H243.354V186.985H243.221V187.252H243.087V187.519H242.954V187.785H242.821V188.052H242.687V188.319H242.554V188.585H242.421V188.719H242.287V188.985H242.154V189.252H242.021V189.518H241.887V189.785H241.754V190.052H241.621V190.318H241.487V190.452H241.354V190.718H241.221V190.985H241.087V191.252H240.954V191.518H240.821V191.785H240.687V192.052H240.554V192.318H240.421V192.585H240.287V192.852H240.154V193.118H240.021V193.385H239.887V193.652H239.754V193.918H239.621V194.185H239.488V194.452H239.354V194.718H239.221V194.985H239.088V195.252H238.954V195.518H238.821V195.785H238.688V196.052H238.554V196.318H238.421V196.585H238.288V196.852H238.154V197.118H238.021V197.385H237.888V197.652H237.754V197.918H237.621V198.185H237.488V198.452H237.354V198.718H237.221V198.985H237.088V199.252H236.954V199.652H236.821V199.918H236.688V200.185H236.554V200.452H236.421V200.718H236.288V200.985H236.154V201.252H236.021V201.518H235.888V201.918H235.754V202.185H235.621V202.451H235.488V202.718H235.354V202.985H235.221V203.385H235.088V203.651H234.954V203.918H234.821V204.185H234.688V204.451H234.554V204.718H234.421V205.118H234.288V205.385H234.154V205.651H234.021V205.918H233.888V206.318H233.754V206.585H233.621V206.851H233.488V207.118H233.354V207.518H233.221V207.785H233.088V208.051H232.954V208.451H232.821V208.718H232.688V208.985H232.554V209.251H232.421V209.651H232.288V209.918H232.154V210.185H232.021V210.451H231.888ZM333.218 144.72V144.586H332.952V144.453H333.085V144.32H333.352V144.186H333.485V144.586H333.352V144.72" fill="url(#paint6_linear)"/>
<path d="M104.607 133.544H109.489L111.465 130.101H119.987L120.523 133.544H125.123L121.623 112.491H117.137L104.607 133.544ZM113.609 126.291L118.153 118.389L119.394 126.291H113.609ZM136.695 133.855C137.921 133.855 139.017 133.76 139.987 133.572C140.956 133.379 141.831 133.092 142.611 132.707C143.399 132.322 144.133 131.835 144.793 131.257L142.197 127.984C141.525 128.523 140.771 128.95 139.963 129.249C139.136 129.564 138.185 129.724 137.117 129.733C135.824 129.729 134.78 129.536 133.989 129.151C133.195 128.769 132.621 128.229 132.259 127.532C131.901 126.832 131.722 126.004 131.727 125.049C131.727 124.683 131.751 124.288 131.793 123.873C131.84 123.459 131.911 123.031 132.009 122.595C132.31 121.159 132.767 119.997 133.379 119.104C133.989 118.211 134.747 117.552 135.655 117.137C136.563 116.724 137.615 116.521 138.811 116.527C139.629 116.531 140.353 116.616 140.984 116.789C141.572 116.943 142.13 117.191 142.639 117.523C143.109 117.833 143.505 118.196 143.833 118.615L147.588 115.567C147.234 115.133 146.835 114.737 146.398 114.387C145.927 114 145.348 113.652 144.667 113.337C143.984 113.023 143.167 112.768 142.216 112.58C141.261 112.392 140.146 112.297 138.866 112.293C137.859 112.285 136.855 112.376 135.866 112.565C134.893 112.755 133.966 113.064 133.086 113.501C132.186 113.956 131.366 114.556 130.659 115.276C129.921 116.019 129.272 116.946 128.712 118.06C128.157 119.17 127.71 120.492 127.381 122.03C127.241 122.679 127.141 123.304 127.081 123.91C127.018 124.495 126.986 125.082 126.986 125.67C126.981 126.907 127.165 128.03 127.527 129.033C127.881 130.02 128.468 130.906 129.239 131.616C130.01 132.331 131.017 132.886 132.249 133.271C133.481 133.656 134.963 133.849 136.695 133.855V133.855ZM147.164 133.544H162.629L163.476 129.536H152.639L153.627 124.908H164.067L164.944 120.872H154.474L155.348 116.809H166.072L166.975 112.632H151.623L147.164 133.544ZM175.357 133.854C176.759 133.859 178.015 133.727 179.133 133.459C180.253 133.196 181.203 132.777 181.999 132.208C182.787 131.644 183.411 130.881 183.809 129.998C184.227 129.089 184.439 127.993 184.444 126.713C184.434 125.783 184.241 125.001 183.861 124.376C183.469 123.739 182.928 123.207 182.285 122.824C181.617 122.414 180.855 122.076 179.989 121.804C179.085 121.524 178.171 121.279 177.248 121.071C176.523 120.909 175.806 120.715 175.098 120.492C174.496 120.293 174.031 120.049 173.705 119.757C173.381 119.471 173.217 119.085 173.212 118.615C173.212 118.027 173.344 117.565 173.607 117.232C173.865 116.897 174.256 116.662 174.773 116.527C175.296 116.389 175.94 116.324 176.712 116.329C177.699 116.333 178.593 116.432 179.392 116.62C180.192 116.804 180.893 117.039 181.491 117.325C182.083 117.613 182.571 117.913 182.948 118.22L185.996 114.777C185.587 114.468 185.155 114.191 184.703 113.949C184.185 113.661 183.555 113.393 182.827 113.144C182.092 112.894 181.236 112.688 180.253 112.534C179.271 112.377 178.145 112.297 176.881 112.294C176.008 112.287 175.136 112.354 174.275 112.494C173.484 112.618 172.713 112.843 171.98 113.164C171.298 113.458 170.677 113.877 170.15 114.4C169.628 114.917 169.224 115.557 168.936 116.32C168.649 117.076 168.504 117.975 168.499 119.01C168.504 119.785 168.608 120.453 168.824 121.013C169.034 121.577 169.341 122.057 169.736 122.457C170.136 122.857 170.606 123.2 171.157 123.483C171.707 123.769 172.319 124.024 172.991 124.24C173.668 124.461 174.388 124.673 175.159 124.88C175.964 125.092 176.651 125.28 177.229 125.444C177.713 125.572 178.185 125.744 178.639 125.957C179.001 126.136 179.271 126.356 179.444 126.62C179.619 126.888 179.703 127.227 179.703 127.645C179.699 128.271 179.539 128.755 179.213 129.099C178.889 129.447 178.419 129.687 177.803 129.823C177.191 129.955 176.453 130.021 175.583 130.016C174.56 130.019 173.539 129.912 172.539 129.696C171.64 129.504 170.766 129.211 169.933 128.821C169.171 128.467 168.453 128.025 167.793 127.504L164.831 130.749C165.367 131.164 165.977 131.555 166.675 131.925C167.365 132.297 168.147 132.627 169.015 132.913C169.881 133.205 170.841 133.431 171.895 133.6C172.948 133.764 174.101 133.85 175.357 133.855V133.854ZM195.421 133.854C196.824 133.859 198.079 133.727 199.199 133.459C200.319 133.196 201.268 132.777 202.064 132.208C202.851 131.643 203.475 130.881 203.874 129.998C204.294 129.089 204.504 127.993 204.509 126.713C204.499 125.783 204.307 125.001 203.927 124.376C203.535 123.739 202.994 123.207 202.351 122.824C201.683 122.414 200.92 122.076 200.055 121.804C199.151 121.524 198.236 121.279 197.313 121.071C196.588 120.908 195.871 120.715 195.163 120.492C194.561 120.293 194.096 120.049 193.771 119.757C193.447 119.471 193.281 119.085 193.277 118.615C193.277 118.027 193.407 117.565 193.672 117.232C193.931 116.897 194.322 116.662 194.839 116.527C195.359 116.389 196.005 116.324 196.777 116.329C197.764 116.333 198.657 116.432 199.457 116.62C200.257 116.804 200.957 117.039 201.555 117.325C202.148 117.613 202.637 117.913 203.013 118.22L206.061 114.777C205.652 114.468 205.22 114.191 204.768 113.949C204.251 113.661 203.62 113.393 202.891 113.144C202.157 112.894 201.301 112.688 200.319 112.534C199.336 112.377 198.211 112.297 196.945 112.294C196.073 112.287 195.201 112.354 194.34 112.494C193.549 112.617 192.778 112.843 192.045 113.164C191.363 113.458 190.743 113.878 190.215 114.4C189.693 114.917 189.288 115.557 189.001 116.32C188.715 117.076 188.569 117.975 188.564 119.01C188.569 119.785 188.672 120.453 188.888 121.013C189.1 121.577 189.407 122.057 189.801 122.457C190.201 122.857 190.671 123.2 191.221 123.483C191.771 123.769 192.384 124.024 193.056 124.24C193.733 124.461 194.453 124.673 195.224 124.88C196.029 125.092 196.714 125.28 197.294 125.444C197.868 125.604 198.339 125.777 198.705 125.957C199.067 126.136 199.335 126.356 199.509 126.62C199.684 126.888 199.768 127.227 199.768 127.645C199.763 128.271 199.603 128.755 199.278 129.099C198.955 129.447 198.484 129.687 197.868 129.823C197.256 129.955 196.518 130.021 195.648 130.016C194.625 130.019 193.604 129.912 192.604 129.696C191.705 129.504 190.831 129.211 189.999 128.821C189.237 128.467 188.519 128.025 187.859 127.504L184.896 130.749C185.432 131.164 186.044 131.555 186.739 131.925C187.489 132.322 188.273 132.652 189.081 132.913C190.02 133.221 190.983 133.451 191.96 133.6C193.013 133.764 194.167 133.85 195.421 133.855V133.854ZM216.927 133.883C217.919 133.887 218.903 133.801 219.88 133.624C220.853 133.444 221.795 133.139 222.693 132.711C223.62 132.267 224.469 131.674 225.205 130.956C225.981 130.213 226.657 129.283 227.245 128.159C227.829 127.035 228.295 125.688 228.639 124.117C228.878 123.014 229.001 121.888 229.005 120.759C229 119.353 228.765 118.125 228.3 117.067C227.849 116.034 227.155 115.125 226.277 114.419C225.393 113.713 224.325 113.183 223.073 112.824C221.828 112.472 220.416 112.294 218.845 112.294C217.835 112.288 216.837 112.374 215.849 112.543C214.861 112.716 213.912 113.013 213.004 113.432C212.07 113.86 211.215 114.442 210.474 115.153C209.697 115.881 209.02 116.804 208.432 117.913C207.848 119.024 207.388 120.36 207.049 121.916C206.926 122.505 206.833 123.1 206.772 123.699C206.711 124.264 206.682 124.809 206.682 125.332C206.687 126.742 206.922 127.984 207.388 129.047C207.839 130.091 208.538 131.01 209.424 131.723C210.309 132.439 211.385 132.979 212.647 133.341C213.907 133.699 215.336 133.883 216.927 133.883V133.883ZM216.983 129.819C215.633 129.809 214.551 129.601 213.737 129.184C212.919 128.769 212.327 128.196 211.96 127.461C211.597 126.723 211.419 125.877 211.424 124.908C211.424 124.527 211.447 124.132 211.489 123.728C211.532 123.328 211.593 122.918 211.677 122.509C211.955 121.164 212.387 120.049 212.976 119.165C213.534 118.304 214.323 117.616 215.252 117.18C216.184 116.743 217.308 116.527 218.62 116.527C219.979 116.531 221.07 116.737 221.893 117.147C222.721 117.552 223.319 118.116 223.691 118.84C224.061 119.57 224.241 120.416 224.236 121.38C224.236 121.761 224.208 122.152 224.16 122.547C224.108 122.947 224.039 123.356 223.953 123.779C223.667 125.143 223.223 126.272 222.636 127.165C222.075 128.03 221.284 128.721 220.351 129.16C219.42 129.601 218.296 129.819 216.983 129.819ZM106.243 176.552H113.249L115.855 164.248H130.595L131.919 158.01H117.179L118.632 151.217H133.8L135.168 144.895H112.993L106.243 176.552ZM145.891 143.185H152.043L161.869 135.367H153.579L145.891 143.185ZM127.69 176.552H135.081L138.071 171.341H150.975L151.787 176.552H158.751L153.451 144.68H146.66L127.69 176.552ZM141.319 165.572L148.197 153.609L150.077 165.572H141.319ZM176.267 177.022C178.125 177.022 179.784 176.881 181.252 176.595C182.719 176.303 184.042 175.869 185.224 175.285C186.417 174.703 187.529 173.965 188.529 173.092L184.599 168.136C183.581 168.951 182.438 169.597 181.216 170.051C179.963 170.529 178.524 170.771 176.908 170.785C174.949 170.778 173.369 170.485 172.172 169.902C170.969 169.325 170.1 168.507 169.552 167.452C169.011 166.392 168.74 165.138 168.748 163.693C168.748 163.137 168.783 162.539 168.848 161.913C168.918 161.286 169.025 160.638 169.175 159.976C169.631 157.804 170.321 156.046 171.247 154.692C172.172 153.34 173.319 152.342 174.693 151.716C176.068 151.089 177.663 150.783 179.472 150.789C180.711 150.797 181.807 150.925 182.762 151.189C183.722 151.452 184.555 151.823 185.268 152.299C185.98 152.769 186.578 153.319 187.076 153.952L192.759 149.337C192.224 148.679 191.62 148.08 190.957 147.551C190.245 146.965 189.369 146.44 188.336 145.963C187.304 145.485 186.066 145.1 184.626 144.816C183.181 144.531 181.493 144.388 179.557 144.381C178.032 144.37 176.51 144.509 175.013 144.795C173.553 145.074 172.137 145.55 170.805 146.211C169.442 146.9 168.201 147.807 167.131 148.896C166.013 150.021 165.031 151.424 164.183 153.111C163.343 154.792 162.667 156.793 162.168 159.121C161.955 160.104 161.805 161.051 161.712 161.97C161.612 162.888 161.569 163.779 161.569 164.633C161.563 166.506 161.841 168.207 162.389 169.723C162.923 171.217 163.812 172.558 164.979 173.633C166.148 174.715 167.672 175.556 169.539 176.139C171.403 176.724 173.647 177.015 176.267 177.022V177.022ZM192.587 176.552H199.552L206.302 144.895H199.339L192.587 176.552ZM206.345 176.552H228.048L229.331 170.486H214.633L220.103 144.895H213.095L206.345 176.552" fill="#215798"/>
</g>
<defs>
<linearGradient id="paint0_linear" x1="306.161" y1="194.359" x2="308.715" y2="45.0194" gradientUnits="userSpaceOnUse">
<stop stop-color="#00A650"/>
<stop offset="1" stop-color="#99D420"/>
</linearGradient>
<linearGradient id="paint1_linear" x1="143.943" y1="123.041" x2="235.902" y2="52.6311" gradientUnits="userSpaceOnUse">
<stop stop-color="#9C9A9B"/>
<stop offset="1" stop-color="#D3D2D2"/>
</linearGradient>
<linearGradient id="paint2_linear" x1="36.1985" y1="89.7903" x2="164.905" y2="89.7903" gradientUnits="userSpaceOnUse">
<stop stop-color="#215698"/>
<stop offset="1" stop-color="#00ADEF"/>
</linearGradient>
<linearGradient id="paint3_linear" x1="74.4199" y1="273.336" x2="76.9746" y2="123.99" gradientUnits="userSpaceOnUse">
<stop stop-color="#00A650"/>
<stop offset="1" stop-color="#99D420"/>
</linearGradient>
<linearGradient id="paint4_linear" x1="190.436" y1="166.817" x2="98.477" y2="237.226" gradientUnits="userSpaceOnUse">
<stop stop-color="#9C9A9B"/>
<stop offset="1" stop-color="#D3D2D2"/>
</linearGradient>
<linearGradient id="paint5_linear" x1="178.949" y1="234.272" x2="307.428" y2="234.272" gradientUnits="userSpaceOnUse">
<stop stop-color="#215698"/>
<stop offset="1" stop-color="#00ADEF"/>
</linearGradient>
<linearGradient id="paint6_linear" x1="306.16" y1="194.359" x2="308.715" y2="45.0194" gradientUnits="userSpaceOnUse">
<stop stop-color="#00A650"/>
<stop offset="1" stop-color="#99D420"/>
</linearGradient>
<clipPath id="clip0">
<rect width="333.937" height="289.312" fill="white"/>
</clipPath>
</defs>
</svg>
