<svg width="791" height="790" viewBox="0 0 791 790" fill="none" xmlns="http://www.w3.org/2000/svg">
<path d="M41.2874 749.526H749.679V41.1381H41.2874V749.526ZM769.924 790H21.0677C9.89035 790 0.822998 780.936 0.822998 769.756V20.9083C0.822998 9.7285 9.89035 0.6636 21.0677 0.6636H769.924C781.101 0.6636 790.169 9.7285 790.169 20.9083V769.756C790.169 780.936 781.101 790 769.924 790Z" fill="#6CBCEB"/>
<path d="M102.123 277.157H277.303V101.979H102.123V277.157ZM284.118 290.765H95.3299C91.5585 290.769 88.5149 287.73 88.5149 283.978V283.965V95.1728C88.5149 91.4213 91.5584 88.3778 95.3077 88.3734H95.3299H284.118C287.867 88.3689 290.911 91.4081 290.911 95.1596V95.1728V283.965C290.911 287.717 287.867 290.76 284.118 290.765Z" fill="#6CBCEB"/>
<path d="M144.552 128.854H234.873C243.465 128.854 250.443 135.816 250.443 144.402V234.741C250.443 243.329 243.465 250.289 234.873 250.289H144.552C135.96 250.289 129.003 243.329 129.003 234.741V144.402C129.003 135.816 135.96 128.854 144.552 128.854Z" fill="#6CBCEB"/>
<path d="M513.679 277.154H688.857V101.976H513.679V277.154ZM695.666 290.762H506.87C503.109 290.767 500.086 287.726 500.086 283.975V283.961V95.1696C500.061 91.4162 503.109 88.3733 506.87 88.3684H695.666C699.426 88.3659 702.45 91.4039 702.474 95.1548V95.1696V283.961C702.474 287.714 699.427 290.757 695.69 290.762H695.666Z" fill="#6CBCEB"/>
<path d="M556.075 128.854H646.416C655.005 128.854 661.964 135.815 661.964 144.401V234.742C661.964 243.329 655.005 250.29 646.416 250.29H556.075C547.486 250.29 540.527 243.329 540.527 234.742V144.401C540.527 135.815 547.486 128.854 556.075 128.854Z" fill="#6CBCEB"/>
<path d="M102.123 681.95H277.303V506.761H102.123V681.95ZM284.118 695.544H95.3299C91.5585 695.548 88.5149 692.509 88.5149 688.758V688.744V499.968C88.5149 496.208 91.5585 493.157 95.3299 493.153H284.118C287.867 493.157 290.911 496.208 290.911 499.968V688.751C290.911 692.503 287.867 695.544 284.118 695.544Z" fill="#6CBCEB"/>
<path d="M144.552 533.635H234.873C243.465 533.635 250.443 540.598 250.443 549.183V639.522C250.443 648.11 243.465 655.07 234.873 655.07H144.552C135.96 655.07 129.003 648.11 129.003 639.522V549.183C129.003 540.598 135.96 533.635 144.552 533.635Z" fill="#6CBCEB"/>
<path d="M466.028 175.422H409.383C402.491 175.422 396.898 169.834 396.898 162.944V106.288C396.898 99.3957 402.491 93.8101 409.383 93.8101H466.028C472.92 93.8101 478.513 99.3957 478.513 106.288V162.944C478.513 169.834 472.92 175.422 466.028 175.422Z" fill="#6CBCEB"/>
<path d="M370.863 607.195H427.529C434.42 607.195 440.001 612.781 440.001 619.672V676.331C440.001 683.222 434.42 688.808 427.529 688.808H370.863C363.973 688.808 358.391 683.222 358.391 676.331V619.672C358.391 612.781 363.973 607.195 370.863 607.195Z" fill="#6CBCEB"/>
<path d="M457.92 525.585H514.563C521.45 525.585 527.043 531.169 527.043 538.063V594.72C527.043 601.611 521.45 607.195 514.563 607.195H457.92C451.01 607.195 445.44 601.611 445.44 594.72V538.063C445.44 531.169 451.01 525.585 457.92 525.585Z" fill="#6CBCEB"/>
<path d="M601.61 688.809H544.954C538.055 688.809 532.479 683.223 532.479 676.332V619.672C532.479 612.783 538.055 607.196 544.954 607.196H601.61C608.509 607.196 614.085 612.783 614.085 619.672V676.332C614.085 683.223 608.509 688.809 601.61 688.809Z" fill="#6CBCEB"/>
<path d="M688.688 607.196H632.026C625.146 607.196 619.568 601.609 619.568 594.719V538.062C619.568 531.169 625.146 525.584 632.026 525.584H688.688C695.593 525.584 701.171 531.169 701.171 538.062V594.719C701.171 601.609 695.593 607.196 688.688 607.196Z" fill="#6CBCEB"/>
<path d="M107.749 391.311H164.404C171.281 391.311 176.876 396.898 176.876 403.789V460.446C176.876 467.335 171.281 472.922 164.404 472.922H107.749C100.852 472.922 95.2566 467.335 95.2566 460.446V403.789C95.2566 396.898 100.852 391.311 107.749 391.311Z" fill="#6CBCEB"/>
<path d="M194.791 309.701H251.462C258.358 309.701 263.939 315.287 263.939 322.178V378.836C263.939 385.727 258.358 391.311 251.462 391.311H194.791C187.918 391.311 182.336 385.727 182.336 378.836V322.178C182.336 315.287 187.918 309.701 194.791 309.701Z" fill="#6CBCEB"/>
<path d="M338.492 472.917H281.851C274.944 472.917 269.361 467.331 269.361 460.441V403.782C269.361 396.889 274.944 391.305 281.851 391.305H338.492C345.398 391.305 350.981 396.889 350.981 403.782V460.441C350.981 467.331 345.398 472.917 338.492 472.917Z" fill="#6CBCEB"/>
<path d="M425.556 391.31H368.921C362.011 391.31 356.432 385.724 356.432 378.832V322.176C356.432 315.284 362.011 309.699 368.921 309.699H425.556C432.466 309.699 438.045 315.284 438.045 322.176V378.832C438.045 385.724 432.466 391.31 425.556 391.31Z" fill="#6CBCEB"/>
<path d="M601.61 472.916H544.954C538.055 472.916 532.479 467.332 532.479 460.441V403.782C532.479 396.891 538.055 391.307 544.954 391.307H601.61C608.509 391.307 614.085 396.891 614.085 403.782V460.441C614.085 467.332 608.509 472.916 601.61 472.916Z" fill="#6CBCEB"/>
<path d="M688.688 391.31H632.026C625.146 391.31 619.568 385.724 619.568 378.832V322.175C619.568 315.283 625.146 309.697 632.026 309.697H688.688C695.593 309.697 701.171 315.283 701.171 322.175V378.832C701.171 385.724 695.593 391.31 688.688 391.31Z" fill="#6CBCEB"/>
</svg>
