<svg width="1140" height="185" viewBox="0 0 1140 185" fill="none" xmlns="http://www.w3.org/2000/svg">
<g clip-path="url(#clip0)">
<path fill-rule="evenodd" clip-rule="evenodd" d="M643.5 2.48767C643.5 3.53084 642.451 3.98972 640.06 3.98972C635.272 3.98972 634.739 5.64568 638.96 7.4071C641.077 8.29066 642.534 9.61029 642.582 10.6877C642.625 11.6795 642.773 13.84 642.907 15.4902C643.289 20.1788 641.821 22.2936 635.392 26.3124C628.851 30.4024 623.499 37.4965 623.499 42.0797C623.499 43.5646 622.903 45.0068 622.173 45.2861C618.953 46.5231 614.527 66.9903 614.507 80.7425L614.501 85.9954H577.126H539.751L535.066 83.3761C528.041 79.4485 528.619 79.5511 490.5 75.5266C482.526 74.6858 475.775 73.9904 475.501 73.979C473.258 73.902 478.747 72.0209 481.249 72.0095C488.277 71.9753 485.388 68.2387 477.75 67.4862C474.039 67.1186 468.074 66.4915 464.5 66.0925L457.999 65.3657L461.242 63.4304C470.798 57.7244 458.723 55.6865 418.809 56.265C375.021 56.9006 372.576 57.7671 386.119 67.8596C395.416 74.7884 397.029 75.5067 406.001 76.6981C411.171 77.385 412.043 77.8039 412.319 79.7449C412.633 81.9538 412.453 81.9937 402.205 81.9937C393.284 81.9937 391.4 82.2844 389.226 83.9945C385.39 87.0129 290.579 87.1383 288.988 84.1285C278.392 64.0945 274.02 59.5656 262.823 57.0261C259.619 56.2993 252.788 54.6433 247.641 53.3465C237.785 50.8668 227.329 50.3196 221.529 51.9841C212.358 54.6148 158.766 40.3638 112.499 22.9976C107.825 21.2419 102.989 19.5689 101.749 19.281C100.512 18.9931 99.5004 18.3233 99.5004 17.7932C99.5004 15.8665 83.586 19.8453 80.8785 22.4504C79.7129 23.5734 75.663 26.7171 71.8783 29.4362C68.0963 32.1581 62.7497 36.0116 59.9995 38.001C57.2492 39.9905 53.6496 42.1823 51.9995 42.872C43.9511 46.2381 29.3135 58.0208 13.2509 74.0645L0.5 86.7963V136.398V186H570.5H1140.5V136.204V86.4087L1134.89 84.5019C1128.6 82.3614 1127.5 81.0332 1124.94 72.494C1123.96 69.1935 1122.55 65.6051 1121.83 64.5192C1121.1 63.4361 1120.5 61.3298 1120.5 59.842C1120.5 58.3542 1119.83 56.4589 1119 55.6352C1118.18 54.8086 1117.5 52.7793 1117.5 51.1233C1117.5 49.4645 1117.05 47.8313 1116.5 47.4922C1115.95 47.153 1115.5 44.4539 1115.5 41.4982C1115.5 29.8894 1110.51 26.4806 1108.53 36.7412C1106.48 47.4295 1102.15 52.4372 1097.97 48.9686C1096.96 48.1278 1096.16 48.333 1094.69 49.8065C1093.5 50.9894 1092.24 51.4454 1091.46 50.9665C1089.21 49.5785 1086 51.9812 1083.64 56.8037C1082.38 59.3832 1080.39 63.4589 1079.22 65.8616C1076.67 71.0974 1070.9 75.2844 1066.87 74.8169C1064.01 74.4863 1063.73 73.9619 1062.03 65.7419C1061.01 60.8054 1057.37 62.0652 1054.24 68.4411C1051.86 73.2921 1051.16 73.959 1047.79 74.5348C1045.7 74.891 1042.78 76.0397 1041.29 77.0857C1038.22 79.249 1033.5 79.6366 1033.5 77.727C1033.5 77.0287 1032.41 74.8597 1031.09 72.9073C1029.76 70.9549 1028.18 67.5262 1027.58 65.2916C1025.4 57.2056 1023.36 57.4878 1016.77 66.7709C1015.25 68.9142 1011.12 74.1158 1007.61 78.3312L1001.21 85.9954L801.071 85.0007C799.381 84.4563 794.191 82.8573 789.534 81.4493C784.877 80.0413 779.701 78.0462 778.034 77.0144C776.364 75.9827 771.85 74.2526 767.999 73.1695C764.149 72.0836 759.754 70.7098 758.229 70.1141C756.708 69.5156 752.509 68.3442 748.901 67.5062C745.293 66.6711 740.465 64.8926 738.171 63.5587C734.227 61.2671 709.172 52.5114 697.718 49.4246C694.814 48.6408 690.539 47.0048 688.219 45.7878C685.899 44.5707 682.146 42.8806 679.88 42.0341C674.69 40.0902 665.499 31.8703 665.499 29.1712C665.499 28.0624 664.938 26.968 664.251 26.7371C662.455 26.1328 659.5 27.0506 659.5 28.2135C659.5 28.7579 658.195 27.8031 656.599 26.0958C655.003 24.3885 652.979 22.9891 652.098 22.9891C651.221 22.9891 650.5 22.3136 650.5 21.4899C650.5 20.6662 650.049 19.9907 649.499 19.9907C646.959 19.4921 647.5 12.3525 647.5 10.6877C647.5 9.0228 649.31 7.82465 651.5 7.4071C656 6.54925 656.5 4.5498 652 3.98972C647.5 3.42964 647 3.98972 647 2.48766C647 0.439794 643.5 0.569489 643.5 2.48767ZM192.5 49C182.5 46.5 153.932 38.4154 138 33C130.026 30.2866 119.001 26.5122 113.5 24.5C112.979 24.3096 112.363 24.0794 111.692 23.8291C108.603 22.6753 104.366 21.0928 103 21C101.724 20.9133 103.511 22.4328 104.251 23.0625C104.362 23.1567 104.449 23.2309 104.499 23.277C107.525 25.287 134.549 33.704 164.432 43.0115L166 43.5C204 54.1985 206.235 54.7851 208.478 54.1985C213.546 53.3336 211.05 52.8324 203.442 51.3049C200.508 50.7158 196.814 49.9741 192.5 49ZM180.267 61.3954C195.648 58.4426 202.5 57 203.5 55C197.753 52.9884 204 55 173.5 46.5C138 36 132.471 33.6976 119.5 30C114.151 28.0761 106.644 25.899 106 25.5C105.356 25.101 108.125 28.4444 109.25 30.5905C110.376 32.7339 112.268 36.9664 113.454 39.9905C114.637 43.0174 115.999 46.392 116.475 47.4922C116.954 48.5923 117.626 50.7784 117.968 52.3489C118.607 55.2789 126.102 55.6608 128.949 52.9104C130.374 51.5337 137.246 51.8644 144 53.6372C147.301 54.5008 153.633 55.5525 158.074 55.9715C166.584 56.7752 168.921 57.5875 171.779 60.7484C173.421 62.564 173.965 62.6039 180.267 61.3954ZM455.5 72.5C457.563 72.7166 474.5 76.0454 473.5 70C475.563 69.7834 462.123 68.5 457.999 68.5C447.753 68.5 439.5 72.5 455.5 72.5ZM466.501 78.6248C466.501 77.7013 465.004 76.6724 462.75 76.0454C452.353 73.1581 429.499 76.299 429.499 80.6171C429.499 82.1619 434.509 82.5409 436.051 81.1102C437.419 79.839 447.371 79.1093 447.753 80.2551C448.149 81.4465 459.917 81.3638 462.274 80.1525C463.223 79.6623 464.563 79.4656 465.25 79.7136C465.936 79.9587 466.501 79.4685 466.501 78.6248ZM490.857 80.865C502.73 80.7482 503.323 80.6598 497.001 79.9729C479.403 78.0605 476.564 77.9978 477.154 79.5369C477.61 80.7197 480.181 80.9705 490.857 80.865Z" fill="#152E41"/>
<path fill-rule="evenodd" clip-rule="evenodd" d="M896.68 18.3566C896.514 18.665 896.568 18.8004 897.032 19.2315C897.335 19.512 897.582 19.8435 897.582 19.9683C897.582 20.093 897.71 20.3357 897.867 20.5078C898.128 20.7951 898.118 20.8654 897.743 21.3697L897.335 21.9188L897.749 22.4759C898.113 22.9657 898.14 23.1116 897.971 23.6808C897.866 24.0371 897.733 24.5494 897.677 24.8194C897.607 25.1557 897.463 25.3103 897.219 25.3103C896.789 25.3103 896.761 25.539 897.152 25.8616C897.537 26.1794 897.397 27.4438 896.907 28.0625C895.927 29.3006 893.001 31.6977 892.678 31.527C892.169 31.2585 892.116 30.8609 892.529 30.4229C892.923 30.0068 892.783 29.5943 892.248 29.5943C892.091 29.5943 892.015 29.3312 892.015 28.791C892.015 28.2046 891.944 27.9878 891.752 27.9878C891.425 27.9878 891.117 28.5355 891.117 29.1154C891.117 29.4026 890.994 29.5847 890.758 29.646C890.56 29.6973 890.399 29.8272 890.399 29.9345C890.399 30.0419 890.56 30.2904 890.758 30.4868C891.214 30.9406 891.21 30.9877 890.668 31.4112C890.31 31.6912 890.219 31.9221 890.219 32.5524V33.3427H889.501C888.609 33.3427 888.609 33.4478 889.5 34.7243L890.218 35.7525L890.219 44.7221L890.219 53.6917H889.501C888.633 53.6917 888.619 53.7747 889.356 54.5313C889.803 54.9889 889.883 55.1681 889.716 55.3343C889.384 55.6641 889.461 56.4566 889.86 56.8154C890.327 57.2355 890.431 65.6511 889.969 65.6511C889.667 65.6511 889.501 65.2664 889.501 64.5656C889.501 64.2791 889.42 64.0446 889.321 64.0446C889.222 64.0446 889.141 64.2508 889.141 64.5027C889.141 64.7548 888.939 65.2243 888.692 65.546C888.325 66.0244 888.244 66.3325 888.244 67.2355C888.244 68.7389 887.863 68.8058 886.089 67.6148C885.604 67.2895 884.979 66.8952 882.801 65.5411C882.03 65.0616 880.918 64.3659 880.331 63.9951L879.264 63.3206V62.344C879.264 61.3776 879.259 61.3671 878.726 61.3671H878.187V59.8499V58.3326H878.815C879.255 58.3326 879.444 58.2519 879.444 58.0649C879.444 57.8779 879.255 57.7971 878.815 57.7971C878.217 57.7971 878.187 57.7675 878.187 57.1724C878.187 56.736 878.106 56.5476 877.918 56.5476C877.739 56.5476 877.648 56.7248 877.648 57.0718C877.648 57.5325 877.578 57.6028 877.066 57.6519C876.186 57.7364 876.14 58.3326 877.014 58.3326H877.663L877.611 59.8052C877.559 61.2645 877.554 61.2783 877.065 61.3343C876.595 61.3881 876.571 61.437 876.571 62.344C876.571 63.2599 875.417 64.5801 874.617 64.5801C874.53 64.5801 874.35 64.7115 874.216 64.8722C873.969 65.168 872.963 65.876 872.094 66.3651C871.833 66.5124 871.177 66.9613 870.638 67.3627C868.576 68.8962 868.31 68.8674 868.31 67.1123C868.31 66.123 868.242 65.824 867.96 65.5705C867.768 65.3976 867.586 64.9697 867.556 64.6196C867.486 63.7985 867.053 63.6144 867.053 64.4056C867.053 64.7523 866.877 65.1821 866.604 65.5052C866.213 65.9666 866.155 66.2076 866.155 67.3604C866.155 68.4194 866.101 68.6856 865.886 68.6856C865.578 68.6856 865.535 68.8906 865.789 69.1432C866.17 69.5216 866.087 70.546 865.661 70.7341C865.108 70.9782 865.074 72.1739 865.616 72.3448C866.179 72.5222 866.179 81.5375 865.616 81.5375C865.281 81.5375 865.257 81.6564 865.257 83.3225V85.1075H864.629C864.078 85.1075 864 85.1628 864 85.5537V86H900.455H936.91V85.5537C936.91 85.1439 936.844 85.1075 936.102 85.1075H935.294V83.4222C935.294 82.4914 935.214 81.6877 935.114 81.6268C935.002 81.5578 934.935 79.8088 934.935 76.9708V72.4251L935.384 72.2556C935.631 72.1623 935.833 72.0037 935.833 71.903C935.833 71.8024 935.954 71.7201 936.102 71.7201C936.3 71.7201 936.371 71.5157 936.371 70.9525C936.371 70.5304 936.444 70.1087 936.532 70.0154C936.707 69.8311 935.944 68.5071 935.663 68.5071C935.572 68.5071 935.446 68.6677 935.384 68.8641C935.032 69.9652 934.935 68.7635 934.935 63.3244C934.935 58.1985 934.973 57.3701 935.225 56.9879C935.41 56.7063 935.481 56.3397 935.42 55.968C935.336 55.4521 935.419 55.3035 936.162 54.6357L937 53.8838L936.057 53.8771L935.114 53.8702V52.545C935.114 51.8163 935.211 50.804 935.329 50.2957C935.52 49.4755 935.509 49.3526 935.239 49.2022C935.021 49.081 934.935 48.7977 934.935 48.2055C934.935 47.6015 934.829 47.2664 934.544 46.9649L934.154 46.5517L934.544 46.1385C935.053 45.6005 935.037 45.3321 934.486 45.1237C934.149 44.9965 934.037 44.8243 934.037 44.436C934.037 43.7691 933.612 43.3798 933.229 43.6957C933.081 43.818 932.959 44.1404 932.959 44.4124C932.959 44.6875 932.84 44.9526 932.69 45.0097C932.28 45.1661 932.364 45.9345 932.825 46.2449L933.229 46.5169L932.825 46.8982C932.511 47.1945 932.421 47.4785 932.421 48.1707C932.421 50.1612 928.527 49.2274 927.123 46.9004C926.158 45.3015 924.984 43.8742 924.633 43.8742C924.536 43.8742 924.309 43.7408 924.128 43.5777C923.759 43.2463 923.264 42.9505 922.432 42.5649C921.961 42.3465 921.852 42.1744 921.748 41.4832C921.68 41.0312 921.537 40.6612 921.43 40.6612C920.62 40.6612 920.515 38.924 921.287 38.2789C921.969 37.7079 921.969 37.263 921.285 36.8764C920.99 36.7092 920.748 36.4482 920.748 36.2962C920.748 36.1209 920.584 36.0202 920.299 36.0202C920.032 36.0202 919.85 36.1224 919.85 36.2721C919.85 36.4107 919.607 36.7269 919.311 36.9745C919.015 37.2224 918.772 37.5158 918.772 37.6267C918.772 37.7376 919.015 38.031 919.311 38.2789C919.965 38.826 920.038 39.7194 919.489 40.4847C919.291 40.7616 919.079 41.2342 919.019 41.5347C918.958 41.8353 918.818 42.1548 918.706 42.2447C918.316 42.5587 917.143 43.1602 916.921 43.1602C916.66 43.1602 914.843 44.9891 914.413 45.6842C913.29 47.4975 911.487 48.8628 910.133 48.9251L909.344 48.9614L909.29 47.9259C909.254 47.2248 909.152 46.8585 908.976 46.7913C908.603 46.649 908.655 46.2395 909.075 46.0162C909.285 45.9044 909.434 45.6425 909.434 45.3852C909.434 45.0641 909.337 44.9452 909.075 44.9452C908.787 44.9452 908.716 44.8263 908.716 44.3423C908.716 43.5422 908.243 43.12 907.888 43.6027C907.751 43.7896 907.638 44.1681 907.638 44.4438C907.638 44.8263 907.553 44.9452 907.279 44.9452C906.795 44.9452 906.709 35.703 907.189 35.3062C907.338 35.184 907.459 35.005 907.459 34.9086C907.459 34.812 907.661 34.4943 907.908 34.2027C908.519 33.4806 908.476 33.3427 907.638 33.3427H906.92L906.919 32.4949C906.918 31.7405 906.859 31.6135 906.38 31.3429C905.755 30.9895 905.695 30.7451 906.202 30.6135C906.444 30.5504 906.561 30.3701 906.561 30.0572C906.561 29.7132 906.469 29.5943 906.202 29.5943C905.903 29.5943 905.843 29.4753 905.843 28.8908C905.843 28.5039 905.758 28.1355 905.655 28.0721C905.332 27.8735 904.945 28.3637 904.945 28.9722C904.945 29.3265 904.839 29.5965 904.675 29.6587C904.319 29.7946 904.335 30.1126 904.719 30.5343C905.018 30.8629 905.01 30.8953 904.539 31.2983C904.268 31.5299 904.047 31.8512 904.047 32.0123C904.047 32.1959 903.804 32.0163 903.397 31.5323C903.04 31.107 902.215 30.3377 901.565 29.8227C899.969 28.5587 899.079 26.6408 899.81 26.0383C900.206 25.711 900.168 25.3103 899.74 25.3103C899.504 25.3103 899.344 25.1492 899.264 24.8312C899.197 24.568 899.034 24.1462 898.902 23.8941C898.556 23.2357 898.6 22.9287 899.108 22.4543C899.672 21.9279 899.673 21.6515 899.114 21.1365L898.671 20.7282L899.249 20.199C899.567 19.908 900.049 19.5599 900.32 19.4254C901.112 19.0338 900.574 18.5684 899.617 18.8172C899.409 18.8712 899.184 18.8281 899.118 18.7214C899.051 18.6146 898.728 18.5273 898.398 18.5273C898.032 18.5273 897.76 18.4236 897.696 18.2596C897.546 17.8707 896.909 17.9316 896.68 18.3566ZM897.991 44.0973C897.938 44.5146 897.825 44.9323 897.739 45.0255C897.163 45.648 897.5 46 898.65 46C900 46 900.019 45.4807 899.6 45C899.567 44.9626 899.35 44.5 899.35 44.0973L899.207 43.3387H900.194H900.455V45.4807V47.6227H898.569H896.684V45.4807V43.3387H897.385H898.086L897.991 44.0973ZM900.216 62.1811C900.38 62.4044 900.455 63.1106 900.455 64.4357V66.3651H898.839H897.223V64.4145C897.223 62.4997 897.232 62.4569 897.716 62.0764C898.334 61.5922 899.829 61.6549 900.216 62.1811ZM914.961 62.0019C915.334 62.2616 915.36 62.414 915.36 64.3224V66.3651H913.654H911.948V64.3224C911.948 61.9274 912.082 61.7241 913.654 61.7241C914.185 61.7241 914.728 61.8395 914.961 62.0019ZM922.473 62.0967C922.66 62.2514 922.723 62.8152 922.723 64.3342V66.3651H921.017H919.311V64.4293C919.311 62.4232 919.4 62.1666 920.209 61.8406C920.608 61.6799 922.184 61.8584 922.473 62.0967ZM929.862 62.2014C930.008 62.4009 930.086 63.174 930.086 64.4357V66.3651H928.38H926.674V64.5067V62.6483L927.251 62.1659C927.923 61.6034 929.437 61.6239 929.862 62.2014ZM922.226 74.8353C923.455 75.3458 923.494 75.527 923.411 80.3967C923.37 82.7834 923.282 84.7907 923.215 84.8572C923.148 84.9236 922.157 85.0082 921.014 85.045L918.935 85.112L918.989 80.3646L919.042 75.6171L919.628 75.0966C920.301 74.4993 921.199 74.4089 922.226 74.8353ZM878.696 76.1335L879.175 76.4884L879.223 80.7981L879.271 85.1075H877.562H875.852V80.8365V76.5654L876.421 76.1234C877.099 75.5955 877.976 75.5993 878.696 76.1335Z" fill="#152E41"/>
</g>
<defs>
<clipPath id="clip0">
<rect width="1140" height="185" fill="white"/>
</clipPath>
</defs>
</svg>
