<svg width="964" height="189" viewBox="0 0 964 189" fill="none" xmlns="http://www.w3.org/2000/svg">
<path d="M9.24531 106.11C11.3078 106.11 12.9885 105.869 14.2926 105.386C15.5974 104.908 16.5584 104.188 17.1718 103.232C17.7849 102.271 18.0896 101.077 18.0844 99.6471C18.0797 98.7201 17.9494 97.9326 17.6885 97.2899C17.4322 96.643 17.0557 96.1066 16.5729 95.6815C16.0896 95.2566 15.5052 94.9091 14.8292 94.6337C14.1526 94.3627 13.3942 94.1362 12.5589 93.9523C11.7182 93.7737 10.8198 93.5998 9.85365 93.4451C8.92605 93.2903 8.10053 93.1315 7.38073 92.967C6.65625 92.8023 6.04739 92.5951 5.55 92.3487C5.0526 92.107 4.67604 91.7889 4.4151 91.3971C4.15886 91.0107 4.02865 90.5133 4.02865 89.9091C4.02343 89.1555 4.19271 88.5471 4.54062 88.069C4.88802 87.5957 5.44375 87.2477 6.20208 87.0258C6.96042 86.7987 7.95521 86.6925 9.18698 86.6925C9.99427 86.6971 10.7812 86.7649 11.5443 86.9102C12.3073 87.0498 13.0177 87.2477 13.6797 87.4993C14.3412 87.7503 14.9208 88.0399 15.4182 88.3733L17.012 85.9679C16.4422 85.5862 15.7854 85.2482 15.027 84.9534C14.2734 84.6586 13.4136 84.4274 12.448 84.2581C11.4766 84.0889 10.3948 84.0018 9.18698 83.9971C7.40001 83.9919 5.90782 84.1857 4.71458 84.5862C3.52135 84.9826 2.62761 85.6201 2.02865 86.4993C1.42969 87.3785 1.13021 88.5331 1.13021 89.967C1.13021 90.8561 1.25105 91.6149 1.48802 92.2378C1.72917 92.8659 2.07187 93.3925 2.52657 93.8123C2.98021 94.2373 3.53594 94.5899 4.18282 94.8654C4.8349 95.1403 5.57448 95.3727 6.4052 95.5659C7.23594 95.7539 8.14375 95.9233 9.12916 96.0826C10.0615 96.2274 10.8974 96.3821 11.6412 96.5461C12.3849 96.7055 13.0224 96.9133 13.5489 97.1643C14.0756 97.4206 14.4813 97.7539 14.7614 98.1742C15.0417 98.5946 15.1817 99.1305 15.1865 99.7919C15.1912 100.662 14.998 101.367 14.5969 101.922C14.1964 102.473 13.5541 102.879 12.665 103.14C11.7807 103.406 10.6125 103.531 9.15834 103.531C8.28854 103.536 7.42448 103.458 6.55938 103.313C5.69948 103.164 4.84479 102.927 3.99949 102.599C3.14949 102.271 2.30886 101.835 1.47813 101.299L0 103.56C1.33334 104.453 2.76771 105.101 4.30834 105.507C5.84479 105.917 7.49219 106.115 9.24531 106.11ZM28.4026 106.139C29.412 106.139 30.3104 106.057 31.098 105.902C31.8849 105.744 32.5953 105.511 33.2328 105.207C33.875 104.903 34.474 104.526 35.0396 104.082L33.5322 102.111C33.1265 102.425 32.6917 102.695 32.2276 102.937C31.7646 103.173 31.2281 103.362 30.6146 103.497C30.0016 103.633 29.262 103.7 28.4026 103.704C27.4073 103.7 26.5813 103.584 25.9292 103.357C25.2724 103.125 24.7557 102.797 24.374 102.367C23.9922 101.942 23.712 101.43 23.5385 100.83C23.3593 100.237 23.2532 99.5701 23.2146 98.8357H35.1265C35.1458 98.0143 35.1406 97.2127 35.1166 96.4299C35.0874 95.6477 35.0104 94.9039 34.8797 94.1941C34.7541 93.4889 34.5464 92.8367 34.2568 92.2471C33.9666 91.6534 33.5756 91.1409 33.0734 90.7066C32.5708 90.2717 31.9333 89.9337 31.1557 89.6919C30.3828 89.4555 29.4458 89.3346 28.3442 89.3299C27.0641 89.3346 25.9677 89.4747 25.0552 89.7597C24.1469 90.0399 23.3937 90.4409 22.7994 90.9529C22.2052 91.4649 21.7417 92.0737 21.4032 92.7737C21.065 93.4742 20.8286 94.2425 20.6885 95.0779C20.5532 95.9185 20.4854 96.8023 20.4906 97.7346C20.4854 98.6717 20.5484 99.5602 20.6786 100.401C20.8093 101.241 21.0412 102.009 21.374 102.71C21.7026 103.406 22.1661 104.014 22.7604 104.526C23.3593 105.038 24.1182 105.434 25.0406 105.714C25.9677 105.995 27.0885 106.135 28.4026 106.139V106.139ZM28.2573 91.8222C29.0161 91.8222 29.6489 91.8998 30.151 92.0493C30.6484 92.1941 31.0494 92.4066 31.3489 92.6774C31.6437 92.9529 31.8708 93.2763 32.0204 93.6482C32.1698 94.0247 32.276 94.4403 32.3344 94.8941C32.3922 95.3487 32.436 95.8315 32.4598 96.3435H23.2437C23.2969 95.6623 23.4172 95.0394 23.6062 94.4889C23.7942 93.9331 24.0792 93.4597 24.4562 93.0591C24.8328 92.6627 25.3349 92.3586 25.9537 92.1457C26.5718 91.9331 27.3396 91.8222 28.2573 91.8222V91.8222ZM45.589 106.11C46.526 106.11 47.3521 106.018 48.062 105.835C48.7718 105.651 49.4146 105.386 49.9942 105.033C50.5734 104.68 51.1344 104.246 51.675 103.734L49.7912 101.937C49.3901 102.304 48.9849 102.608 48.5786 102.854C48.1682 103.101 47.7338 103.284 47.265 103.406C46.8016 103.526 46.2797 103.589 45.7046 103.589C44.7005 103.589 43.8693 103.454 43.2026 103.188C42.5412 102.922 42.0146 102.54 41.6281 102.038C41.2464 101.536 40.9708 100.927 40.812 100.212C40.6474 99.5023 40.5704 98.6909 40.575 97.7925C40.5704 96.8941 40.6526 96.0873 40.8166 95.3774C40.986 94.6722 41.2609 94.0685 41.6521 93.5753C42.0385 93.0831 42.565 92.7061 43.227 92.4457C43.889 92.1846 44.7146 92.0545 45.7046 92.0545C46.386 92.0586 46.975 92.1414 47.4724 92.3003C47.9704 92.4597 48.3953 92.6627 48.748 92.9091C49.1005 93.1555 49.4 93.4118 49.6464 93.6774L51.7041 91.7351C51.2885 91.2665 50.801 90.8513 50.2308 90.4941C49.6656 90.1315 49.0089 89.8513 48.2604 89.6435C47.5114 89.4409 46.6609 89.3346 45.7046 89.3299C44.1349 89.3346 42.8308 89.5373 41.7922 89.9435C40.7589 90.3441 39.9422 90.919 39.3532 91.6627C38.7589 92.4066 38.3385 93.2903 38.0922 94.3195C37.8464 95.3435 37.725 96.4837 37.7349 97.7346C37.725 98.9857 37.8464 100.121 38.0922 101.145C38.3385 102.168 38.7589 103.053 39.348 103.791C39.9374 104.531 40.7396 105.101 41.7589 105.502C42.7776 105.902 44.0532 106.106 45.589 106.11V106.11ZM55.0078 105.821H57.848V97.3285C57.8432 96.5846 57.9302 95.9133 58.1041 95.305C58.2781 94.7013 58.563 94.1794 58.9589 93.7399C59.35 93.3003 59.8765 92.957 60.5385 92.7206C61.1953 92.479 62.0114 92.3534 62.9776 92.3441V89.5039C62.0265 89.5279 61.186 89.6389 60.4464 89.8367C59.7078 90.0346 59.0896 90.2909 58.5922 90.6097C58.0989 90.9337 57.7464 91.2857 57.5292 91.6774L57.239 89.7066L55.0078 89.8513V105.821ZM72.4552 106.139C73.4646 106.139 74.363 106.057 75.1505 105.902C75.9374 105.744 76.648 105.511 77.2854 105.207C77.9276 104.903 78.5265 104.526 79.0922 104.082L77.5849 102.111C77.1792 102.425 76.7442 102.695 76.2808 102.937C75.8172 103.173 75.2808 103.362 74.6672 103.497C74.0541 103.633 73.3146 103.7 72.4552 103.704C71.4598 103.7 70.6338 103.584 69.9817 103.357C69.325 103.125 68.8084 102.797 68.4265 102.367C68.0448 101.942 67.765 101.43 67.5912 100.83C67.4125 100.237 67.3062 99.5701 67.2677 98.8357H79.1792C79.1984 98.0143 79.1932 97.2127 79.1693 96.4299C79.1401 95.6477 79.063 94.9039 78.9328 94.1941C78.8068 93.4889 78.5994 92.8367 78.3093 92.2471C78.0193 91.6534 77.6281 91.1409 77.126 90.7066C76.6234 90.2717 75.986 89.9337 75.2084 89.6919C74.4354 89.4555 73.4984 89.3346 72.3969 89.3299C71.1166 89.3346 70.0204 89.4747 69.1078 89.7597C68.1994 90.0399 67.4464 90.4409 66.8521 90.9529C66.2578 91.4649 65.7942 92.0737 65.4557 92.7737C65.1177 93.4742 64.8813 94.2425 64.7412 95.0779C64.6057 95.9185 64.5385 96.8023 64.5432 97.7346C64.5385 98.6717 64.601 99.5602 64.7313 100.401C64.862 101.241 65.0937 102.009 65.427 102.71C65.7552 103.406 66.2193 104.014 66.813 104.526C67.4125 105.038 68.1708 105.434 69.0932 105.714C70.0204 105.995 71.1412 106.135 72.4552 106.139V106.139ZM72.3098 91.8222C73.0688 91.8222 73.7016 91.8998 74.2037 92.0493C74.701 92.1941 75.1021 92.4066 75.4016 92.6774C75.6964 92.9529 75.9234 93.2763 76.0729 93.6482C76.2229 94.0247 76.3286 94.4403 76.387 94.8941C76.4448 95.3487 76.4885 95.8315 76.5125 96.3435H67.2964C67.3494 95.6623 67.4704 95.0394 67.6589 94.4889C67.8469 93.9331 68.1317 93.4597 68.5089 93.0591C68.8854 92.6627 69.388 92.3586 70.0062 92.1457C70.6245 91.9331 71.3926 91.8222 72.3098 91.8222V91.8222ZM81.1786 92.257H84.0188V101.415C84.0141 102.159 84.077 102.811 84.2073 103.367C84.3374 103.922 84.5693 104.386 84.9026 104.753C85.236 105.12 85.7098 105.395 86.3182 105.574C86.9265 105.758 87.7046 105.85 88.6557 105.85C88.7718 105.85 88.9406 105.85 89.1729 105.85C89.4 105.85 89.6458 105.85 89.9073 105.845C90.1682 105.845 90.4093 105.84 90.627 105.835C90.839 105.835 90.9989 105.825 91.0906 105.821V103.328H89.1484C88.6172 103.328 88.1969 103.275 87.8833 103.168C87.5693 103.067 87.337 102.912 87.1874 102.714C87.0328 102.516 86.9365 102.275 86.8932 101.995C86.8448 101.715 86.8256 101.396 86.8302 101.039V92.257H91.0906V89.7066H86.8302V84.693L84.5984 85.1274L84.1062 89.7066H81.1786V92.257ZM99.0896 106.11C100.234 106.11 101.205 106.028 102.003 105.874C102.799 105.714 103.461 105.477 103.983 105.168C104.505 104.859 104.92 104.477 105.233 104.024C105.365 104.468 105.529 104.821 105.737 105.091C105.939 105.357 106.219 105.55 106.577 105.671C106.934 105.791 107.403 105.85 107.987 105.85C108.277 105.85 108.518 105.85 108.707 105.84C108.9 105.835 109.045 105.821 109.146 105.791V103.328C108.663 103.333 108.306 103.294 108.074 103.212C107.847 103.125 107.702 102.951 107.639 102.69C107.571 102.434 107.543 102.048 107.552 101.531V95.7925C107.557 94.8799 107.509 94.0685 107.408 93.3633C107.301 92.6581 107.118 92.0493 106.852 91.5373C106.587 91.0299 106.209 90.6149 105.727 90.2862C105.239 89.9575 104.616 89.7165 103.852 89.5618C103.089 89.407 102.157 89.3299 101.06 89.3299C100.341 89.3346 99.65 89.393 98.9885 89.5086C98.3265 89.6242 97.7084 89.7742 97.1432 89.9575C96.5729 90.1414 96.0704 90.3346 95.6308 90.5419C95.1964 90.7451 94.839 90.943 94.5688 91.1269L96.0469 93.329C96.3844 93.1118 96.8 92.8993 97.2786 92.6919C97.7614 92.4842 98.2974 92.3149 98.8917 92.1799C99.486 92.0446 100.123 91.9717 100.799 91.967C101.65 91.967 102.335 92.0346 102.862 92.1649C103.389 92.3003 103.794 92.5034 104.075 92.779C104.355 93.0539 104.548 93.4018 104.654 93.8269C104.76 94.2471 104.818 94.7493 104.828 95.329H103.958C101.954 95.3242 100.264 95.4159 98.8964 95.6091C97.5292 95.8023 96.438 96.1211 95.6213 96.5654C94.8 97.0149 94.2109 97.6233 93.8537 98.3862C93.4912 99.1498 93.3125 100.101 93.3224 101.241C93.3177 101.927 93.3994 102.565 93.5734 103.149C93.7422 103.739 94.0422 104.256 94.4666 104.695C94.8922 105.139 95.4813 105.487 96.2302 105.734C96.9838 105.98 97.9354 106.106 99.0896 106.11V106.11ZM99.5532 103.676C98.6453 103.676 97.9302 103.574 97.4136 103.371C96.8969 103.168 96.5344 102.874 96.3218 102.483C96.1141 102.091 96.0078 101.609 96.0177 101.039C96.0125 100.532 96.0802 100.087 96.2204 99.7149C96.3604 99.343 96.6068 99.029 96.9546 98.7733C97.298 98.517 97.776 98.3143 98.389 98.1643C99.0026 98.0097 99.7756 97.8987 100.713 97.831C101.65 97.7679 102.78 97.7346 104.104 97.7346H104.828V98.7201C104.833 99.8649 104.654 100.807 104.292 101.536C103.93 102.271 103.36 102.811 102.582 103.159C101.805 103.507 100.795 103.68 99.5532 103.676V103.676ZM112.45 105.821H115.291V97.3285C115.285 96.5846 115.372 95.9133 115.546 95.305C115.72 94.7013 116.005 94.1794 116.402 93.7399C116.793 93.3003 117.319 92.957 117.981 92.7206C118.637 92.479 119.454 92.3534 120.42 92.3441V89.5039C119.469 89.5279 118.628 89.6389 117.889 89.8367C117.15 90.0346 116.532 90.2909 116.034 90.6097C115.542 90.9337 115.189 91.2857 114.971 91.6774L114.682 89.7066L112.45 89.8513V105.821ZM123.377 105.821H126.158V89.7066H123.377V105.821ZM123.347 87.7649H126.187V84.3446H123.347V87.7649ZM135.317 106.11C136.462 106.11 137.433 106.028 138.23 105.874C139.026 105.714 139.689 105.477 140.21 105.168C140.733 104.859 141.147 104.477 141.461 104.024C141.591 104.468 141.755 104.821 141.963 105.091C142.166 105.357 142.447 105.55 142.805 105.671C143.162 105.791 143.63 105.85 144.214 105.85C144.505 105.85 144.746 105.85 144.934 105.84C145.127 105.835 145.273 105.821 145.374 105.791V103.328C144.89 103.333 144.534 103.294 144.302 103.212C144.074 103.125 143.93 102.951 143.867 102.69C143.799 102.434 143.77 102.048 143.779 101.531V95.7925C143.785 94.8799 143.737 94.0685 143.635 93.3633C143.529 92.6581 143.346 92.0493 143.079 91.5373C142.814 91.0299 142.437 90.6149 141.954 90.2862C141.466 89.9575 140.843 89.7165 140.079 89.5618C139.317 89.407 138.385 89.3299 137.289 89.3299C136.569 89.3346 135.878 89.393 135.215 89.5086C134.554 89.6242 133.935 89.7742 133.371 89.9575C132.801 90.1414 132.298 90.3346 131.858 90.5419C131.424 90.7451 131.067 90.943 130.796 91.1269L132.274 93.329C132.613 93.1118 133.027 92.8993 133.506 92.6919C133.989 92.4842 134.525 92.3149 135.119 92.1799C135.713 92.0446 136.351 91.9717 137.027 91.967C137.878 91.967 138.563 92.0346 139.09 92.1649C139.617 92.3003 140.022 92.5034 140.302 92.779C140.582 93.0539 140.775 93.4018 140.882 93.8269C140.989 94.2471 141.046 94.7493 141.055 95.329H140.186C138.182 95.3242 136.491 95.4159 135.123 95.6091C133.757 95.8023 132.666 96.1211 131.849 96.5654C131.028 97.0149 130.439 97.6233 130.081 98.3862C129.719 99.1498 129.54 100.101 129.55 101.241C129.545 101.927 129.627 102.565 129.801 103.149C129.97 103.739 130.27 104.256 130.694 104.695C131.12 105.139 131.709 105.487 132.457 105.734C133.211 105.98 134.163 106.106 135.317 106.11V106.11ZM135.781 103.676C134.873 103.676 134.158 103.574 133.641 103.371C133.125 103.168 132.762 102.874 132.55 102.483C132.342 102.091 132.235 101.609 132.246 101.039C132.241 100.532 132.307 100.087 132.447 99.7149C132.589 99.343 132.834 99.029 133.182 98.7733C133.525 98.517 134.003 98.3143 134.617 98.1643C135.23 98.0097 136.003 97.8987 136.941 97.831C137.878 97.7679 139.007 97.7346 140.331 97.7346H141.055V98.7201C141.061 99.8649 140.882 100.807 140.519 101.536C140.157 102.271 139.587 102.811 138.81 103.159C138.031 103.507 137.022 103.68 135.781 103.676V103.676ZM161.487 106.11C162.633 106.11 163.603 106.038 164.406 105.883C165.202 105.734 165.869 105.507 166.395 105.197C166.927 104.888 167.357 104.497 167.69 104.024L168.009 105.908L170.182 105.704V83.3305H167.342V91.3009C167.086 90.8659 166.723 90.5034 166.246 90.2185C165.773 89.929 165.154 89.7165 164.39 89.5717C163.627 89.4315 162.69 89.3586 161.574 89.3586C160.217 89.3638 159.087 89.5665 158.179 89.967C157.277 90.3733 156.557 90.943 156.025 91.6821C155.493 92.4211 155.117 93.2957 154.89 94.3097C154.667 95.3242 154.557 96.4451 154.562 97.6769C154.557 98.9227 154.662 100.058 154.885 101.087C155.107 102.116 155.479 103.004 156.006 103.753C156.527 104.502 157.238 105.082 158.131 105.487C159.029 105.898 160.146 106.106 161.487 106.11V106.11ZM162.097 103.531C161.174 103.526 160.41 103.391 159.802 103.115C159.194 102.845 158.719 102.453 158.373 101.942C158.025 101.43 157.783 100.811 157.638 100.097C157.493 99.3769 157.426 98.5701 157.43 97.6769C157.426 96.7977 157.493 96.0102 157.638 95.3097C157.783 94.6091 158.025 94.0149 158.373 93.5227C158.719 93.0299 159.194 92.6529 159.802 92.3919C160.41 92.1315 161.174 91.9961 162.097 91.9961C163.062 91.9914 163.883 92.0878 164.555 92.2909C165.226 92.4889 165.767 92.8075 166.178 93.2471C166.583 93.6914 166.883 94.2758 167.067 95.0055C167.255 95.7299 167.347 96.6237 167.342 97.6769C167.347 99.0919 167.178 100.227 166.825 101.087C166.478 101.947 165.917 102.575 165.145 102.961C164.371 103.348 163.357 103.536 162.097 103.531V103.531ZM181.486 106.139C182.495 106.139 183.393 106.057 184.181 105.902C184.969 105.744 185.678 105.511 186.315 105.207C186.958 104.903 187.557 104.526 188.122 104.082L186.615 102.111C186.21 102.425 185.774 102.695 185.311 102.937C184.847 103.173 184.311 103.362 183.698 103.497C183.085 103.633 182.345 103.7 181.486 103.704C180.49 103.7 179.665 103.584 179.013 103.357C178.355 103.125 177.838 102.797 177.457 102.367C177.075 101.942 176.795 101.43 176.622 100.83C176.443 100.237 176.337 99.5701 176.298 98.8357H188.21C188.229 98.0143 188.223 97.2127 188.199 96.4299C188.17 95.6477 188.093 94.9039 187.963 94.1941C187.837 93.4889 187.63 92.8367 187.339 92.2471C187.05 91.6534 186.659 91.1409 186.157 90.7066C185.654 90.2717 185.017 89.9337 184.238 89.6919C183.466 89.4555 182.529 89.3346 181.427 89.3299C180.147 89.3346 179.051 89.4747 178.138 89.7597C177.23 90.0399 176.477 90.4409 175.882 90.9529C175.289 91.4649 174.825 92.0737 174.486 92.7737C174.147 93.4742 173.911 94.2425 173.771 95.0779C173.637 95.9185 173.569 96.8023 173.574 97.7346C173.569 98.6717 173.631 99.5602 173.762 100.401C173.893 101.241 174.123 102.009 174.457 102.71C174.786 103.406 175.25 104.014 175.843 104.526C176.443 105.038 177.201 105.434 178.123 105.714C179.051 105.995 180.171 106.135 181.486 106.139V106.139ZM181.341 91.8222C182.099 91.8222 182.731 91.8998 183.234 92.0493C183.731 92.1941 184.133 92.4066 184.431 92.6774C184.726 92.9529 184.954 93.2763 185.103 93.6482C185.253 94.0247 185.359 94.4403 185.417 94.8941C185.475 95.3487 185.519 95.8315 185.543 96.3435H176.326C176.379 95.6623 176.501 95.0394 176.689 94.4889C176.877 93.9331 177.162 93.4597 177.539 93.0591C177.915 92.6627 178.418 92.3586 179.037 92.1457C179.655 91.9331 180.423 91.8222 181.341 91.8222V91.8222ZM1.10105 140.599H5.85416V132.252H16.4328V128.02H5.85416V123.412H16.7224V119.123H1.10105V140.599ZM24.113 140.859C25.6589 140.854 26.9 140.69 27.8469 140.372C28.7885 140.048 29.465 139.603 29.8802 139.034C30.088 139.454 30.3245 139.782 30.5901 140.018C30.8557 140.256 31.1792 140.425 31.5661 140.522C31.9573 140.613 32.4354 140.661 33.0104 140.657C33.5125 140.657 33.9182 140.647 34.2276 140.632C34.537 140.613 34.7682 140.584 34.9229 140.541V136.83C34.4833 136.836 34.165 136.802 33.962 136.729C33.7589 136.657 33.6286 136.512 33.575 136.295C33.5172 136.077 33.498 135.753 33.5032 135.324V130.339C33.5078 129.412 33.45 128.595 33.3292 127.88C33.2084 127.165 32.9958 126.552 32.6964 126.04C32.3969 125.528 31.9765 125.108 31.4354 124.779C30.8994 124.451 30.2136 124.209 29.3874 124.05C28.5568 123.895 27.5521 123.818 26.3734 123.818C25.5089 123.823 24.6874 123.89 23.9098 124.021C23.1322 124.151 22.4172 124.321 21.7604 124.523C21.1084 124.731 20.5338 124.948 20.0458 125.175C19.5532 125.402 19.1614 125.62 18.8672 125.818L21.1276 129.151C21.4609 128.943 21.8666 128.735 22.3546 128.533C22.8374 128.329 23.3786 128.165 23.9776 128.03C24.5765 127.895 25.2093 127.822 25.8808 127.818C26.586 127.818 27.151 127.866 27.5808 127.958C28.0109 128.054 28.3396 128.195 28.5568 128.378C28.7792 128.566 28.9286 128.798 29.0057 129.078C29.0833 129.354 29.1265 129.677 29.1265 130.049H28.4598C26.6437 130.044 25.074 130.127 23.7458 130.296C22.4224 130.464 21.3308 130.759 20.4708 131.179C19.6161 131.6 18.9781 132.184 18.563 132.933C18.1426 133.682 17.9396 134.633 17.9396 135.788C17.9297 136.507 18.0172 137.179 18.1912 137.792C18.365 138.406 18.6786 138.941 19.1229 139.401C19.5724 139.86 20.2005 140.217 21.0068 140.468C21.8182 140.724 22.8521 140.854 24.113 140.859V140.859ZM25.0114 137.208C24.3208 137.208 23.7745 137.145 23.3693 137.014C22.9682 136.884 22.6781 136.681 22.5093 136.415C22.3354 136.15 22.2532 135.816 22.2578 135.411C22.2532 135.058 22.2917 134.754 22.3786 134.498C22.4609 134.247 22.625 134.034 22.8718 133.86C23.1177 133.691 23.4849 133.556 23.963 133.454C24.4412 133.358 25.0693 133.286 25.8469 133.242C26.6297 133.199 27.5958 133.179 28.75 133.179H29.1265V133.788C29.1365 134.981 28.8078 135.855 28.1464 136.401C27.4844 136.947 26.436 137.218 25.0114 137.208V137.208ZM36.4302 140.599H51.0078V136.947H42.4874L50.6896 127.296V124.195H36.8942V128.078H44.574L36.4302 137.556V140.599ZM60.8041 140.917C61.8765 140.917 62.8474 140.845 63.7073 140.695C64.5666 140.541 65.3688 140.299 66.1032 139.971C66.837 139.642 67.5568 139.217 68.2526 138.686L65.963 135.73C65.562 136.029 65.1224 136.295 64.6442 136.522C64.1661 136.744 63.615 136.918 62.9922 137.044C62.3693 137.169 61.6396 137.237 60.8041 137.237C59.838 137.237 59.065 137.111 58.4854 136.865C57.9104 136.618 57.4808 136.261 57.2005 135.792C56.9204 135.329 56.737 134.764 56.6593 134.107H68.0786C68.1073 133.189 68.112 132.3 68.088 131.44C68.0688 130.58 67.987 129.769 67.8516 129.006C67.7161 128.238 67.4937 127.542 67.1849 126.91C66.8802 126.277 66.4505 125.731 65.9093 125.268C65.3636 124.809 64.6734 124.451 63.8328 124.2C62.9922 123.949 61.9729 123.823 60.775 123.818C59.3792 123.823 58.186 123.973 57.1958 124.267C56.2057 124.562 55.389 124.977 54.7469 125.509C54.0994 126.04 53.5974 126.663 53.2349 127.378C52.8677 128.098 52.6166 128.876 52.4666 129.721C52.3218 130.566 52.2494 131.445 52.2546 132.368C52.2494 133.305 52.3172 134.198 52.462 135.049C52.6073 135.899 52.8578 136.681 53.2204 137.391C53.5781 138.106 54.0802 138.724 54.7276 139.251C55.3698 139.777 56.1912 140.188 57.186 140.477C58.186 140.768 59.3885 140.913 60.8041 140.917V140.917ZM60.6302 127.615C61.3256 127.615 61.8906 127.697 62.3161 127.856C62.7412 128.016 63.0698 128.242 63.2917 128.533C63.5188 128.822 63.6729 129.165 63.765 129.557C63.8521 129.953 63.9098 130.387 63.9338 130.861H56.6593C56.727 130.189 56.901 129.614 57.1666 129.132C57.4374 128.648 57.848 128.272 58.4032 128.011C58.9589 127.75 59.7026 127.62 60.6302 127.615V127.615ZM70.9765 140.599H75.527V131.759C75.5218 131.213 75.5656 130.716 75.6573 130.271C75.7489 129.827 75.9281 129.44 76.1838 129.117C76.4401 128.793 76.812 128.547 77.2994 128.373C77.7874 128.199 78.425 128.107 79.2078 128.107C79.889 128.107 80.4344 128.195 80.8354 128.363C81.2365 128.533 81.536 128.774 81.7338 129.083C81.927 129.392 82.0526 129.754 82.115 130.175C82.1734 130.595 82.198 131.054 82.1926 131.557V140.599H86.7141V130.658C86.7188 129.837 86.6704 129.078 86.5786 128.378C86.4822 127.677 86.313 127.045 86.0713 126.484C85.825 125.924 85.4822 125.446 85.0426 125.05C84.6032 124.654 84.0333 124.35 83.3469 124.137C82.6568 123.924 81.8161 123.818 80.8308 123.818C79.676 123.823 78.715 123.905 77.937 124.069C77.1598 124.234 76.5313 124.456 76.0437 124.726C75.5557 124.997 75.1745 125.291 74.889 125.615L74.5125 124.195L70.9765 124.456V140.599ZM96.5677 140.917C97.6161 140.917 98.5193 140.845 99.2724 140.7C100.026 140.56 100.654 140.352 101.166 140.082C101.678 139.807 102.098 139.478 102.422 139.091L102.886 140.744L106.364 140.425V118.109H101.814V125.354C101.587 125.059 101.263 124.799 100.847 124.572C100.427 124.34 99.8813 124.156 99.2046 124.021C98.5338 123.89 97.7032 123.823 96.7125 123.818C95.2828 123.828 94.0994 124.05 93.1578 124.485C92.2109 124.92 91.4672 125.528 90.926 126.301C90.3802 127.078 89.9937 127.977 89.7666 129.001C89.5396 130.025 89.4333 131.126 89.438 132.31C89.4333 133.498 89.5396 134.609 89.7568 135.647C89.9792 136.686 90.351 137.594 90.8822 138.386C91.4136 139.174 92.1432 139.792 93.0708 140.236C93.998 140.68 95.162 140.908 96.5677 140.917V140.917ZM97.6401 137.005C96.8958 137 96.2922 136.879 95.8188 136.642C95.3458 136.406 94.9833 136.073 94.7224 135.647C94.4666 135.223 94.2874 134.725 94.1865 134.155C94.0896 133.59 94.0412 132.972 94.0464 132.31C94.0412 131.653 94.0896 131.059 94.1865 130.523C94.2874 129.982 94.4666 129.518 94.7224 129.126C94.9833 128.74 95.3458 128.436 95.8188 128.228C96.2922 128.016 96.8958 127.91 97.6401 127.904C98.4609 127.904 99.1422 127.987 99.688 128.156C100.229 128.325 100.654 128.59 100.968 128.943C101.277 129.3 101.494 129.754 101.625 130.315C101.755 130.871 101.818 131.537 101.814 132.31C101.818 133.363 101.693 134.237 101.427 134.933C101.161 135.628 100.727 136.145 100.113 136.488C99.4994 136.836 98.6781 137.005 97.6401 137.005V137.005ZM115.058 140.859C116.604 140.854 117.845 140.69 118.792 140.372C119.734 140.048 120.41 139.603 120.826 139.034C121.033 139.454 121.27 139.782 121.535 140.018C121.801 140.256 122.125 140.425 122.511 140.522C122.903 140.613 123.381 140.661 123.956 140.657C124.458 140.657 124.864 140.647 125.173 140.632C125.482 140.613 125.714 140.584 125.868 140.541V136.83C125.429 136.836 125.11 136.802 124.907 136.729C124.704 136.657 124.574 136.512 124.52 136.295C124.463 136.077 124.443 135.753 124.448 135.324V130.339C124.453 129.412 124.395 128.595 124.275 127.88C124.154 127.165 123.941 126.552 123.641 126.04C123.342 125.528 122.922 125.108 122.381 124.779C121.845 124.451 121.159 124.209 120.333 124.05C119.502 123.895 118.497 123.818 117.319 123.818C116.454 123.823 115.633 123.89 114.855 124.021C114.078 124.151 113.363 124.321 112.706 124.523C112.054 124.731 111.479 124.948 110.991 125.175C110.498 125.402 110.107 125.62 109.813 125.818L112.073 129.151C112.406 128.943 112.812 128.735 113.3 128.533C113.783 128.329 114.324 128.165 114.923 128.03C115.522 127.895 116.155 127.822 116.826 127.818C117.531 127.818 118.096 127.866 118.526 127.958C118.956 128.054 119.285 128.195 119.502 128.378C119.725 128.566 119.874 128.798 119.951 129.078C120.029 129.354 120.072 129.677 120.072 130.049H119.405C117.589 130.044 116.019 130.127 114.691 130.296C113.368 130.464 112.276 130.759 111.416 131.179C110.561 131.6 109.923 132.184 109.508 132.933C109.088 133.682 108.885 134.633 108.885 135.788C108.875 136.507 108.963 137.179 109.137 137.792C109.31 138.406 109.624 138.941 110.068 139.401C110.518 139.86 111.145 140.217 111.952 140.468C112.764 140.724 113.797 140.854 115.058 140.859V140.859ZM115.956 137.208C115.266 137.208 114.72 137.145 114.314 137.014C113.913 136.884 113.623 136.681 113.455 136.415C113.281 136.15 113.198 135.816 113.203 135.411C113.198 135.058 113.237 134.754 113.324 134.498C113.406 134.247 113.57 134.034 113.817 133.86C114.063 133.691 114.43 133.556 114.908 133.454C115.387 133.358 116.015 133.286 116.792 133.242C117.575 133.199 118.541 133.179 119.695 133.179H120.072V133.788C120.081 134.981 119.753 135.855 119.092 136.401C118.43 136.947 117.381 137.218 115.956 137.208" fill="#231F20"/>
<path fill-rule="evenodd" clip-rule="evenodd" d="M263.829 94.5342C263.829 56.7394 286.251 26.0936 313.907 26.0936C341.569 26.0936 363.99 56.7394 363.99 94.5342C363.99 132.329 341.569 162.963 313.907 162.963C286.251 162.963 263.829 132.329 263.829 94.5342" fill="#215899"/>
<path fill-rule="evenodd" clip-rule="evenodd" d="M355.811 127.778L272.111 127.769C268.689 119.544 266.494 110.232 265.891 100.31H362.055C361.441 110.248 359.238 119.56 355.811 127.778Z" fill="#3F7643"/>
<path fill-rule="evenodd" clip-rule="evenodd" d="M362.053 100.257L265.891 100.406C265.774 98.5031 265.711 96.5781 265.711 94.6192C265.711 89.074 266.207 83.6901 267.137 78.5358L278.047 82.4943C280.893 82.4943 282.261 78.291 282.261 78.291L292.239 58.9093C297.178 48.2537 300.743 54.8444 300.743 54.8444C300.743 54.8444 302.534 53.1324 304.546 52.1497C307.243 50.4324 309.477 54.2284 309.477 54.2284C309.477 54.2284 310.023 51.6511 314.166 51.1297C315.089 51.0137 317.239 35.6497 317.239 35.6497C317.239 35.6497 317.738 29.9657 319.909 28.5177C320.965 28.6991 322.026 28.9311 323.063 29.2084C324.513 30.7844 324.502 33.5444 324.502 33.5444L326.289 63.488L335.071 63.6489L348.305 47.8697C356.91 59.914 362.223 76.4292 362.223 94.6192C362.223 96.5218 362.167 98.3968 362.053 100.257" fill="#9E9C9D"/>
<path fill-rule="evenodd" clip-rule="evenodd" d="M310.774 99.9612H266.078C266.109 100.503 266.15 101.039 266.198 101.573H304.741L310.774 99.9612ZM323.641 101.573H362.187C362.219 101.039 362.259 100.503 362.294 99.9612H317.63L323.641 101.573Z" fill="white"/>
<path fill-rule="evenodd" clip-rule="evenodd" d="M352.703 157.891C353.366 157.288 354.289 157.188 355.041 157.551C353.495 156.179 352.405 154.2 352.115 151.899C351.786 149.295 352.538 146.834 354.01 145.029C355.867 146.394 357.205 148.555 357.554 151.12C357.73 150.842 357.917 150.574 358.121 150.309C359.421 148.627 361.161 147.513 363.005 147.029C362.615 146.4 362.574 145.582 362.966 144.885C363.314 144.271 363.934 143.908 364.594 143.846C364.49 143.633 364.427 143.392 364.397 143.158C363.802 143.434 363.09 143.427 362.471 143.074C361.461 142.499 361.122 141.222 361.686 140.213C362.265 139.213 363.553 138.859 364.55 139.436C365.169 139.79 365.542 140.393 365.601 141.051C365.807 140.949 366.035 140.892 366.261 140.87C365.994 140.27 366.007 139.575 366.353 138.961C366.774 138.236 367.569 137.837 368.373 137.921C366.569 137.018 365.026 135.452 364.121 133.379C363.077 130.97 363.118 128.39 364.027 126.261C366.189 127.044 368.077 128.741 369.125 131.107C369.217 130.792 369.321 130.485 369.445 130.174C370.258 128.106 371.713 126.508 373.443 125.535C372.775 125.048 372.43 124.169 372.658 123.314C372.845 122.624 373.353 122.107 373.958 121.884C373.813 121.693 373.691 121.487 373.609 121.261C373.101 121.682 372.402 121.87 371.721 121.682C370.597 121.387 369.929 120.243 370.23 119.124C370.525 117.997 371.683 117.327 372.793 117.624C373.483 117.813 373.989 118.305 374.225 118.926C374.401 118.782 374.594 118.657 374.814 118.577C374.401 118.064 374.235 117.388 374.411 116.712C374.65 115.814 375.443 115.204 376.327 115.158C374.289 114.744 372.339 113.576 370.929 111.72C369.339 109.642 368.754 107.125 369.137 104.84C371.413 105.076 373.659 106.285 375.245 108.323C375.255 108.003 375.289 107.678 375.33 107.346C375.614 105.189 376.605 103.318 378.006 101.98C377.323 101.617 376.875 100.899 376.893 100.069C376.902 99.3621 377.277 98.7392 377.826 98.3788C377.629 98.236 377.463 98.0573 377.323 97.8647C376.935 98.3876 376.298 98.7303 375.594 98.7127C374.431 98.6912 373.511 97.7283 373.546 96.5668C373.567 95.4147 374.525 94.4975 375.686 94.5168C376.386 94.5382 377.005 94.896 377.379 95.4403C377.515 95.2579 377.675 95.0955 377.871 94.9611C377.357 94.5663 377.027 93.9521 377.038 93.2469C377.07 92.3444 377.647 91.5917 378.459 91.3111C376.422 91.348 374.307 90.6346 372.543 89.1824C370.525 87.5054 369.403 85.1855 369.249 82.8652C371.526 82.5855 373.989 83.2579 375.989 84.8939C375.925 84.5751 375.89 84.2496 375.853 83.9179C375.657 81.8043 376.171 79.8048 377.183 78.186C376.449 77.9819 375.853 77.3745 375.697 76.5673C375.562 75.8668 375.794 75.1912 376.243 74.7163C376.03 74.6231 375.833 74.4887 375.657 74.3236C375.389 74.9225 374.83 75.3846 374.143 75.5168C373.003 75.736 371.91 74.9917 371.683 73.8611C371.463 72.7152 372.207 71.6152 373.353 71.4007C374.038 71.2611 374.717 71.4866 375.193 71.945C375.289 71.7371 375.418 71.5434 375.573 71.3658C374.989 71.0986 374.533 70.5543 374.401 69.8746C374.255 69.0824 374.559 68.3168 375.143 67.8412C373.207 68.2731 371.053 68.0412 369.077 67.0403C366.725 65.8507 365.107 63.8486 364.449 61.6168C366.613 60.8496 369.159 60.9423 371.478 62.0917C371.338 61.7969 371.219 61.4845 371.115 61.1788C370.413 59.0371 370.525 56.8387 371.269 54.9627C370.401 55.0574 369.546 54.592 369.159 53.768C368.859 53.128 368.91 52.4093 369.238 51.8427C369.002 51.7987 368.774 51.7213 368.57 51.5933C368.446 52.244 368.031 52.832 367.395 53.128C366.343 53.624 365.098 53.168 364.603 52.1187C364.11 51.0787 364.563 49.82 365.61 49.3427C366.25 49.032 366.962 49.0853 367.541 49.4093C367.579 49.1867 367.65 48.9587 367.765 48.764C367.126 48.6374 366.559 48.2253 366.261 47.5867C365.881 46.784 366.066 45.8547 366.653 45.2494C364.902 46.2174 362.746 46.6133 360.545 46.1867C357.969 45.7133 355.857 44.2253 354.595 42.272C356.451 40.932 358.929 40.3147 361.471 40.7787C361.265 40.5294 361.069 40.2627 360.871 39.9934C359.626 38.1507 359.113 36.048 359.286 34.072C358.507 34.3627 357.582 34.152 356.993 33.4893C356.526 32.9693 356.359 32.268 356.517 31.6174C356.278 31.6467 356.042 31.6387 355.805 31.588C355.874 32.2333 355.653 32.9147 355.113 33.392C354.249 34.16 352.927 34.0787 352.158 33.212C351.385 32.3587 351.455 31.0293 352.322 30.256C352.845 29.7853 353.547 29.6267 354.186 29.7747C354.165 29.5467 354.175 29.3187 354.229 29.096C353.581 29.156 352.91 28.92 352.443 28.4C351.986 27.88 351.826 27.196 351.959 26.5627C350.611 27.9707 348.723 28.9747 346.562 29.256C343.955 29.608 341.483 28.8574 339.69 27.3934C341.03 25.5414 343.183 24.1907 345.746 23.828C345.469 23.6534 345.203 23.468 344.935 23.2733C342.853 21.6747 341.635 19.3987 341.389 17.092C343.674 16.7227 346.193 17.3027 348.271 18.8934C348.539 19.0974 348.787 19.316 349.023 19.5427C348.723 16.9907 349.466 14.5707 350.909 12.7934C352.786 14.1534 354.145 16.3414 354.494 18.9347C354.798 21.2134 354.258 23.3747 353.145 25.096C353.961 24.7267 354.947 24.912 355.577 25.6147C356.042 26.1214 356.195 26.8173 356.062 27.452C356.278 27.4373 356.49 27.444 356.711 27.4867C356.65 26.844 356.883 26.1867 357.399 25.7227C358.269 24.9547 359.587 25.0333 360.355 25.9027C361.133 26.7533 361.059 28.088 360.193 28.8573C359.677 29.3187 358.986 29.4747 358.359 29.3413C358.381 29.568 358.37 29.796 358.315 30.012C358.967 29.9374 359.646 30.176 360.119 30.6987C360.759 31.412 360.819 32.44 360.341 33.2053C362.294 33.7507 364.13 34.996 365.405 36.8867C365.601 37.1613 365.779 37.4414 365.934 37.728C366.438 35.2027 367.899 33.1467 369.826 31.9027C371.174 33.7827 371.797 36.2867 371.31 38.8654C370.835 41.352 369.434 43.416 367.569 44.684C368.547 44.404 369.611 44.86 370.065 45.8053C370.354 46.448 370.31 47.1467 369.991 47.7107C370.206 47.752 370.413 47.824 370.597 47.928C370.734 47.2987 371.146 46.7387 371.775 46.448C372.817 45.9494 374.069 46.4 374.559 47.452C375.051 48.5053 374.594 49.7507 373.557 50.2427C372.926 50.5333 372.226 50.4933 371.659 50.1867C371.607 50.412 371.537 50.6173 371.423 50.8093C372.067 50.924 372.658 51.3453 372.958 51.988C373.37 52.8627 373.121 53.868 372.426 54.472C374.181 55.5294 375.614 57.2616 376.337 59.4559C376.446 59.7663 376.534 60.096 376.595 60.4127C377.789 58.1283 379.779 56.5522 381.965 55.9027C382.746 58.0882 382.633 60.6622 381.447 62.9991C380.39 65.1007 378.655 66.6194 376.699 67.3898C377.587 67.4939 378.346 68.1543 378.522 69.0673C378.655 69.7621 378.437 70.4278 377.998 70.9012C378.194 70.9986 378.367 71.1231 378.534 71.2611C378.811 70.6845 379.345 70.246 380.029 70.1089C381.159 69.8829 382.261 70.6319 382.478 71.7673C382.707 72.9021 381.965 74.0048 380.821 74.2297C380.141 74.3579 379.47 74.1475 378.995 73.7073C378.903 73.9131 378.767 74.0933 378.615 74.26C379.223 74.5293 379.687 75.0767 379.821 75.7756C379.985 76.6407 379.594 77.4964 378.881 77.9433C380.219 79.3407 381.126 81.2464 381.323 83.4012C381.353 83.7288 381.362 84.0679 381.362 84.4016C383.038 82.4397 385.326 81.3417 387.598 81.1964C387.867 83.4969 387.187 85.9887 385.519 87.9975C383.941 89.8903 381.799 91.0059 379.625 91.2507C380.562 91.4788 381.265 92.3355 381.243 93.3428C381.222 94.0412 380.87 94.6512 380.337 95.0215C380.507 95.1559 380.651 95.3064 380.777 95.4881C381.171 94.9783 381.799 94.66 382.489 94.6704C383.643 94.7016 384.562 95.6573 384.541 96.8141C384.505 97.9751 383.547 98.8955 382.394 98.8606C381.697 98.8564 381.098 98.5027 380.729 97.9641C380.582 98.1532 380.418 98.3095 380.231 98.4329C380.757 98.8193 381.098 99.4532 381.085 100.163C381.066 101.103 380.438 101.885 379.583 102.129C380.594 103.811 381.066 105.888 380.777 108.062C380.735 108.394 380.674 108.721 380.594 109.039C382.654 107.502 385.127 106.953 387.381 107.325C387.138 109.618 385.921 111.897 383.837 113.488C381.851 114.995 379.481 115.596 377.277 115.328C378.21 115.731 378.739 116.769 378.47 117.793C378.289 118.463 377.799 118.974 377.194 119.214C377.339 119.375 377.441 119.562 377.526 119.773C378.027 119.367 378.709 119.202 379.365 119.375C380.493 119.675 381.159 120.818 380.859 121.941C380.562 123.058 379.417 123.729 378.297 123.423C377.629 123.249 377.118 122.769 376.879 122.173C376.707 122.314 376.513 122.42 376.298 122.503C376.719 123.001 376.902 123.709 376.719 124.385C376.469 125.302 375.657 125.907 374.761 125.938C375.407 127.854 375.389 130.067 374.566 132.185C374.447 132.491 374.297 132.789 374.151 133.091C376.523 132.094 379.061 132.14 381.15 133.036C380.357 135.219 378.635 137.129 376.233 138.166C373.999 139.147 371.619 139.176 369.579 138.459C370.299 139.093 370.494 140.178 369.991 141.044C369.65 141.656 369.041 142.021 368.407 142.094C368.485 142.29 368.547 142.499 368.57 142.713C369.159 142.453 369.855 142.466 370.455 142.813C371.463 143.381 371.814 144.67 371.239 145.669C370.659 146.68 369.386 147.029 368.373 146.457C367.775 146.116 367.405 145.517 367.33 144.877C367.126 144.963 366.911 145.017 366.682 145.042C366.962 145.634 366.962 146.359 366.602 146.969C366.147 147.761 365.258 148.145 364.407 148.002C364.438 149.933 363.802 151.941 362.471 153.661C362.265 153.933 362.049 154.182 361.823 154.416C364.374 154.126 366.797 154.88 368.558 156.331C367.189 158.199 364.995 159.558 362.394 159.888C359.934 160.198 357.582 159.539 355.822 158.208C356.438 159.063 356.333 160.255 355.535 160.981C355.019 161.456 354.331 161.622 353.701 161.493C353.722 161.7 353.711 161.925 353.671 162.129C354.311 162.074 354.971 162.301 355.434 162.8C356.219 163.659 356.154 164.985 355.299 165.771C354.446 166.55 353.125 166.493 352.341 165.637C351.866 165.12 351.705 164.443 351.835 163.814C351.607 163.833 351.385 163.826 351.162 163.766C351.254 164.427 351.022 165.112 350.499 165.587C349.641 166.372 348.314 166.303 347.53 165.45C346.749 164.599 346.813 163.271 347.665 162.483C348.191 162.007 348.889 161.845 349.529 161.995C349.511 161.756 349.519 161.515 349.562 161.279C348.91 161.361 348.229 161.129 347.755 160.608C346.974 159.755 347.037 158.426 347.893 157.653C348.747 156.865 350.065 156.935 350.846 157.789C351.322 158.301 351.486 159.002 351.354 159.645C351.579 159.618 351.818 159.618 352.031 159.671C351.959 159.026 352.185 158.354 352.703 157.891" fill="#3D773C"/>
<path fill-rule="evenodd" clip-rule="evenodd" d="M267.891 29.3121C263.589 34.3255 259.777 40.0641 256.594 46.3068L260.073 33.5748C260.123 33.3988 260.045 33.2055 259.871 33.1321L256.633 31.6935C256.455 31.6201 256.255 31.6828 256.158 31.8508L247.335 47.5215C247.237 47.6815 247.282 47.8935 247.441 48.0108C247.598 48.1148 247.81 48.0935 247.938 47.9455C247.938 47.9455 254.223 40.6121 255.45 39.1721L254.593 50.4561C254.098 51.5535 253.631 52.6548 253.163 53.7748C250.463 60.4169 248.446 67.5205 247.133 74.8445L246.901 61.0961C246.891 60.9184 246.753 60.758 246.57 60.7383L243.067 60.2628C242.87 60.2435 242.701 60.3585 242.647 60.5517L238.582 78.0628C238.543 78.2492 238.649 78.4445 238.829 78.5028C239.007 78.5659 239.207 78.4727 239.281 78.306C239.281 78.306 243.253 69.5013 244.034 67.7741L246.445 79.1831C245.746 84.2711 245.385 89.4451 245.385 94.6189C245.385 97.4544 245.494 100.267 245.695 103.038L242.106 89.9008C242.054 89.7211 241.882 89.6169 241.705 89.632L238.182 90.0393C237.991 90.0596 237.855 90.2159 237.855 90.4195L238.235 108.395C238.235 108.584 238.382 108.744 238.571 108.757C238.766 108.768 238.945 108.637 238.974 108.444C238.974 108.444 240.646 98.9347 240.975 97.0727L246.106 107.486C247.037 115.74 248.879 123.727 251.598 131.367L244.678 119.781C244.582 119.621 244.381 119.555 244.211 119.621L240.927 120.96C240.753 121.028 240.657 121.229 240.719 121.413L245.919 138.624C245.969 138.818 246.158 138.919 246.349 138.887C246.521 138.848 246.649 138.701 246.649 138.52V138.492C246.649 138.492 245.695 128.865 245.514 126.997L253.218 135.586C256.298 143.13 260.253 150.105 264.886 156.216L254.945 147.661C254.803 147.541 254.593 147.541 254.461 147.661L251.766 149.965C251.622 150.094 251.598 150.304 251.707 150.462L262.085 165.152C262.193 165.315 262.399 165.354 262.573 165.261C262.687 165.199 262.762 165.07 262.762 164.94C262.762 164.892 262.75 164.834 262.731 164.781C262.731 164.781 258.793 155.971 258.019 154.246L267.786 159.809C269.114 161.363 270.485 162.861 271.905 164.274C272.665 165.025 273.881 165.025 274.634 164.26C275.397 163.508 275.387 162.284 274.634 161.533C273.139 160.046 271.702 158.488 270.315 156.834L269.473 147.661C270.718 149.122 276.971 156.359 276.971 156.359C277.089 156.496 277.313 156.526 277.471 156.413C277.627 156.309 277.67 156.088 277.575 155.925L268.475 140.363C268.381 140.2 268.189 140.141 268.021 140.2L264.709 141.513C264.517 141.591 264.423 141.787 264.489 141.967L268.277 154.296C263.471 148.043 259.395 140.792 256.307 132.93L258.158 123.303C258.973 124.996 263.259 133.867 263.259 133.867C263.346 134.048 263.546 134.119 263.721 134.054C263.905 133.991 264.013 133.802 263.955 133.61L259.385 116.183C259.346 116.001 259.178 115.884 258.983 115.905L255.442 116.267C255.251 116.287 255.102 116.457 255.113 116.649L255.218 130.003C252.499 122.359 250.698 114.351 249.838 106.077L254.169 97.008C254.53 98.8523 256.425 108.535 256.425 108.535C256.466 108.72 256.633 108.846 256.826 108.826C257.019 108.807 257.167 108.651 257.167 108.455V90.4388C257.167 90.2461 257.029 90.1008 256.843 90.0727L253.322 89.5273C253.133 89.4971 252.955 89.6169 252.911 89.8049L249.567 102.989C249.357 100.228 249.25 97.4435 249.25 94.6189C249.25 89.2456 249.651 83.9331 250.414 78.7461L256.711 71.0419C256.622 72.9175 256.182 82.7544 256.182 82.7544V82.7809C256.182 82.9675 256.307 83.1148 256.494 83.1517C256.687 83.182 256.865 83.0544 256.91 82.8632L261.186 65.3607C261.23 65.1809 261.131 65.0023 260.961 64.9268L257.673 63.5596C257.494 63.4877 257.29 63.5596 257.206 63.7331L250.943 75.532C252.499 66.8648 255.093 58.5877 258.603 51.0241L266.901 45.7028C266.231 47.4575 262.75 56.6737 262.75 56.6737C262.731 56.7195 262.731 56.7695 262.731 56.8128C262.731 56.9513 262.807 57.0773 262.931 57.1404C263.11 57.2247 263.311 57.1752 263.419 57.0055L272.909 41.6788C273.005 41.5348 272.974 41.3201 272.838 41.2028L270.125 38.8868C269.975 38.7615 269.767 38.7721 269.617 38.9068L259.949 48.2428C263.015 42.1788 266.687 36.6121 270.913 31.7241L284.611 19.9588C284.689 19.8935 284.701 19.7895 284.643 19.7028C284.581 19.6321 284.477 19.6082 284.387 19.6508C284.387 19.6508 280.338 21.9682 277.223 23.7348L286.243 12.1721C286.303 12.0975 286.293 11.9775 286.222 11.9148C286.15 11.8535 286.041 11.8535 285.965 11.9148L275.427 21.9682C276.865 18.7215 278.699 14.5642 278.699 14.5642C278.738 14.4775 278.707 14.3695 278.623 14.3215C278.538 14.2748 278.431 14.2962 278.382 14.3802L267.871 29.3015L267.891 29.3121" fill="#3D773C"/>
<path fill-rule="evenodd" clip-rule="evenodd" d="M313.973 161.237C287.361 161.237 265.714 131.357 265.714 94.6162C265.714 57.8927 287.361 28.0079 313.973 28.0079C340.575 28.0079 362.222 57.8927 362.222 94.6162C362.222 131.357 340.575 161.237 313.973 161.237V161.237ZM313.973 24.4332C285.411 24.4332 262.185 55.9226 262.185 94.6162C262.185 133.323 285.411 164.813 313.973 164.813C342.519 164.813 365.749 133.323 365.749 94.6162C365.749 55.9226 342.519 24.4332 313.973 24.4332Z" fill="#B69B1E"/>
<path fill-rule="evenodd" clip-rule="evenodd" d="M304.741 101.573H323.229V99.9612H305.95L304.741 101.573" fill="white"/>
<path fill-rule="evenodd" clip-rule="evenodd" d="M340.041 126.843C340.041 141.224 328.381 152.883 313.999 152.883C299.615 152.883 287.957 141.224 287.957 126.843C287.957 112.461 299.615 100.803 313.999 100.803C328.381 100.803 340.041 112.461 340.041 126.843" fill="white"/>
<path d="M291.974 128.77C291.947 128.355 291.831 128.169 291.441 128.197C291.039 128.223 290.946 128.407 290.974 128.839L291.03 129.733L292.033 129.672L291.974 128.77ZM292.641 128.854L292.69 129.627L293.841 129.559L293.886 130.306L290.422 130.523L290.318 128.85C290.246 127.758 290.701 127.47 291.362 127.427C291.839 127.396 292.291 127.524 292.507 128.086L293.701 127.322L293.751 128.14L292.641 128.854" fill="#9E9C9D"/>
<path d="M290.425 124.649L290.878 122.079L291.559 122.196L291.243 124.008L291.905 124.123L292.219 122.361L292.877 122.476L292.569 124.243L293.323 124.373L293.645 122.541L294.301 122.66L293.845 125.252L290.425 124.649" fill="#9E9C9D"/>
<path d="M291.673 119.262L292.095 118.348L294.646 118.485L292.881 116.638L293.301 115.731L296.455 117.185L296.143 117.865L294.034 116.893L295.753 118.711L295.511 119.238L293.022 119.117L295.121 120.082L294.833 120.714L291.673 119.262" fill="#9E9C9D"/>
<path d="M297.402 113.045C297.681 112.707 297.689 112.465 297.381 112.21C297.058 111.942 296.846 111.997 296.555 112.344L295.975 113.039L296.817 113.744L297.402 113.045ZM294.99 113.191L296.062 111.912C296.746 111.094 297.297 111.139 297.845 111.598C298.39 112.053 298.607 112.624 297.883 113.492L297.317 114.165L298.134 114.846L297.651 115.424L294.99 113.191Z" fill="#9E9C9D"/>
<path d="M300.201 110.731L298.942 108.993L299.563 108.542L300.767 110.202C301.067 110.619 301.347 110.786 301.914 110.369C302.479 109.959 302.427 109.655 302.115 109.223L300.911 107.565L301.514 107.124L302.778 108.867C303.169 109.401 303.487 110.065 302.306 110.924C301.119 111.786 300.591 111.271 300.201 110.731" fill="#9E9C9D"/>
<path d="M306.755 107.726C307.122 107.585 307.233 107.422 307.123 107.157C307.019 106.892 306.842 106.853 306.466 106.999L305.595 107.346L305.887 108.071L306.755 107.726ZM306.177 106.402C306.555 106.25 306.601 106.083 306.51 105.857C306.419 105.633 306.267 105.571 305.905 105.714L305.079 106.042L305.349 106.728L306.177 106.402ZM304.138 105.714L305.638 105.119C306.495 104.779 306.957 104.872 307.189 105.467C307.339 105.84 307.298 106.132 307.042 106.352C307.461 106.293 307.695 106.487 307.877 106.938C308.15 107.641 307.774 108.006 306.91 108.351L305.419 108.943L304.138 105.714" fill="#9E9C9D"/>
<path d="M309.617 103.93L310.377 103.813L310.807 106.588L312.49 106.328L312.595 106.984L310.147 107.363L309.617 103.93" fill="#9E9C9D"/>
<path d="M314.631 103.481L315.392 103.5L315.298 106.971L314.538 106.951L314.631 103.481Z" fill="#9E9C9D"/>
<path d="M317.721 105.413C317.998 104.2 318.782 103.819 319.907 104.078C320.523 104.216 320.877 104.471 321.123 104.868L320.489 105.267C320.329 105.017 320.114 104.844 319.743 104.759C319.022 104.595 318.633 104.889 318.474 105.595C318.318 106.274 318.485 106.721 319.259 106.897C319.702 106.999 319.946 106.899 320.199 106.751L320.583 107.349C320.249 107.568 319.833 107.728 319.062 107.557C317.799 107.268 317.467 106.532 317.721 105.413Z" fill="#9E9C9D"/>
<path d="M324.553 108.277L324.681 106.796L323.581 107.793L324.553 108.277ZM324.757 105.818L325.453 106.165L325.147 109.92L324.435 109.562L324.491 108.954L323.081 108.251L322.623 108.663L321.947 108.329L324.757 105.818Z" fill="#9E9C9D"/>
<path d="M329.003 108.358L329.747 109.028L328.866 111.422L331.147 110.285L331.89 110.953L329.574 113.533L329.014 113.032L330.563 111.309L328.319 112.414L327.889 112.023L328.737 109.687L327.199 111.402L326.681 110.94L329.003 108.358" fill="#9E9C9D"/>
<path d="M336.15 123.445C337.402 123.347 337.986 123.963 338.073 125.133C338.127 125.832 337.955 126.272 337.689 126.574L337.126 126.091C337.279 125.897 337.409 125.658 337.374 125.181C337.315 124.425 336.915 124.158 336.198 124.212C335.438 124.268 335.082 124.502 335.147 125.341C335.195 126.012 335.438 126.192 335.926 126.157L335.995 126.151L335.926 125.183L336.559 125.135L336.69 126.858L336.126 126.902C335.138 126.975 334.595 126.624 334.498 125.35C334.391 123.966 334.998 123.532 336.15 123.445" fill="#9E9C9D"/>
<path d="M338.031 128.82L337.679 131.407L336.99 131.311L337.239 129.489L336.57 129.395L336.33 131.174L335.666 131.083L335.91 129.306L335.145 129.202L334.895 131.048L334.234 130.958L334.589 128.351L338.031 128.82" fill="#9E9C9D"/>
<path d="M335.054 134.532C334.915 134.922 334.946 135.135 335.319 135.265C335.698 135.404 335.857 135.268 336.002 134.86L336.305 134.018L335.359 133.677L335.054 134.532ZM334.477 134.189L334.737 133.46L333.65 133.071L333.899 132.366L337.174 133.529L336.607 135.112C336.243 136.135 335.71 136.227 335.089 136.003C334.638 135.845 334.275 135.547 334.294 134.948L332.897 135.177L333.174 134.41L334.477 134.189" fill="#9E9C9D"/>
<path d="M335.189 138.329L333.83 140.558L333.238 140.195L334.199 138.624L333.622 138.271L332.689 139.801L332.113 139.453L333.053 137.921L332.401 137.517L331.425 139.108L330.859 138.763L332.229 136.515L335.189 138.329" fill="#9E9C9D"/>
<path d="M330.178 142.364C329.89 142.67 329.837 142.878 330.123 143.145C330.418 143.423 330.617 143.364 330.915 143.045L331.527 142.392L330.795 141.706L330.178 142.364ZM329.782 141.819L330.315 141.251L329.474 140.461L329.993 139.916L332.523 142.299L331.371 143.518C330.622 144.313 330.102 144.182 329.613 143.727C329.269 143.401 329.054 142.989 329.314 142.442L327.938 142.092L328.502 141.498L329.782 141.819" fill="#9E9C9D"/>
<path d="M328.774 145.899L326.631 147.388L326.231 146.815L327.745 145.764L327.361 145.211L325.89 146.233L325.505 145.684L326.981 144.662L326.543 144.03L325.013 145.089L324.633 144.541L326.794 143.043L328.774 145.899" fill="#9E9C9D"/>
<path d="M316.373 149.132C315.961 149.183 315.785 149.306 315.831 149.697C315.881 150.099 316.067 150.181 316.499 150.129L317.389 150.028L317.274 149.028L316.373 149.132ZM316.426 148.462L317.198 148.373L317.063 147.229L317.807 147.14L318.207 150.593L316.542 150.784C315.459 150.91 315.142 150.478 315.067 149.816C315.01 149.341 315.114 148.88 315.666 148.636L314.835 147.486L315.655 147.39L316.426 148.462" fill="#9E9C9D"/>
<path d="M313.029 150.927L310.429 150.684L310.494 149.994L312.326 150.163L312.39 149.495L310.605 149.323L310.667 148.657L312.455 148.828L312.527 148.062L310.673 147.889L310.737 147.225L313.357 147.474L313.029 150.927Z" fill="#9E9C9D"/>
<path d="M309.023 148.681C308.658 149.873 307.851 150.192 306.745 149.855C306.139 149.671 305.809 149.393 305.59 148.978L306.25 148.625C306.39 148.885 306.594 149.074 306.957 149.185C307.665 149.402 308.074 149.132 308.287 148.444C308.491 147.774 308.359 147.316 307.594 147.086C307.163 146.951 306.915 147.034 306.651 147.16L306.313 146.541C306.659 146.348 307.087 146.216 307.841 146.443C309.083 146.822 309.359 147.583 309.023 148.681Z" fill="#9E9C9D"/>
<path d="M303.079 147.512L304.131 148.091L303.801 148.701L301.013 147.174L301.347 146.566L302.399 147.141L303.737 144.704L304.415 145.075L303.079 147.512" fill="#9E9C9D"/>
<path d="M299.411 146.033L297.419 144.347L297.865 143.815L299.273 145.006L299.709 144.492L298.334 143.332L298.769 142.82L300.142 143.978L300.638 143.39L299.217 142.19L299.646 141.68L301.655 143.379L299.411 146.033" fill="#9E9C9D"/>
<path fill-rule="evenodd" clip-rule="evenodd" d="M331.957 123.197C331.994 123.655 332.341 125.918 332.341 126.847C332.341 136.978 324.123 145.188 314.002 145.188C309.453 145.188 303.503 142.477 300.301 139.74L300.566 139.389C310.743 126.298 327.286 123.421 331.669 123.206L331.957 123.197ZM314.002 108.499L315.29 112.303L319.305 112.359L316.085 114.759L317.267 118.573C317.426 118.52 317.583 118.473 317.729 118.425C322.803 116.897 327.354 116.604 329.177 116.547C325.882 111.698 320.307 108.499 314.002 108.499ZM295.655 126.847C295.655 116.721 303.875 108.499 314.002 108.499L312.713 112.303L308.693 112.359L311.909 114.759L310.718 118.597L314.002 116.279L317.243 118.573C311.234 120.461 303.391 125.765 297.111 134.206C296.445 132.308 295.655 128.979 295.655 126.847" fill="#215899"/>
<path d="M302.419 132.026C302.101 131.747 301.831 131.814 301.531 132.157C301.186 132.548 301.279 132.762 301.531 132.988C301.786 133.211 302.033 133.249 302.35 132.886C302.649 132.548 302.683 132.259 302.419 132.026ZM302.519 134.151L302.73 133.915C303.503 133.027 303.253 132.756 302.997 132.495C303.049 132.732 302.925 133.008 302.595 133.383C302.061 133.989 301.586 133.898 301.11 133.478C300.586 133.014 300.481 132.487 301.102 131.784C301.753 131.044 302.361 131.059 303.057 131.669C304.023 132.515 304.155 133.123 303.126 134.29L302.929 134.512L302.519 134.151" fill="#9E9C9D"/>
<path d="M306.102 129.766L304.913 129.156L305.369 130.412L306.102 129.766ZM304.121 128.765L304.646 128.301L307.674 129.822L307.139 130.297L306.646 130.046L305.586 130.987L305.777 131.504L305.266 131.955L304.121 128.765Z" fill="#9E9C9D"/>
<path d="M308.871 128.24C309.159 128.034 309.218 127.869 309.066 127.663C308.913 127.457 308.749 127.461 308.461 127.672L307.774 128.166L308.187 128.738L308.871 128.24ZM308.066 127.216C308.363 127.001 308.367 126.843 308.239 126.667C308.11 126.491 307.959 126.467 307.675 126.675L307.033 127.144L307.422 127.68L308.066 127.216ZM306.137 127.071L307.31 126.216C307.986 125.727 308.407 125.707 308.745 126.174C308.959 126.465 308.986 126.726 308.817 126.977C309.162 126.834 309.411 126.943 309.674 127.301C310.071 127.852 309.823 128.26 309.142 128.753L307.979 129.599L306.137 127.071" fill="#9E9C9D"/>
<path d="M311.034 125.582C311.358 125.393 311.458 125.225 311.275 124.922C311.095 124.608 310.909 124.611 310.573 124.809L309.875 125.218L310.334 125.998L311.034 125.582ZM311.238 126.154L310.638 126.508L311.161 127.402L310.578 127.745L308.995 125.05L310.297 124.286C311.143 123.787 311.559 124.03 311.865 124.548C312.083 124.92 312.162 125.33 311.801 125.736L312.898 126.38L312.263 126.756L311.238 126.154" fill="#9E9C9D"/>
<path d="M312.085 123.307L312.703 122.997L314.098 125.801L313.481 126.105L312.085 123.307" fill="#9E9C9D"/>
<path d="M313.509 122.611L314.146 122.339L315.127 124.668L316.547 124.072L316.774 124.62L314.726 125.49L313.509 122.611" fill="#9E9C9D"/>
<path d="M317.647 121.664L317.141 121.821L316.962 121.254L318.09 120.9L319.022 123.884L318.407 124.082L317.647 121.664" fill="#9E9C9D"/>
<path d="M321.434 122.296C321.367 122.005 321.147 121.875 320.659 121.99C320.171 122.103 320.041 122.315 320.11 122.604C320.177 122.893 320.387 123.029 320.874 122.912C321.367 122.797 321.499 122.582 321.434 122.296ZM321.043 121.002C320.993 120.783 320.829 120.677 320.375 120.787C319.926 120.891 319.83 121.059 319.878 121.276C319.934 121.498 320.093 121.608 320.542 121.498C320.993 121.393 321.095 121.226 321.043 121.002V121.002ZM319.47 122.815C319.386 122.454 319.418 122.103 319.77 121.89C319.418 121.838 319.294 121.616 319.229 121.337C319.134 120.922 319.277 120.501 320.258 120.271C321.241 120.041 321.553 120.362 321.651 120.768C321.717 121.044 321.701 121.318 321.413 121.503C321.825 121.541 322.014 121.834 322.101 122.2C322.218 122.704 321.998 123.197 320.998 123.431C320.002 123.665 319.59 123.321 319.47 122.815" fill="#9E9C9D"/>
<path d="M324.345 120.705C324.287 120.289 324.038 120.163 323.585 120.228C323.07 120.304 322.997 120.528 323.043 120.857C323.093 121.192 323.257 121.382 323.731 121.313C324.179 121.248 324.394 121.053 324.345 120.705ZM323.035 122.383L323.347 122.342C324.513 122.172 324.501 121.801 324.478 121.435C324.365 121.651 324.089 121.778 323.595 121.85C322.795 121.964 322.493 121.582 322.409 120.957C322.309 120.26 322.571 119.796 323.507 119.664C324.478 119.525 324.926 119.933 325.061 120.849C325.245 122.12 324.951 122.663 323.407 122.884L323.115 122.93L323.035 122.383" fill="#9E9C9D"/>
<path d="M325.601 122.071L326.562 121.127C327.007 120.691 327.163 120.525 327.146 120.252C327.129 120.007 327.013 119.898 326.586 119.924C326.285 119.944 325.937 120.055 325.753 120.17L325.425 119.681C325.749 119.491 326.03 119.382 326.618 119.348C327.363 119.3 327.758 119.521 327.797 120.15C327.827 120.625 327.613 120.927 327.138 121.385L326.53 121.982L327.941 121.895L327.973 122.44L325.629 122.587L325.601 122.071" fill="#9E9C9D"/>
<path fill-rule="evenodd" clip-rule="evenodd" d="M322.506 21.8643L315.401 16.8456L308.302 21.8643L310.883 13.5536L303.906 8.35492L312.613 8.24025L315.401 0.00026172L318.195 8.24025L326.899 8.35492L319.923 13.5536L322.506 21.8643" fill="#B69B1E"/>
<path fill-rule="evenodd" clip-rule="evenodd" d="M363.646 169.291C358.064 172.759 351.469 174.756 344.411 174.756C337.343 174.756 330.752 172.744 325.164 169.291L320.902 176.175L308.584 168.547C308.584 168.547 306.321 172.221 304.277 175.508C297.091 171.546 288.838 169.291 280.047 169.291C270.362 169.291 261.318 172.025 253.656 176.778C253.656 176.778 259.125 185.646 260.798 188.356C266.397 184.888 272.987 182.879 280.047 182.879C287.112 182.879 293.695 184.886 299.292 188.356L303.567 181.433L315.746 188.977C316.467 187.818 318.426 184.771 320.138 182.102C327.333 186.084 335.609 188.3 344.411 188.3C354.097 188.3 363.135 185.612 370.814 180.865C370.814 180.865 365.023 171.522 363.646 169.291" fill="#B69B1E"/>
<path fill-rule="evenodd" clip-rule="evenodd" d="M296.022 182.227C297.762 182.928 298.277 181.646 298.803 180.324C299.346 179.004 299.854 177.732 298.119 177.032C296.394 176.333 295.874 177.592 295.335 178.925C294.806 180.24 294.287 181.518 296.022 182.227V182.227ZM296.33 181.48C295.738 181.236 295.885 180.641 296.406 179.358C296.923 178.071 297.226 177.537 297.821 177.778C298.415 178.026 298.266 178.612 297.738 179.901C297.217 181.179 296.923 181.713 296.33 181.48V181.48ZM289.822 180.076L291.587 180.587C293.45 181.118 293.853 179.248 294.086 178.449C294.553 176.83 294.561 175.795 293.133 175.395L291.315 174.862L289.822 180.076ZM292.169 175.984L292.731 176.142C293.493 176.355 293.25 177.201 292.974 178.16C292.603 179.462 292.331 179.927 291.663 179.74L291.131 179.589L292.169 175.984ZM284.722 179.273C286.573 179.539 286.766 178.174 286.963 176.765C287.167 175.35 287.361 173.996 285.507 173.729C283.657 173.477 283.463 174.833 283.261 176.249C283.062 177.657 282.874 179.017 284.722 179.273ZM284.838 178.483C284.207 178.384 284.207 177.778 284.405 176.411C284.598 175.033 284.765 174.447 285.389 174.532C286.026 174.629 286.026 175.23 285.834 176.611C285.631 177.989 285.474 178.56 284.838 178.483V178.483ZM278.365 178.896L280.214 178.925C282.151 178.97 282.059 177.058 282.069 176.216C282.098 174.532 281.835 173.54 280.355 173.509L278.458 173.477L278.365 178.896ZM279.581 174.332L280.162 174.35C280.958 174.361 280.933 175.23 280.913 176.229C280.893 177.592 280.755 178.112 280.058 178.093L279.518 178.084L279.581 174.332ZM275.753 177.114L274.671 177.244L274.914 174.862H274.926L275.753 177.114ZM274.385 179.33L274.543 178.108L276.077 177.919L276.523 179.072L277.705 178.937L275.601 173.729L274.121 173.9L273.274 179.462L274.385 179.33ZM268.643 174.94L268.818 175.816L270.055 175.552L270.998 179.975L272.107 179.74L271.167 175.317L272.393 175.057L272.214 174.17L268.643 174.94ZM268.789 178.896C268.235 177.277 266.11 178.108 265.774 177.138C265.655 176.778 265.793 176.517 266.141 176.403C266.577 176.249 266.766 176.621 266.902 177.001L267.942 176.641C267.645 175.537 266.969 175.257 265.919 175.617C264.614 176.064 264.459 176.83 264.734 177.639C265.255 179.154 267.431 178.468 267.751 179.402C267.869 179.74 267.769 180.031 267.413 180.161C266.821 180.365 266.659 179.964 266.493 179.471L265.422 179.844C265.666 180.745 266.186 181.443 267.517 180.993C268.329 180.702 269.25 180.216 268.789 178.896V178.896ZM265.17 181.646L264.81 180.898L263.117 181.721L262.427 180.29L263.942 179.563L263.582 178.809L262.067 179.539L261.486 178.336L263.126 177.537L262.769 176.789L260.101 178.084L262.462 182.958L265.17 181.646ZM313.705 183.126C315.283 184.119 316.022 182.958 316.787 181.76C317.545 180.543 318.279 179.393 316.699 178.397C315.125 177.396 314.391 178.542 313.622 179.762C312.871 180.955 312.129 182.121 313.705 183.126ZM314.138 182.44C313.599 182.101 313.853 181.548 314.595 180.369C315.338 179.202 315.729 178.736 316.267 179.072C316.802 179.43 316.549 179.975 315.813 181.153C315.071 182.325 314.678 182.777 314.138 182.44V182.44ZM311.029 181.325L313.941 176.745L312.977 176.142L310.079 180.708L311.029 181.325ZM308.307 176.95L308.562 177.094C309.293 177.56 308.953 177.998 308.606 178.542C308.415 178.843 308.191 179.132 308.15 179.497L309.079 180.088C309.113 179.844 309.639 178.97 309.833 178.67C310.351 177.85 309.757 177.405 309.57 177.253L309.578 177.233C310.266 177.528 310.763 177.233 311.134 176.65C311.634 175.862 311.479 175.19 310.826 174.775L309.059 173.655L306.15 178.229L307.113 178.843L308.307 176.95ZM309.57 174.97L309.989 175.23C310.298 175.421 310.37 175.712 310.095 176.142C309.917 176.439 309.57 176.745 309.187 176.502L308.762 176.235L309.57 174.97ZM362.834 180.524C364.559 179.799 364.019 178.523 363.469 177.21C362.91 175.899 362.366 174.64 360.657 175.374C358.93 176.101 359.459 177.36 360.017 178.67C360.581 179.988 361.122 181.255 362.834 180.524ZM362.53 179.777C361.935 180.029 361.627 179.506 361.081 178.229C360.538 176.95 360.379 176.363 360.974 176.11C361.555 175.862 361.862 176.39 362.411 177.658C362.95 178.948 363.11 179.527 362.53 179.777ZM356.994 180.088L357.277 180.007C358.115 179.749 358.213 180.29 358.401 180.914C358.498 181.255 358.578 181.611 358.811 181.889L359.881 181.562C359.714 181.381 359.394 180.408 359.303 180.076C359.013 179.132 358.295 179.295 358.053 179.341L358.042 179.33C358.722 179.004 358.823 178.433 358.623 177.768C358.359 176.871 357.741 176.541 357.005 176.765L354.995 177.37L356.558 182.568L357.638 182.24L356.994 180.088ZM356.326 177.85L356.805 177.696C357.153 177.592 357.415 177.722 357.563 178.217C357.661 178.542 357.671 179.011 357.237 179.148L356.762 179.285L356.326 177.85ZM355.195 182.939L354.062 177.639L352.954 177.87L354.083 183.171L355.195 182.939ZM353.079 183.371L352.941 182.557L351.085 182.846L350.835 181.275L352.501 181.025L352.37 180.195L350.711 180.465L350.497 179.132L352.302 178.853L352.171 178.026L349.251 178.49L350.093 183.85L353.079 183.371ZM345.514 184.143L345.334 180.185H345.345L347.002 184.083L348.498 184.002L348.25 178.599L347.195 178.644L347.363 182.39L347.354 182.392L345.735 178.705L344.207 178.781L344.455 184.2L345.514 184.143ZM341.643 182.057L340.562 181.984L341.239 179.691H341.258L341.643 182.057ZM339.885 183.974L340.275 182.8L341.818 182.904L342.034 184.132L343.226 184.209L342.142 178.705L340.646 178.599L338.774 183.9L339.885 183.974ZM337.714 178.217L337.046 182.392C337.018 182.625 336.803 182.835 336.549 182.785C335.959 182.698 336.161 182.077 336.23 181.646L335.09 181.47C334.889 182.68 334.858 183.334 336.423 183.592C337.215 183.723 338.031 183.434 338.183 182.505L338.834 178.397L337.714 178.217ZM331.759 182.416L332.009 181.62L330.207 181.049L330.69 179.554L332.285 180.06L332.541 179.248L330.933 178.757L331.334 177.477L333.083 178.026L333.333 177.233L330.507 176.343L328.878 181.505L331.759 182.416ZM324.021 179.408L325.695 180.17C327.462 180.977 328.142 179.192 328.477 178.433C329.183 176.895 329.342 175.877 327.99 175.268L326.265 174.475L324.021 179.408ZM326.953 175.712L327.481 175.956C328.201 176.277 327.842 177.073 327.417 177.989C326.859 179.226 326.517 179.632 325.891 179.35L325.398 179.117L326.953 175.712Z" fill="white"/>
<path d="M348.611 71.4181C347.779 71.6326 349.279 69.8982 350.729 70.9534C350.729 70.9534 349.335 71.2295 348.611 71.4181ZM355.635 73.1238C355.326 72.1733 354.435 70.2222 351.478 70.7867C350.971 69.7665 348.646 70.1545 346.49 70.7493C344.338 71.3441 340.23 73.0217 338.443 73.6222C336.655 74.2195 333.819 74.5925 332.871 74.0607C333.05 74.643 333.606 74.9681 334.234 75.2003C334.051 75.2066 333.823 75.205 333.565 75.1785C332.675 74.929 331.409 74.3263 330.666 72.8545C329.778 71.0706 329.89 69.4518 329.266 68.3039C328.643 67.1575 328.291 65.3805 325.171 65.3805C322.05 65.3805 315.107 67.8867 309.059 69.4233C303.01 70.9623 292.574 73.8785 287.931 75.0966C283.286 76.3133 274.105 77.5701 270.77 77.5701C276.501 82.0774 288.066 79.7971 290.785 79.4143C289.446 79.8597 281.417 81.5222 281.613 81.7409C281.718 82.505 286.653 83.6315 296.265 80.6514C294.677 81.7498 290.869 83.0435 287.994 83.8591C287.81 83.9091 288.138 84.0738 288.667 84.2045C290.318 84.5471 294.314 84.9118 302.527 81.9971C300.657 82.9977 296.89 84.4362 294.105 85.331C292.555 85.8321 296.731 86.2201 299.801 85.6258C303.01 85.005 305.823 83.5529 307.987 83.293L309.611 83.1457C306.343 83.7419 298.202 87.7523 295.574 89.2222C292.597 90.8883 286.841 93.2211 283.977 93.5206C285.122 94.6081 288.55 96.2003 291.185 96.8837C294.097 97.6326 298.685 98.0018 302.603 97.3681C303.917 94.2129 309.031 90.9987 311.397 90.1029C308.703 92.5009 308.677 94.1629 308.585 95.7529C308.577 97.1462 309.459 98.9149 309.633 100.191H313.174C313.142 99.2993 313.087 97.4523 313.198 96.1503C313.346 94.3654 314.086 92.879 316.022 91.5373C315.275 92.729 315.767 95.4733 316.169 96.8909C316.531 98.1706 316.934 99.4247 317.31 100.191H321.009C320.317 99.1285 320.206 95.5842 320.489 94.4107C320.839 92.9435 323.517 90.9581 325.678 89.6039C327.847 88.2602 331.817 87.2081 334.314 86.4878C336.814 85.767 338.003 85.2654 338.591 84.7919C339.598 84.1195 340.449 82.8518 341.698 81.5435C342.107 81.1727 342.453 80.7971 342.458 80.7883C342.469 80.7883 345.187 77.9586 349.625 76.0706C350.75 75.5889 353.089 75.005 354.027 75.0654C354.974 75.1269 355.495 75.3742 356.062 75.9081C356.134 74.9509 355.933 74.0457 355.635 73.1238" fill="white"/>
<path d="M342.059 82.8733C341.97 82.9233 341.738 83.1144 341.161 83.8587C341.161 83.8587 341.129 83.8999 341.075 83.9608C339.874 85.5649 338.318 86.4915 336.509 87.0248C334.411 87.6436 329.865 88.6832 326.867 90.0592C328.934 90.1285 337.13 90.9509 340.206 90.5748C343.277 90.1952 346.595 88.5207 346.714 86.0009C346.834 83.5723 344.481 82.8108 342.059 82.8733" fill="white"/>
<path d="M422.55 96.9773V106.574H429.503C432.319 106.574 434.467 106.207 435.931 105.475C437.402 104.747 438.134 103.438 438.134 101.549C438.134 99.9617 437.575 98.8022 436.453 98.071C435.337 97.3413 433.713 96.9773 431.586 96.9773H422.55ZM422.895 118.101V134.011C422.895 134.525 422.723 134.977 422.374 135.362C422.026 135.749 421.599 135.942 421.101 135.942H408.238C407.774 135.942 407.367 135.749 407.021 135.362C406.671 134.977 406.497 134.525 406.497 134.011V87.3795C406.497 86.8648 406.671 86.4112 407.021 86.0268C407.367 85.6388 407.774 85.4456 408.238 85.4456H437.326C442.31 85.4456 446.305 86.6721 449.319 89.12C452.566 91.7846 454.186 95.2825 454.186 99.6159C454.186 104.51 452.853 108.053 450.191 110.241C449.531 110.799 448.77 111.328 447.898 111.821C447.031 112.316 446.073 112.754 445.029 113.142C446.267 113.874 447.321 114.666 448.186 115.523C449.058 116.383 449.783 117.244 450.361 118.101L458.303 132.976C458.687 133.707 458.715 134.391 458.389 135.007C458.061 135.63 457.526 135.942 456.795 135.942H442.077C441.762 135.942 441.467 135.836 441.179 135.619C440.889 135.404 440.665 135.148 440.51 134.846L433.094 119.516L433.153 119.651C432.999 119.432 432.837 119.217 432.661 119.002C432.485 118.787 432.302 118.616 432.111 118.49C431.799 118.232 430.602 118.101 428.515 118.101H422.895" fill="#215899"/>
<path d="M462.643 135.942C462.221 135.942 461.862 135.747 461.574 135.361C461.283 134.977 461.142 134.523 461.142 134.011V87.3795C461.142 86.8648 461.283 86.4112 461.574 86.0295C461.862 85.6388 462.221 85.4456 462.643 85.4456H473.423C473.85 85.4456 474.206 85.6388 474.498 86.0295C474.786 86.4112 474.931 86.8648 474.931 87.3795V134.011C474.931 134.523 474.786 134.977 474.498 135.361C474.206 135.747 473.85 135.942 473.423 135.942H462.643Z" fill="#215899"/>
<path d="M513.027 102.29C511.115 100.417 508.346 99.4855 504.718 99.4855C501.081 99.4855 498.318 100.417 496.429 102.29C494.535 104.156 493.591 106.935 493.591 110.629C493.591 114.323 494.535 117.105 496.429 118.971C498.318 120.838 501.081 121.768 504.718 121.768C508.346 121.768 511.115 120.838 513.027 118.971C514.939 117.105 515.897 114.323 515.897 110.629C515.897 106.935 514.939 104.156 513.027 102.29ZM525.053 130.274C520.455 134.566 513.679 136.717 504.718 136.717C495.753 136.717 488.971 134.566 484.375 130.274C479.777 125.981 477.481 119.435 477.481 110.629C477.481 101.825 479.777 95.2688 484.375 90.9532C488.971 86.6392 495.753 84.4777 504.718 84.4777C513.679 84.4777 520.455 86.6392 525.053 90.9532C529.649 95.2688 531.947 101.825 531.947 110.629C531.947 119.435 529.649 125.981 525.053 130.274" fill="#215899"/>
<path d="M582.477 103.286C581.125 101.612 579.134 100.775 576.509 100.775H566.311V120.612H576.047C578.829 120.612 580.931 119.785 582.362 118.13C583.794 116.48 584.506 114.019 584.506 110.759C584.506 107.451 583.831 104.963 582.477 103.286V103.286ZM576.974 85.4454C583.883 85.4454 589.509 87.7864 593.835 92.4656C598.121 97.1026 600.266 103.18 600.266 110.693C600.266 118.034 598.101 124.089 593.773 128.854C589.489 133.581 583.963 135.938 577.201 135.938H551.709C551.205 135.938 550.779 135.751 550.433 135.36C550.087 134.972 549.911 134.523 549.911 134.01V87.3834C549.911 86.8646 550.087 86.411 550.433 86.0266C550.779 85.6406 551.205 85.4454 551.709 85.4454H576.974" fill="#215899"/>
<path d="M604.554 135.942C604.091 135.942 603.681 135.747 603.337 135.361C602.989 134.977 602.815 134.523 602.815 134.011V87.3795C602.815 86.8648 602.989 86.4112 603.337 86.0295C603.681 85.6388 604.091 85.4456 604.554 85.4456H638.334C638.798 85.4456 639.205 85.6388 639.551 86.0295C639.901 86.4112 640.077 86.8648 640.077 87.3795V96.7814C640.077 97.3372 639.901 97.8101 639.551 98.1965C639.205 98.5877 638.798 98.7784 638.334 98.7784H618.866V103.931H635.498C635.957 103.931 636.366 104.126 636.715 104.51C637.062 104.898 637.231 105.347 637.231 105.864V115.139C637.231 115.692 637.062 116.167 636.715 116.554C636.366 116.945 635.957 117.134 635.498 117.134L618.866 117.199V122.611H639.901C640.401 122.611 640.819 122.8 641.147 123.188C641.473 123.579 641.639 124.046 641.639 124.605V134.011C641.639 134.523 641.473 134.977 641.147 135.361C640.819 135.747 640.401 135.942 639.901 135.942H604.554" fill="#215899"/>
<path d="M691.47 84.9318C691.934 84.9318 692.327 85.1244 692.659 85.5088C692.987 85.8995 693.154 86.3724 693.154 86.9282V120.033C693.154 125.274 691.527 129.584 688.282 132.976C685.116 136.244 681.002 137.874 675.943 137.874C673.236 137.874 670.435 137.36 667.535 136.327C666.11 135.815 664.956 135.381 664.092 135.042C663.223 134.697 662.592 134.395 662.207 134.139C662.015 134.008 661.828 133.785 661.659 133.46C661.483 133.139 661.374 132.874 661.342 132.659L659.661 117.969C659.585 117.457 659.64 117.019 659.828 116.649C660.024 116.285 660.286 116.018 660.612 115.849C660.943 115.673 661.292 115.619 661.659 115.684C662.026 115.749 662.362 115.977 662.672 116.361C663.288 117.177 664.526 118.165 666.38 119.325C668.08 120.399 669.914 120.935 671.884 120.935C675.514 120.935 677.33 119.087 677.33 115.395V86.9282C677.33 86.3724 677.506 85.8995 677.853 85.5088C678.205 85.1244 678.603 84.9318 679.07 84.9318H691.47" fill="#215899"/>
<path d="M715.226 117.199H726.006L720.791 105.99L715.226 117.199ZM735.798 135.942C735.527 135.942 735.23 135.834 734.902 135.619C734.574 135.404 734.353 135.146 734.234 134.849L731.282 128.534H709.547L706.593 134.849C706.441 135.146 706.203 135.404 705.901 135.619C705.587 135.834 705.277 135.942 704.973 135.942H692.977C692.205 135.942 691.646 135.638 691.295 135.037C690.946 134.438 690.967 133.772 691.353 133.043L715.169 86.4809C715.289 86.2159 715.515 85.9815 715.865 85.7669C716.21 85.5544 716.501 85.4456 716.733 85.4456H726.991C727.263 85.4456 727.554 85.5544 727.859 85.7669C728.166 85.9815 728.401 86.2399 728.551 86.5413L750.979 133.108C751.286 133.837 751.286 134.488 750.979 135.072C750.666 135.649 750.133 135.942 749.355 135.942H735.798" fill="#215899"/>
<path d="M781.343 106.024C782.422 107.674 783.526 109.362 784.644 111.083V87.3792C784.644 86.8646 784.819 86.411 785.167 86.0266C785.516 85.6406 785.939 85.4454 786.44 85.4454H797.743C798.244 85.4454 798.664 85.6406 799.016 86.0266C799.362 86.411 799.54 86.8646 799.54 87.3792V134.008C799.54 134.525 799.362 134.972 799.016 135.362C798.664 135.748 798.244 135.938 797.743 135.938H784.762C784.567 135.938 784.316 135.87 784.01 135.716C783.699 135.565 783.467 135.386 783.314 135.167L766.974 110.693V134.008C766.974 134.525 766.8 134.972 766.451 135.362C766.102 135.748 765.674 135.938 765.175 135.938H753.874C753.415 135.938 753.007 135.748 752.658 135.362C752.311 134.972 752.136 134.525 752.136 134.008V87.3792C752.136 86.8646 752.311 86.411 752.658 86.0266C753.007 85.6406 753.415 85.4454 753.874 85.4454H766.742C766.974 85.4454 767.252 85.5348 767.58 85.7036C767.912 85.8771 768.11 86.0682 768.19 86.2854C769.886 88.863 771.54 91.361 773.142 93.7875C774.743 96.213 776.378 98.652 778.039 101.095C779.162 102.728 780.26 104.375 781.343 106.024" fill="#215899"/>
<path d="M804.867 135.942C804.405 135.942 803.998 135.747 803.653 135.361C803.301 134.977 803.131 134.523 803.131 134.011V87.3795C803.131 86.8648 803.301 86.4112 803.653 86.0295C803.998 85.6388 804.405 85.4456 804.867 85.4456H838.65C839.117 85.4456 839.521 85.6388 839.87 86.0295C840.215 86.4112 840.386 86.8648 840.386 87.3795V96.7814C840.386 97.3372 840.215 97.8101 839.87 98.1965C839.521 98.5877 839.117 98.7784 838.65 98.7784H819.179V103.931H835.813C836.271 103.931 836.679 104.126 837.027 104.51C837.377 104.898 837.553 105.347 837.553 105.864V115.139C837.553 115.692 837.377 116.167 837.027 116.554C836.679 116.945 836.271 117.134 835.813 117.134L819.179 117.199V122.611H840.215C840.718 122.611 841.131 122.8 841.461 123.188C841.789 123.579 841.955 124.046 841.955 124.605V134.011C841.955 134.523 841.789 134.977 841.461 135.361C841.131 135.747 840.718 135.942 840.215 135.942H804.867" fill="#215899"/>
<path d="M846.011 135.942C845.585 135.942 845.223 135.747 844.939 135.361C844.646 134.977 844.503 134.523 844.503 134.011V87.3795C844.503 86.8648 844.646 86.4112 844.939 86.0295C845.223 85.6388 845.585 85.4456 846.011 85.4456H856.786C857.211 85.4456 857.567 85.6388 857.858 86.0295C858.147 86.4112 858.294 86.8648 858.294 87.3795V134.011C858.294 134.523 858.147 134.977 857.858 135.361C857.567 135.747 857.211 135.942 856.786 135.942H846.011Z" fill="#215899"/>
<path d="M876.895 96.9773V106.574H883.85C886.668 106.574 888.811 106.207 890.278 105.475C891.743 104.747 892.479 103.438 892.479 101.549C892.479 99.9617 891.916 98.8022 890.8 98.071C889.679 97.3413 888.058 96.9773 885.934 96.9773H876.895ZM877.244 118.101V134.011C877.244 134.525 877.071 134.977 876.719 135.362C876.374 135.749 875.944 135.942 875.443 135.942H862.58C862.118 135.942 861.71 135.749 861.363 135.362C861.018 134.977 860.844 134.525 860.844 134.011V87.3795C860.844 86.8648 861.018 86.4112 861.363 86.0268C861.71 85.6388 862.118 85.4456 862.58 85.4456H891.67C896.654 85.4456 900.652 86.6721 903.663 89.12C906.908 91.7846 908.534 95.2825 908.534 99.6159C908.534 104.51 907.199 108.053 904.534 110.241C903.88 110.799 903.114 111.328 902.244 111.821C901.374 112.316 900.419 112.754 899.376 113.142C900.61 113.874 901.663 114.666 902.535 115.523C903.403 116.383 904.128 117.244 904.704 118.101L912.647 132.976C913.031 133.707 913.064 134.391 912.732 135.007C912.404 135.63 911.874 135.942 911.14 135.942H896.419C896.112 135.942 895.814 135.836 895.522 135.619C895.232 135.404 895.01 135.148 894.859 134.846L887.442 119.516L887.5 119.651C887.344 119.432 887.179 119.217 887.004 119.002C886.831 118.787 886.65 118.616 886.454 118.49C886.143 118.232 884.948 118.101 882.858 118.101H877.244" fill="#215899"/>
<path d="M944.831 102.29C942.922 100.417 940.15 99.4855 936.519 99.4855C932.887 99.4855 930.125 100.417 928.233 102.29C926.342 104.156 925.393 106.935 925.393 110.629C925.393 114.323 926.342 117.105 928.233 118.971C930.125 120.838 932.887 121.768 936.519 121.768C940.15 121.768 942.922 120.838 944.831 118.971C946.746 117.105 947.705 114.323 947.705 110.629C947.705 106.935 946.746 104.156 944.831 102.29ZM956.859 130.274C952.258 134.566 945.483 136.717 936.519 136.717C927.559 136.717 920.778 134.566 916.181 130.274C911.585 125.981 909.287 119.435 909.287 110.629C909.287 101.825 911.585 95.2688 916.181 90.9532C920.778 86.6392 927.559 84.4777 936.519 84.4777C945.483 84.4777 952.258 86.6392 956.859 90.9532C961.455 95.2688 963.753 101.825 963.753 110.629C963.753 119.435 961.455 125.981 956.859 130.274" fill="#215899"/>
<path d="M406.395 58.4081C406.395 49.3016 410.675 45.4256 418.323 45.4256C422.906 45.4256 425.686 46.9216 427.491 48.9962L424.067 52.8349C422.906 51.6122 421.409 50.5242 418.29 50.5242C413.335 50.5242 411.41 53.2402 411.41 58.4769C411.41 63.981 412.754 66.7018 418.225 66.7018C422.63 66.7018 423.915 65.0681 423.915 61.5373V60.99H417.583V56.3682H428.867V60.48C428.867 67.6529 426.298 71.3936 417.982 71.3936C408.93 71.3936 406.395 66.7696 406.395 58.4081" fill="#231F20"/>
<path d="M461.578 58.5099C461.578 53.5839 459.838 50.5239 454.634 50.5239C449.438 50.5239 447.698 53.5839 447.698 58.5099C447.698 63.438 449.438 66.5281 454.634 66.5281C459.838 66.5281 461.578 63.438 461.578 58.5099ZM442.65 58.4077C442.65 48.9612 447.422 45.4252 454.634 45.4252C461.851 45.4252 466.653 48.9612 466.653 58.4077C466.653 67.8911 461.851 71.4219 454.634 71.4219C447.422 71.4219 442.65 67.8911 442.65 58.4077Z" fill="#231F20"/>
<path d="M479.213 45.833H484.473L490.801 64.2534L497.099 45.833H502.269L493.251 71.1846H488.174L479.213 45.833" fill="#231F20"/>
<path d="M516.938 45.8334H533.965V50.8601H521.951V55.7561H533.659V60.6169H521.951V66.1898H534.091V71.0137H516.938V45.8334Z" fill="#231F20"/>
<path d="M560.714 57.8622C563.438 57.8622 564.659 57.1184 564.659 54.2622C564.659 51.3382 563.497 50.5942 560.658 50.5942H554.814V57.8622H560.714ZM559.887 62.656H554.814V71.0205H549.922V45.8316H560.868C567.991 45.8316 569.703 49.2302 569.703 54.0582C569.703 57.5257 568.696 60.7205 564.935 62.0445L569.427 71.0205H564.081L559.887 62.656" fill="#231F20"/>
<path d="M585.506 45.8334H590.917L601.342 61.7038V45.8334H606.114V71.0137H601.529L590.307 54.0241V71.0137H585.506V45.8334" fill="#231F20"/>
<path d="M640.352 58.5099C640.352 53.5839 638.607 50.5239 633.412 50.5239C628.215 50.5239 626.467 53.5839 626.467 58.5099C626.467 63.438 628.215 66.5281 633.412 66.5281C638.607 66.5281 640.352 63.438 640.352 58.5099ZM621.428 58.4077C621.428 48.9612 626.196 45.4252 633.412 45.4252C640.628 45.4252 645.426 48.9612 645.426 58.4077C645.426 67.8911 640.628 71.4219 633.412 71.4219C626.196 71.4219 621.428 67.8911 621.428 58.4077Z" fill="#231F20"/>
<path d="M687.549 66.1549C693.726 66.1549 694.979 64.0871 694.979 58.4079C694.979 52.7334 693.939 50.8294 687.459 50.8294H684.281V66.1549H687.549ZM679.266 45.8334H687.398C696.327 45.8334 700.026 48.4187 700.026 58.4079C700.026 68.2278 696.205 71.0137 687.278 71.0137H679.266V45.8334Z" fill="#231F20"/>
<path d="M732.979 58.5099C732.979 53.5839 731.237 50.5239 726.037 50.5239C720.842 50.5239 719.097 53.5839 719.097 58.5099C719.097 63.438 720.842 66.5281 726.037 66.5281C731.237 66.5281 732.979 63.438 732.979 58.5099ZM714.051 58.4077C714.051 48.9612 718.826 45.4252 726.037 45.4252C733.25 45.4252 738.055 48.9612 738.055 58.4077C738.055 67.8911 733.25 71.4219 726.037 71.4219C718.826 71.4219 714.051 67.8911 714.051 58.4077Z" fill="#231F20"/>
<path d="M771.89 45.8334H788.919V50.8601H776.905V55.7561H788.615V60.6169H776.905V66.1898H789.043V71.0137H771.89V45.8334Z" fill="#231F20"/>
<path d="M802.923 68.0905L805.427 64.0828C807.845 65.8859 810.655 66.7692 813.559 66.7692C817.995 66.7692 818.823 65.8187 818.823 63.7088C818.823 61.6344 816.927 61.2265 813.439 60.6859C807.385 59.7333 804.238 58.5099 804.238 53.0385C804.238 47.4292 807.291 45.4252 813.682 45.4252C818.298 45.4252 821.115 46.6172 822.855 47.9079L820.167 52.2199C818.726 51.1719 816.07 50.2852 813.622 50.2852C810.074 50.2852 809.221 51.0639 809.221 52.9039C809.221 54.9412 811.083 55.3145 814.687 55.8919C820.13 56.7755 823.774 57.7629 823.774 63.438C823.774 68.5339 821.266 71.3916 813.71 71.3916C809.221 71.3916 805.486 70.2005 802.923 68.0905" fill="#231F20"/>
<path d="M844.191 50.8627H836.335V45.8334H857.065V50.8627H849.238V71.0137H844.191V50.8627Z" fill="#231F20"/>
<path d="M881.826 62.2835L878.279 52.2574L874.731 62.2835H881.826ZM875.866 45.6641H880.941L890.079 71.0137H884.879L883.414 66.8715H873.141L871.674 71.0137H866.786L875.866 45.6641" fill="#231F20"/>
<path d="M913.038 66.1549C919.21 66.1549 920.469 64.0871 920.469 58.4079C920.469 52.7334 919.427 50.8294 912.946 50.8294H909.766V66.1549H913.038ZM904.751 45.8334H912.887C921.814 45.8334 925.513 48.4187 925.513 58.4079C925.513 68.2278 921.69 71.0137 912.767 71.0137H904.751V45.8334Z" fill="#231F20"/>
<path d="M958.465 58.5099C958.465 53.5839 956.723 50.5239 951.526 50.5239C946.327 50.5239 944.589 53.5839 944.589 58.5099C944.589 63.438 946.327 66.5281 951.526 66.5281C956.723 66.5281 958.465 63.438 958.465 58.5099ZM939.543 58.4077C939.543 48.9612 944.309 45.4252 951.526 45.4252C958.742 45.4252 963.541 48.9612 963.541 58.4077C963.541 67.8911 958.742 71.4219 951.526 71.4219C944.309 71.4219 939.543 67.8911 939.543 58.4077Z" fill="#231F20"/>
</svg>
