<svg width="758" height="758" viewBox="0 0 758 758" fill="none" xmlns="http://www.w3.org/2000/svg">
<path d="M379.163 0.664603C588.303 0.664603 757.834 170.2 757.834 379.332C757.834 588.465 588.303 758 379.163 758C170.023 758 0.491943 588.465 0.491943 379.332C0.491943 170.2 170.023 0.664603 379.163 0.664603Z" fill="#DFDFDD"/>
<path d="M289.201 289.414C289.184 239.746 329.453 199.477 379.123 199.47C428.792 199.461 469.061 239.722 469.079 289.388C469.079 339.056 428.81 379.327 379.157 379.336C329.487 379.337 289.218 339.082 289.201 289.414ZM199.279 559.201V514.24C199.279 464.769 280.211 424.295 379.157 424.295C478.069 424.295 559.017 464.769 559.017 514.24V559.201H199.279Z" fill="#767779"/>
</svg>
