<svg width="833" height="838" viewBox="0 0 833 838" fill="none" xmlns="http://www.w3.org/2000/svg">
<path d="M12.5073 240.374C5.57489 240.374 0 234.76 0 227.833V12.5414C0 5.61385 5.57489 8.26641e-05 12.5073 8.26641e-05H232.598C239.53 8.26641e-05 245.154 5.61385 245.154 12.5414C245.154 19.4689 239.53 25.0827 232.598 25.0827H25.0633V227.833C25.0633 234.76 19.4396 240.374 12.5073 240.374Z" fill="white"/>
<path d="M819.555 837.336H599.469C592.542 837.336 586.918 831.722 586.918 824.793C586.918 817.867 592.542 812.253 599.469 812.253H807.004V609.503C807.004 602.577 812.629 596.961 819.555 596.961C826.482 596.961 832.106 602.577 832.106 609.503V824.793C832.106 831.722 826.482 837.336 819.555 837.336Z" fill="white"/>
</svg>
