<svg width="590" height="959" viewBox="0 0 590 959" fill="none" xmlns="http://www.w3.org/2000/svg">
<path d="M458.473 891.843H50.1959C38.2449 891.843 26.9555 887.177 18.4884 878.71C10.0212 870.24 5.39062 858.984 5.39062 847.009V49.5993C5.39062 37.6262 10.0212 26.3674 18.4884 17.9003C26.9555 9.43313 38.2449 4.76733 50.1959 4.76733H458.473C470.424 4.76733 481.713 9.43313 490.18 17.9003C498.603 26.3674 503.278 37.6262 503.278 49.5993V847.009C503.278 858.984 498.603 870.24 490.18 878.71C481.713 887.177 470.424 891.843 458.473 891.843Z" fill="#131315"/>
<path d="M50.2186 -0.00131797H458.458C485.862 -0.00131797 508.059 22.2089 508.059 49.5999V847.009C508.059 874.401 485.862 896.606 458.458 896.606H50.2186C22.8143 896.606 0.617188 874.401 0.617188 847.009V49.5999C0.617188 22.2089 22.8143 -0.00131797 50.2186 -0.00131797ZM50.2186 9.53494C39.4952 9.53494 29.4778 13.7008 21.8875 21.2689C14.2973 28.8371 10.1494 38.8985 10.1494 49.5999V847.009C10.1494 857.71 14.2973 867.77 21.8875 875.338C29.4778 882.906 39.4952 887.075 50.2186 887.075H458.458C469.181 887.075 479.198 882.906 486.789 875.338C494.335 867.77 498.527 857.71 498.527 847.009V49.5999C498.527 38.8985 494.335 28.8371 486.789 21.2689C479.198 13.7008 469.181 9.53494 458.458 9.53494H50.2186Z" fill="#131315"/>
<path d="M32.2625 101.851H477.126C482.406 101.851 486.674 106.119 486.674 111.381V785.067C486.674 790.331 482.406 794.598 477.126 794.598H32.2625C26.9827 794.598 22.7148 790.331 22.7148 785.067V111.381C22.7148 106.119 26.9827 101.851 32.2625 101.851Z" fill="white"/>
<path d="M137.403 568.654H374.726V331.348H137.403V568.654ZM381.496 582.213H130.633C126.858 582.213 123.82 579.177 123.82 575.431V324.569C123.82 320.825 126.858 317.787 130.633 317.787H381.496C385.228 317.787 388.265 320.825 388.265 324.569V575.431C388.265 579.177 385.228 582.213 381.496 582.213Z" fill="#55A6D4"/>
<path d="M157.771 410.41H216.451V351.73H157.771V410.41ZM218.739 414.973H155.526C154.255 414.973 153.238 413.956 153.238 412.697V349.459C153.238 348.205 154.255 347.183 155.526 347.183H218.739C220.01 347.183 221.027 348.2 221.027 349.454V349.459V412.697C221.027 413.952 220.01 414.973 218.739 414.973Z" fill="#55A6D4"/>
<path d="M173.764 360.73H200.446C204.336 360.73 207.465 363.863 207.465 367.728V394.414C207.465 398.279 204.336 401.412 200.446 401.412H173.764C169.916 401.412 166.787 398.279 166.787 394.414V367.728C166.787 363.863 169.916 360.73 173.764 360.73Z" fill="#55A6D4"/>
<path d="M295.66 410.406H354.301V351.73H295.66V410.406ZM356.591 414.974H293.369C292.116 414.974 291.079 413.954 291.079 412.701V412.696V349.457C291.079 348.204 292.116 347.184 293.369 347.184H356.591C357.888 347.18 358.882 348.199 358.882 349.457V412.696C358.882 413.954 357.888 414.974 356.634 414.974H356.591Z" fill="#55A6D4"/>
<path d="M311.635 360.731H338.333C342.172 360.731 345.32 363.862 345.32 367.727V394.416C345.32 398.277 342.172 401.412 338.333 401.412H311.635C307.753 401.412 304.648 398.277 304.648 394.416V367.727C304.648 363.862 307.753 360.731 311.635 360.731Z" fill="#55A6D4"/>
<path d="M157.771 546.018H216.451V487.333H157.771V546.018ZM218.739 550.572H155.526C154.255 550.576 153.238 549.555 153.238 548.301V548.297V485.058C153.238 483.8 154.255 482.779 155.526 482.779H218.739C220.01 482.779 221.027 483.8 221.027 485.054V485.058V548.297C221.027 549.555 220.01 550.572 218.739 550.572Z" fill="#55A6D4"/>
<path d="M173.764 496.334H200.446C204.336 496.334 207.465 499.463 207.465 503.327V530.018C207.465 533.883 204.336 537.012 200.446 537.012H173.764C169.916 537.012 166.787 533.883 166.787 530.018V503.327C166.787 499.463 169.916 496.334 173.764 496.334Z" fill="#55A6D4"/>
<path d="M161.121 448.652H177.216C180.334 448.652 182.82 451.167 182.82 454.268V470.376C182.82 473.477 180.334 475.988 177.216 475.988H161.121C158.003 475.988 155.475 473.477 155.475 470.376V454.268C155.475 451.167 158.003 448.652 161.121 448.652Z" fill="#55A6D4"/>
<path d="M190.237 421.315H206.359C209.448 421.315 211.986 423.828 211.986 426.93V443.038C211.986 446.14 209.448 448.653 206.359 448.653H190.237C187.148 448.653 184.652 446.14 184.652 443.038V426.93C184.652 423.828 187.148 421.315 190.237 421.315Z" fill="#55A6D4"/>
<path d="M235.543 475.992H219.439C216.337 475.992 213.788 473.477 213.788 470.375V454.266C213.788 451.164 216.337 448.653 219.439 448.653H235.543C238.645 448.653 241.152 451.164 241.152 454.266V470.375C241.152 473.477 238.645 475.992 235.543 475.992Z" fill="#55A6D4"/>
<path d="M264.664 448.652H248.577C245.462 448.652 242.945 446.139 242.945 443.037V426.929C242.945 423.831 245.462 421.318 248.577 421.318H264.664C267.779 421.318 270.296 423.831 270.296 426.929V443.037C270.296 446.139 267.779 448.652 264.664 448.652Z" fill="#55A6D4"/>
<path d="M278.258 376.334H262.14C259.019 376.334 256.539 373.82 256.539 370.72V354.611C256.539 351.511 259.019 348.997 262.14 348.997H278.258C281.336 348.997 283.858 351.511 283.858 354.611V370.72C283.858 373.82 281.336 376.334 278.258 376.334Z" fill="#55A6D4"/>
<path d="M249.248 520.972H265.337C268.452 520.972 270.97 523.49 270.97 526.592V542.698C270.97 545.8 268.452 548.313 265.337 548.313H249.248C246.133 548.313 243.616 545.8 243.616 542.698V526.592C243.616 523.49 246.133 520.972 249.248 520.972Z" fill="#55A6D4"/>
<path d="M278.388 493.631H294.501C297.629 493.631 300.114 496.147 300.114 499.249V515.354C300.114 518.456 297.629 520.972 294.501 520.972H278.388C275.302 520.972 272.774 518.456 272.774 515.354V499.249C272.774 496.147 275.302 493.631 278.388 493.631Z" fill="#55A6D4"/>
<path d="M323.686 548.313H307.549C304.451 548.313 301.955 545.8 301.955 542.698V526.591C301.955 523.488 304.451 520.975 307.549 520.975H323.686C326.785 520.975 329.281 523.488 329.281 526.591V542.698C329.281 545.8 326.785 548.313 323.686 548.313Z" fill="#55A6D4"/>
<path d="M352.829 520.977H336.712C333.6 520.977 331.094 518.462 331.094 515.359V499.254C331.094 496.152 333.6 493.637 336.712 493.637H352.829C355.941 493.637 358.447 496.152 358.447 499.254V515.359C358.447 518.462 355.941 520.977 352.829 520.977Z" fill="#55A6D4"/>
<path d="M323.686 475.988H307.549C304.451 475.988 301.955 473.475 301.955 470.377V454.266C301.955 451.167 304.451 448.65 307.549 448.65H323.686C326.785 448.65 329.281 451.167 329.281 454.266V470.377C329.281 473.475 326.785 475.988 323.686 475.988Z" fill="#55A6D4"/>
<path d="M352.829 448.653H336.712C333.6 448.653 331.094 446.138 331.094 443.036V426.931C331.094 423.828 333.6 421.314 336.712 421.314H352.829C355.941 421.314 358.447 423.828 358.447 426.931V443.036C358.447 446.138 355.941 448.653 352.829 448.653Z" fill="#55A6D4"/>
<path d="M89.9846 373.238C88.2142 373.238 86.8232 371.814 86.8232 370.06V279.544C86.8232 277.786 88.2142 276.365 89.9846 276.365H182.549C184.278 276.365 185.711 277.786 185.711 279.544C185.711 281.297 184.278 282.722 182.549 282.722H93.146V370.06C93.146 371.814 91.755 373.238 89.9846 373.238Z" fill="#232D5E"/>
<path d="M429.283 624.207H336.756C335.009 624.207 333.568 622.784 333.568 621.028C333.568 619.272 335.009 617.851 336.756 617.851H426.096V530.51C426.096 528.755 427.537 527.331 429.283 527.331C431.03 527.331 432.471 528.755 432.471 530.51V621.028C432.471 622.784 431.03 624.207 429.283 624.207Z" fill="#232D5E"/>
<path d="M460.5 699C532.03 699 590 757.202 590 829C590 900.797 532.03 959 460.5 959C388.969 959 331 900.797 331 829C331 757.202 388.969 699 460.5 699Z" fill="#CCCCCC"/>
<path d="M459.674 699.267C530.757 699.267 588.364 756.887 588.364 827.965C588.364 899.044 530.757 956.664 459.674 956.664C388.591 956.664 330.985 899.044 330.985 827.965C330.985 756.887 388.591 699.267 459.674 699.267Z" fill="white"/>
<path d="M543.016 792.405L456.069 875.825C454.827 877.015 453.186 877.675 451.456 877.665C451.19 877.671 450.968 877.662 450.746 877.633C448.794 877.44 447.02 876.392 445.911 874.773L437.172 861.903L429.498 850.672L439.301 841.315L446.931 852.512L452.52 860.703L533.789 782.748C536.451 780.204 540.665 780.304 543.238 782.971C545.766 785.639 545.678 789.864 542.972 792.409L543.016 792.405Z" fill="#6CBCEB"/>
<path d="M430.558 850.783L446.572 874.328C447.548 875.755 449.101 876.673 450.831 876.84C451.008 876.865 451.23 876.869 451.407 876.872H451.452C453.004 876.872 454.424 876.297 455.489 875.252L542.392 791.897L542.437 791.834C543.59 790.75 544.211 789.288 544.256 787.719C544.3 786.148 543.723 784.655 542.659 783.519C540.396 781.172 536.67 781.089 534.319 783.324L453.049 861.274C452.916 861.436 452.649 861.52 452.428 861.492C452.206 861.467 451.984 861.34 451.851 861.148L439.164 842.537L430.558 850.783ZM451.319 878.464C451.097 878.464 450.875 878.448 450.653 878.42C448.479 878.207 446.528 877.04 445.286 875.221L428.872 851.12C428.65 850.801 428.695 850.367 428.961 850.1L438.764 840.74C438.942 840.578 439.164 840.496 439.386 840.523C439.652 840.548 439.829 840.675 439.962 840.868L452.649 859.479L533.21 782.174C536.226 779.33 540.929 779.441 543.812 782.42C545.143 783.866 545.897 785.76 545.853 787.755C545.809 789.72 545.01 791.548 543.635 792.919L543.546 792.981L456.598 876.4C455.223 877.728 453.404 878.46 451.496 878.46L451.319 878.464Z" fill="white"/>
<path d="M509.603 792.406L446.947 852.51L437.188 861.903L422.661 875.844C421.425 877.035 419.747 877.694 418.025 877.684C417.804 877.689 417.583 877.679 417.318 877.653C415.375 877.459 413.609 876.412 412.505 874.793L384.246 833.243C382.171 830.198 382.921 826.044 386.012 823.967C389.015 821.891 393.209 822.675 395.24 825.722L419.084 860.722L429.549 850.693L439.307 841.335L500.375 782.768C503.024 780.223 507.263 780.322 509.78 782.991C512.341 785.658 512.253 789.884 509.559 792.429L509.603 792.406Z" fill="#6CBCEB"/>
<path d="M389.722 824.001C388.662 824.001 387.602 824.308 386.675 824.951C385.438 825.777 384.643 827.024 384.378 828.464C384.069 829.904 384.378 831.363 385.217 832.572L413.482 874.121C414.409 875.453 415.823 876.307 417.457 876.465C417.633 876.488 417.81 876.493 417.987 876.493H418.031C419.488 876.493 420.813 875.959 421.828 874.986L508.743 791.548L508.83 791.498C510.95 789.402 510.995 785.977 508.919 783.811C506.843 781.62 503.354 781.545 501.19 783.631L419.93 861.581C419.665 861.824 419.355 861.933 418.958 861.908C418.605 861.87 418.296 861.684 418.119 861.392L394.271 826.391C393.211 824.838 391.489 824.001 389.722 824.001ZM417.898 878.88C417.677 878.88 417.412 878.864 417.191 878.834C414.895 878.61 412.819 877.379 411.538 875.463L383.23 833.914C380.801 830.329 381.728 825.425 385.306 822.984C388.927 820.541 393.785 821.469 396.258 825.05L419.267 858.885L499.556 781.908C502.692 778.914 507.638 779.025 510.641 782.167C513.645 785.307 513.556 790.296 510.376 793.291L510.332 793.344L423.463 876.704C422.005 878.116 419.93 878.887 418.031 878.877L417.898 878.88Z" fill="white"/>
</svg>
