<svg width="833" height="838" viewBox="0 0 833 838" fill="none" xmlns="http://www.w3.org/2000/svg">
<path d="M13.2885 241.038C6.35614 241.038 0.78125 235.424 0.78125 228.497V13.2054C0.78125 6.27791 6.35614 0.664145 13.2885 0.664145H233.379C240.312 0.664145 245.935 6.27791 245.935 13.2054C245.935 20.133 240.312 25.7467 233.379 25.7467H25.8445V228.497C25.8445 235.424 20.2209 241.038 13.2885 241.038Z" fill="#232D5E"/>
<path d="M820.336 838H600.25C593.324 838 587.699 832.386 587.699 825.457C587.699 818.531 593.324 812.917 600.25 812.917H807.785V610.167C807.785 603.241 813.41 597.625 820.336 597.625C827.263 597.625 832.887 603.241 832.887 610.167V825.457C832.887 832.386 827.263 838 820.336 838Z" fill="#232D5E"/>
<path d="M151.358 682.7H682.771V151.285H151.358V682.7ZM697.918 713.061H136.16C127.791 713.061 120.962 706.263 120.962 697.876V136.108C120.962 127.718 127.791 120.92 136.16 120.92H697.918C706.338 120.92 713.115 127.718 713.115 136.108V697.876C713.115 706.263 706.338 713.061 697.918 713.061Z" fill="#55A6D4"/>
<path d="M196.959 328.338H328.404V196.903H196.959V328.338ZM333.505 338.545H191.858C189.063 338.545 186.758 336.264 186.758 333.449V333.444V191.812C186.758 188.997 189.063 186.711 191.858 186.711H333.505C336.301 186.711 338.606 188.997 338.606 191.812V333.444C338.606 336.259 336.35 338.54 333.505 338.545Z" fill="#55A6D4"/>
<path d="M228.212 217.078H297.203C303.311 217.078 308.245 222.027 308.245 228.125V297.135C308.245 303.233 303.311 308.183 297.203 308.183H228.212C222.104 308.183 217.121 303.233 217.121 297.135V228.125C217.121 222.027 222.104 217.078 228.212 217.078Z" fill="#55A6D4"/>
<path d="M505.692 328.334H637.119V196.903H505.692V328.334ZM642.213 338.548H500.598C497.796 338.548 495.504 336.266 495.504 333.449V191.814C495.504 188.997 497.796 186.715 500.598 186.715H642.213C645.014 186.715 647.307 188.997 647.307 191.814V333.444C647.307 336.256 645.014 338.543 642.213 338.548Z" fill="#55A6D4"/>
<path d="M536.927 217.077H605.902C612.043 217.077 616.966 222.025 616.966 228.126V297.131C616.966 303.232 612.043 308.181 605.902 308.181H536.927C530.785 308.181 525.862 303.232 525.862 297.131V228.126C525.862 222.025 530.785 217.077 536.927 217.077Z" fill="#55A6D4"/>
<path d="M196.959 632.004H328.404V500.571H196.959V632.004ZM333.505 642.202H191.858C189.063 642.202 186.758 639.921 186.758 637.106V637.101V495.483C186.758 492.666 189.063 490.377 191.858 490.371H333.505C336.301 490.377 338.606 492.666 338.606 495.483V637.106C338.606 639.921 336.301 642.202 333.505 642.202" fill="#55A6D4"/>
<path d="M228.212 520.74H297.203C303.311 520.74 308.245 525.687 308.245 531.787V600.795C308.245 606.895 303.311 611.842 297.203 611.842H228.212C222.104 611.842 217.121 606.895 217.121 600.795V531.787C217.121 525.687 222.104 520.74 228.212 520.74" fill="#55A6D4"/>
<path d="M200.687 413.975H244.163C249.064 413.975 253.043 417.944 253.043 422.839V466.333C253.043 471.228 249.064 475.197 244.163 475.197H200.687C195.787 475.197 191.808 471.228 191.808 466.333V422.839C191.808 417.944 195.787 413.975 200.687 413.975Z" fill="#55A6D4"/>
<path d="M266.004 352.752H309.496C314.388 352.752 318.351 356.72 318.351 361.617V405.109C318.351 410.006 314.388 413.974 309.496 413.974H266.004C261.111 413.974 257.1 410.006 257.1 405.109V361.617C257.1 356.72 261.111 352.752 266.004 352.752Z" fill="#55A6D4"/>
<path d="M374.781 475.196H331.278C326.395 475.196 322.45 471.227 322.45 466.332V422.836C322.45 417.944 326.395 413.973 331.278 413.973H374.781C379.714 413.973 383.659 417.944 383.659 422.836V466.332C383.659 471.227 379.714 475.196 374.781 475.196" fill="#55A6D4"/>
<path d="M440.117 413.973H396.609C391.736 413.973 387.758 410.005 387.758 405.112V361.619C387.758 356.721 391.736 352.753 396.609 352.753H440.117C444.99 352.753 448.968 356.721 448.968 361.619V405.112C448.968 410.005 444.99 413.973 440.117 413.973Z" fill="#55A6D4"/>
<path d="M470.495 252.019H426.973C422.082 252.019 418.14 248.051 418.14 243.155V199.663C418.14 194.767 422.082 190.799 426.973 190.799H470.495C475.386 190.799 479.329 194.767 479.329 199.663V243.155C479.329 248.051 475.386 252.019 470.495 252.019Z" fill="#55A6D4"/>
<path d="M398.055 575.923H441.572C446.445 575.923 450.424 579.892 450.424 584.787V628.281C450.424 633.176 446.445 637.146 441.572 637.146H398.055C393.182 637.146 389.203 633.176 389.203 628.281V584.787C389.203 579.892 393.182 575.923 398.055 575.923Z" fill="#55A6D4"/>
<path d="M463.394 514.703H506.859C511.772 514.703 515.733 518.671 515.733 523.567V567.06C515.733 571.954 511.772 575.924 506.859 575.924H463.394C458.481 575.924 454.521 571.954 454.521 567.06V523.567C454.521 518.671 458.481 514.703 463.394 514.703Z" fill="#55A6D4"/>
<path d="M572.198 637.146H528.689C523.787 637.146 519.794 633.177 519.794 628.28V584.787C519.794 579.891 523.787 575.923 528.689 575.923H572.198C577.05 575.923 581.042 579.891 581.042 584.787V628.28C581.042 633.177 577.05 637.146 572.198 637.146Z" fill="#55A6D4"/>
<path d="M637.488 575.924H593.99C589.1 575.924 585.127 571.955 585.127 567.06V523.567C585.127 518.671 589.1 514.702 593.99 514.702H637.488C642.377 514.702 646.351 518.671 646.351 523.567V567.06C646.351 571.955 642.377 575.924 637.488 575.924Z" fill="#55A6D4"/>
<path d="M572.198 475.197H528.689C523.787 475.197 519.794 471.228 519.794 466.333V422.84C519.794 417.943 523.787 413.976 528.689 413.976H572.198C577.05 413.976 581.042 417.943 581.042 422.84V466.333C581.042 471.228 577.05 475.197 572.198 475.197Z" fill="#55A6D4"/>
<path d="M637.488 413.975H593.99C589.1 413.975 585.127 410.007 585.127 405.112V361.619C585.127 356.719 589.1 352.751 593.99 352.751H637.488C642.377 352.751 646.351 356.719 646.351 361.619V405.112C646.351 410.007 642.377 413.975 637.488 413.975" fill="#55A6D4"/>
</svg>
