<svg width="521" height="857" viewBox="0 0 521 857" fill="none" xmlns="http://www.w3.org/2000/svg">
<path d="M18.1147 332.946H332.483V18.5998H18.1147V332.946ZM341.466 350.916H9.16855C4.18207 350.916 0.185547 346.894 0.185547 341.933V9.62416C0.185547 4.65969 4.18207 0.637487 9.16855 0.637487H341.466C346.416 0.637487 350.449 4.65969 350.449 9.62416V341.933C350.449 346.894 346.416 350.916 341.466 350.916Z" fill="#55A6D4"/>
<path d="M45.1176 123.332H122.862V45.5982H45.1176V123.332ZM125.898 129.373H42.0811C40.4217 129.373 39.0801 128.02 39.0801 126.357V42.5759C39.0801 40.9095 40.4217 39.5608 42.0811 39.5608H125.898C127.557 39.5608 128.899 40.9095 128.899 42.5759V126.357C128.899 128.02 127.557 129.373 125.898 129.373Z" fill="#55A6D4"/>
<path d="M63.7983 57.5261H104.168C107.899 57.5261 110.926 60.5565 110.926 64.3013V104.639C110.926 108.381 107.899 111.415 104.168 111.415H63.7983C60.0676 111.415 57.041 108.381 57.041 104.639V64.3013C57.041 60.5565 60.0676 57.5261 63.7983 57.5261Z" fill="#55A6D4"/>
<path d="M227.744 123.333H305.478V45.5993H227.744V123.333ZM308.502 129.373H224.721C223.045 129.373 221.697 128.022 221.697 126.357V42.5759C221.697 40.9076 223.045 39.5598 224.721 39.5598H308.502C310.177 39.5598 311.525 40.9076 311.525 42.5759V126.357C311.525 128.022 310.177 129.373 308.502 129.373Z" fill="#55A6D4"/>
<path d="M246.449 57.5215H286.76C290.537 57.5215 293.552 60.5575 293.552 64.298V104.638C293.552 108.379 290.537 111.411 286.76 111.411H246.449C242.709 111.411 239.658 108.379 239.658 104.638V64.298C239.658 60.5575 242.709 57.5215 246.449 57.5215Z" fill="#55A6D4"/>
<path d="M45.1176 302.966H122.862V225.229H45.1176V302.966ZM125.898 309H42.0811C40.4217 309 39.0801 307.651 39.0801 305.985V222.21C39.0801 220.544 40.4217 219.192 42.0811 219.188H125.898C127.557 219.192 128.899 220.544 128.899 222.21V305.981C128.899 307.644 127.557 308.996 125.898 309Z" fill="#55A6D4"/>
<path d="M63.7983 237.152H104.168C107.899 237.152 110.926 240.186 110.926 243.927V284.265C110.926 288.006 107.899 291.04 104.168 291.04H63.7983C60.0676 291.04 57.041 288.006 57.041 284.265V243.927C57.041 240.186 60.0676 237.152 63.7983 237.152Z" fill="#55A6D4"/>
<path d="M47.5078 173.99H72.8797C75.8544 173.99 78.3041 176.422 78.3041 179.428V204.769C78.3041 207.771 75.8544 210.207 72.8797 210.207H47.5078C44.5332 210.207 42.0835 207.771 42.0835 204.769V179.428C42.0835 176.422 44.5332 173.99 47.5078 173.99Z" fill="#55A6D4"/>
<path d="M86.1312 137.776H111.499C114.493 137.776 116.925 140.21 116.925 143.212V168.555C116.925 171.557 114.493 173.991 111.499 173.991H86.1312C83.1364 173.991 80.7056 171.557 80.7056 168.555V143.212C80.7056 140.21 83.1364 137.776 86.1312 137.776Z" fill="#55A6D4"/>
<path d="M150.118 210.206H124.757C121.742 210.206 119.33 207.773 119.33 204.769V179.429C119.33 176.425 121.742 173.992 124.757 173.992H150.118C153.097 173.992 155.544 176.425 155.544 179.429V204.769C155.544 207.773 153.097 210.206 150.118 210.206Z" fill="#55A6D4"/>
<path d="M188.737 173.993H163.385C160.386 173.993 157.958 171.557 157.958 168.555V143.214C157.958 140.211 160.386 137.776 163.385 137.776H188.737C191.736 137.776 194.165 140.211 194.165 143.214V168.555C194.165 171.557 191.736 173.993 188.737 173.993Z" fill="#55A6D4"/>
<path d="M206.694 78.1909H181.371C178.363 78.1909 175.927 75.7554 175.927 72.754V47.4136C175.927 44.4085 178.363 41.9766 181.371 41.9766H206.694C209.702 41.9766 212.138 44.4085 212.138 47.4136V72.754C212.138 75.7554 209.702 78.1909 206.694 78.1909Z" fill="#55A6D4"/>
<path d="M164.272 269.794H189.627C192.627 269.794 195.055 272.226 195.055 275.23V300.574C195.055 303.574 192.627 306.01 189.627 306.01H164.272C161.272 306.01 158.843 303.574 158.843 300.574V275.23C158.843 272.226 161.272 269.794 164.272 269.794Z" fill="#55A6D4"/>
<path d="M202.904 233.577H228.248C231.231 233.577 233.676 236.015 233.676 239.016V264.357C233.676 267.359 231.231 269.796 228.248 269.796H202.904C199.884 269.796 197.475 267.359 197.475 264.357V239.016C197.475 236.015 199.884 233.577 202.904 233.577Z" fill="#55A6D4"/>
<path d="M266.868 306.01H241.538C238.498 306.01 236.074 303.578 236.074 300.575V275.234C236.074 272.23 238.498 269.795 241.538 269.795H266.868C269.871 269.795 272.296 272.23 272.296 275.234V300.575C272.296 303.578 269.871 306.01 266.868 306.01Z" fill="#55A6D4"/>
<path d="M305.51 269.795H280.16C277.173 269.795 274.733 267.358 274.733 264.357V239.018C274.733 236.013 277.173 233.58 280.16 233.58H305.51C308.497 233.58 310.937 236.013 310.937 239.018V264.357C310.937 267.358 308.497 269.795 305.51 269.795Z" fill="#55A6D4"/>
<path d="M266.868 210.208H241.538C238.498 210.208 236.074 207.773 236.074 204.773V179.428C236.074 176.428 238.498 173.993 241.538 173.993H266.868C269.871 173.993 272.296 176.428 272.296 179.428V204.773C272.296 207.773 269.871 210.208 266.868 210.208Z" fill="#55A6D4"/>
<path d="M305.51 173.991H280.16C277.173 173.991 274.733 171.555 274.733 168.553V143.214C274.733 140.209 277.173 137.776 280.16 137.776H305.51C308.497 137.776 310.937 140.209 310.937 143.214V168.553C310.937 171.555 308.497 173.991 305.51 173.991Z" fill="#55A6D4"/>
<path d="M480.177 851.409H150.945C141.487 851.409 132.596 847.728 125.926 841.046C119.22 834.362 115.565 825.476 115.565 816.025V172.948C115.565 163.498 119.22 154.61 125.926 147.925C132.596 141.241 141.487 137.56 150.945 137.56H480.177C489.634 137.56 498.489 141.241 505.196 147.925C511.865 154.61 515.557 163.498 515.557 172.948V816.025C515.557 825.477 511.865 834.362 505.196 841.046C498.489 847.728 489.634 851.409 480.177 851.409Z" fill="#131315"/>
<path d="M150.942 132.946H480.158C502.254 132.946 520.164 150.857 520.164 172.949V816.026C520.164 838.116 502.254 856.025 480.158 856.025H150.942C128.846 856.025 110.936 838.116 110.936 816.026V172.949C110.936 150.857 128.846 132.946 150.942 132.946ZM150.942 142.177C133.974 142.177 120.174 155.981 120.174 172.949V816.026C120.174 832.992 133.974 846.793 150.942 846.793H480.158C497.126 846.793 510.926 832.992 510.926 816.026V172.949C510.926 155.981 497.126 142.177 480.158 142.177H150.942Z" fill="#131315"/>
<path d="M138.616 216.025H492.481C497.556 216.025 501.691 220.157 501.691 225.254V763.717C501.691 768.816 497.556 772.948 492.481 772.948H138.616C133.503 772.948 129.368 768.816 129.368 763.717V225.254C129.368 220.157 133.503 216.025 138.616 216.025Z" fill="white"/>
<path d="M221.232 591.548H412.59V400.165H221.232V591.548ZM418.046 602.484H215.739C212.732 602.486 210.283 600.039 210.283 597.019V597.016V394.709C210.283 391.688 212.732 389.239 215.739 389.239H418.046C421.089 389.235 423.539 391.685 423.539 394.702V394.706V597.012C423.539 600.032 421.089 602.482 418.083 602.484H418.046Z" fill="#55A6D4"/>
<path d="M237.664 463.933H284.981V416.608H237.664V463.933ZM286.832 467.608H235.85C234.834 467.608 233.999 466.781 233.999 465.765V414.779C233.999 413.759 234.834 412.932 235.85 412.932H286.832C287.848 412.932 288.683 413.759 288.683 414.779V465.783C288.683 466.796 287.848 467.608 286.832 467.608Z" fill="#55A6D4"/>
<path d="M251.687 423.869H270.956C274.687 423.869 277.729 426.901 277.729 430.642V449.9C277.729 453.641 274.687 456.673 270.956 456.673H251.687C247.957 456.673 244.915 453.641 244.915 449.9V430.642C244.915 426.901 247.957 423.869 251.687 423.869Z" fill="#55A6D4"/>
<path d="M348.832 463.933H396.152V416.61H348.832V463.933ZM398 467.611H346.984C345.986 467.611 345.172 466.783 345.172 465.763V414.78C345.172 413.759 345.986 412.935 346.984 412.935H398C399.035 412.935 399.849 413.759 399.849 414.78V465.785C399.849 466.798 399.035 467.611 398 467.611Z" fill="#55A6D4"/>
<path d="M362.902 423.866H382.127C385.891 423.866 388.917 426.899 388.917 430.641V449.896C388.917 453.641 385.891 456.671 382.127 456.671H362.902C359.138 456.671 356.112 453.641 356.112 449.896V430.641C356.112 426.899 359.138 423.866 362.902 423.866Z" fill="#55A6D4"/>
<path d="M237.664 573.289H284.981V525.96H237.664V573.289ZM286.832 576.961H235.85C234.834 576.961 233.999 576.137 233.999 575.118V524.124C233.999 523.108 234.834 522.281 235.85 522.281H286.832C287.848 522.281 288.683 523.108 288.683 524.124V575.128C288.683 576.144 287.848 576.961 286.832 576.961Z" fill="#55A6D4"/>
<path d="M251.687 533.226H270.956C274.687 533.226 277.729 536.257 277.729 539.999V559.256C277.729 562.998 274.687 566.029 270.956 566.029H251.687C247.957 566.029 244.915 562.998 244.915 559.256V539.999C244.915 536.257 247.957 533.226 251.687 533.226Z" fill="#55A6D4"/>
<path d="M241.26 494.773H252.414C255.41 494.773 257.865 497.206 257.865 500.209V511.385C257.865 514.388 255.41 516.821 252.414 516.821H241.26C238.228 516.821 235.81 514.388 235.81 511.385V500.209C235.81 497.206 238.228 494.773 241.26 494.773Z" fill="#55A6D4"/>
<path d="M264.782 472.726H275.945C278.953 472.726 281.381 475.161 281.381 478.162V489.339C281.381 492.34 278.953 494.775 275.945 494.775H264.782C261.774 494.775 259.346 492.34 259.346 489.339V478.162C259.346 475.161 261.774 472.726 264.782 472.726Z" fill="#55A6D4"/>
<path d="M299.438 516.823H288.267C285.284 516.823 282.846 514.389 282.846 511.384V500.209C282.846 497.208 285.284 494.773 288.267 494.773H299.438C302.458 494.773 304.896 497.208 304.896 500.209V511.384C304.896 514.389 302.458 516.823 299.438 516.823Z" fill="#55A6D4"/>
<path d="M322.968 494.775H311.79C308.795 494.775 306.347 492.339 306.347 489.336V478.161C306.347 475.159 308.795 472.722 311.79 472.722H322.968C325.964 472.722 328.412 475.159 328.412 478.161V489.336C328.412 492.339 325.964 494.775 322.968 494.775Z" fill="#55A6D4"/>
<path d="M333.89 436.448H322.728C319.727 436.448 317.312 434.015 317.312 431.014V419.837C317.312 416.836 319.727 414.398 322.728 414.398H333.89C336.928 414.398 339.343 416.836 339.343 419.837V431.014C339.343 434.015 336.928 436.448 333.89 436.448Z" fill="#55A6D4"/>
<path d="M312.332 553.097H323.511C326.507 553.097 328.955 555.534 328.955 558.537V569.712C328.955 572.715 326.507 575.147 323.511 575.147H312.332C309.336 575.147 306.888 572.715 306.888 569.712V558.537C306.888 555.534 309.336 553.097 312.332 553.097Z" fill="#55A6D4"/>
<path d="M335.855 531.05H347.042C350.013 531.05 352.47 533.481 352.47 536.485V547.661C352.47 550.665 350.013 553.097 347.042 553.097H335.855C332.847 553.097 330.427 550.665 330.427 547.661V536.485C330.427 533.481 332.847 531.05 335.855 531.05Z" fill="#55A6D4"/>
<path d="M370.514 575.146H359.357C356.338 575.146 353.907 572.71 353.907 569.71V558.534C353.907 555.53 356.338 553.096 359.357 553.096H370.514C373.533 553.096 375.964 555.53 375.964 558.534V569.71C375.964 572.71 373.533 575.146 370.514 575.146Z" fill="#55A6D4"/>
<path d="M394.067 553.097H382.903C379.872 553.097 377.432 550.664 377.432 547.663V536.484C377.432 533.482 379.872 531.05 382.903 531.05H394.067C397.061 531.05 399.501 533.482 399.501 536.484V547.663C399.501 550.664 397.061 553.097 394.067 553.097Z" fill="#55A6D4"/>
<path d="M370.514 516.823H359.357C356.338 516.823 353.907 514.389 353.907 511.385V500.209C353.907 497.208 356.338 494.774 359.357 494.774H370.514C373.533 494.774 375.964 497.208 375.964 500.209V511.385C375.964 514.389 373.533 516.823 370.514 516.823Z" fill="#55A6D4"/>
<path d="M394.067 494.771H382.903C379.872 494.771 377.432 492.335 377.432 489.334V478.163C377.432 475.157 379.872 472.721 382.903 472.721H394.067C397.061 472.721 399.501 475.157 399.501 478.163V489.334C399.501 492.335 397.061 494.771 394.067 494.771Z" fill="#55A6D4"/>
<path d="M182.972 434.446C181.274 434.446 179.902 433.07 179.902 431.369V358.371C179.902 356.673 181.274 355.294 182.972 355.294H257.621C259.318 355.294 260.69 356.673 260.69 358.371C260.69 360.072 259.318 361.448 257.621 361.448H186.078V431.369C186.078 433.07 184.705 434.446 182.972 434.446Z" fill="#232D5E"/>
<path d="M456.641 636.84H382.007C380.29 636.84 378.908 635.462 378.908 633.764C378.908 632.064 380.29 630.686 382.007 630.686H453.542V560.765C453.542 559.062 454.924 557.685 456.641 557.685C458.321 557.685 459.703 559.062 459.703 560.765V633.764C459.703 635.462 458.321 636.84 456.641 636.84Z" fill="#232D5E"/>
</svg>
